<svg width="51" height="55" viewBox="0 0 51 55" fill="none" xmlns="http://www.w3.org/2000/svg">
<path opacity="0.4" d="M26.0523 0.663113C25.6947 0.541983 25.3072 0.541983 24.9496 0.663113C20.93 2.02458 15.699 5.74943 12.6165 12.4707C9.51759 19.2278 8.67044 28.8269 13.091 41.8036C13.2601 42.3 13.6466 42.692 14.1405 42.8682C14.6344 43.0444 15.1818 42.9854 15.6268 42.7081C16.6363 42.0792 20.2972 40.5332 25.5009 40.5332C30.7047 40.5332 34.3656 42.0792 35.375 42.7081C35.8201 42.9854 36.3675 43.0444 36.8614 42.8682C37.3553 42.692 37.7418 42.3 37.9109 41.8036C42.3314 28.8269 41.4843 19.2278 38.3854 12.4707C35.3029 5.74943 30.0719 2.02458 26.0523 0.663113Z" fill="#071C2F"/>
<path d="M31.2303 18.3327C31.2303 15.1686 28.6653 12.6035 25.5011 12.6035C22.337 12.6035 19.772 15.1686 19.772 18.3327C19.772 21.4968 22.337 24.0618 25.5011 24.0618C28.6653 24.0618 31.2303 21.4968 31.2303 18.3327Z" fill="#071C2F"/>
<path d="M47.3275 42.6466C47.8245 43.0048 48.4745 43.0714 49.0338 42.8214C49.5931 42.5714 49.977 42.0426 50.0416 41.4334L50.043 41.4264C50.1951 40.9216 50.1281 39.846 50.0754 39.3703C50.0219 38.1689 49.8331 36.5221 49.2801 34.7735C48.6469 32.7711 47.5252 30.6249 45.609 28.8843C44.8965 28.2371 44.5403 27.9136 44.1458 28.0639C43.7512 28.2143 43.6954 28.7431 43.5837 29.8008C43.2869 32.6111 42.719 35.6053 41.84 38.7882C41.6569 39.4515 41.5652 39.7833 41.7021 40.0292C41.8391 40.2752 42.1794 40.3751 42.8601 40.575C44.4974 41.0556 46.0539 41.7287 47.3275 42.6466Z" fill="#071C2F"/>
<path d="M3.67479 42.6466C3.1778 43.0047 2.52773 43.0713 1.96846 42.8213C1.40918 42.5713 1.02526 42.0425 0.960701 41.4333L0.959294 41.4263C0.80713 40.9215 0.874167 39.8459 0.926845 39.3702C0.980349 38.1689 1.16921 36.522 1.72216 34.7735C2.3554 32.7711 3.47702 30.6249 5.39318 28.8843C6.10561 28.2371 6.46183 27.9136 6.85637 28.0639C7.25092 28.2143 7.30677 28.7431 7.41846 29.8008C7.71523 32.6111 8.28313 35.6053 9.16214 38.7882C9.34533 39.4515 9.43693 39.7832 9.3 40.0292C9.16308 40.2752 8.82272 40.3751 8.14202 40.5749C6.50483 41.0555 4.94839 41.7287 3.67479 42.6466Z" fill="#071C2F"/>
<path d="M19.2286 44.2021C23.019 42.9386 27.9837 42.9389 31.7739 44.2021C32.5763 44.4695 33.0649 45.2809 32.9258 46.1152L32.9254 46.118C32.925 47.0206 32.0914 48.8459 31.6747 49.6457C30.715 51.4554 28.9532 53.6467 25.9024 54.3789C25.6388 54.4422 25.3639 54.4422 25.1002 54.3789C22.0494 53.6467 20.2876 51.4554 19.3279 49.6457C18.688 48.6112 18.2272 46.861 18.0768 46.1152C17.9377 45.281 18.4263 44.4696 19.2286 44.2021Z" fill="#071C2F"/>
</svg>
