<svg width="55" height="55" viewBox="0 0 55 55" fill="none" xmlns="http://www.w3.org/2000/svg">
<path opacity="0.4" d="M27.5 2.86523C17.0584 2.86523 8.59375 11.3299 8.59375 21.7715C8.59375 27.6102 11.2425 32.8318 15.3977 36.2972C16.9465 37.5889 18.1206 39.0888 18.6292 40.6777H36.3708C36.8794 39.0888 38.0535 37.5889 39.6023 36.2972C43.7575 32.8318 46.4062 27.6102 46.4062 21.7715C46.4062 11.3299 37.9416 2.86523 27.5 2.86523Z" fill="#071C2F"/>
<path d="M27.5 15.4688C25.9682 15.4688 24.6354 16.9111 24.6354 18.3333C24.6354 19.2826 23.8659 20.0521 22.9167 20.0521C21.9674 20.0521 21.1979 19.2826 21.1979 18.3333C21.1979 15.1148 23.9691 12.0312 27.5 12.0312C30.8367 12.0312 33.8021 14.5441 33.8021 17.9514C33.8021 19.1618 33.4143 20.2827 32.7639 21.2093C32.3627 21.7808 31.8952 22.3244 31.4683 22.8107L31.237 23.0735C30.8826 23.4756 30.5597 23.842 30.2611 24.2181C29.5146 25.1586 29.2188 25.8088 29.2188 26.3542C29.2188 27.3034 28.4492 28.0729 27.5 28.0729C26.5508 28.0729 25.7812 27.3034 25.7812 26.3542C25.7812 24.5792 26.7291 23.1388 27.5687 22.081C27.9278 21.6287 28.3213 21.1825 28.6768 20.7793L28.8849 20.543C29.3096 20.0592 29.6667 19.6385 29.9504 19.2343C30.2191 18.8515 30.3646 18.4137 30.3646 17.9514C30.3646 16.718 29.2259 15.4688 27.5 15.4688Z" fill="#071C2F"/>
<path d="M18.9062 44.1146V46.9792C18.9062 49.8269 21.2148 52.1354 24.0625 52.1354H30.9375C33.7852 52.1354 36.0938 49.8269 36.0938 46.9792V44.1146H18.9062Z" fill="#071C2F"/>
<path d="M27.4821 29.7917C26.2164 29.7917 25.1904 30.8177 25.1904 32.0833C25.1904 33.349 26.2164 34.375 27.4821 34.375H27.5027C28.7683 34.375 29.7943 33.349 29.7943 32.0833C29.7943 30.8177 28.7683 29.7917 27.5027 29.7917H27.4821Z" fill="#071C2F"/>
</svg>
