<svg width="56" height="56" viewBox="0 0 56 56" fill="none" xmlns="http://www.w3.org/2000/svg">
<path opacity="0.4" d="M30.6244 3.15234H30.6244H25.1595H25.1595C21.5517 3.15232 18.6908 3.15229 16.4507 3.41582C14.1586 3.68546 12.2556 4.2547 10.7281 5.59125C9.1676 6.95669 8.4714 8.70803 8.14745 10.8163C7.83973 12.819 7.83978 15.3591 7.83985 18.4802V18.4803V36.9544H47.944V18.4803C47.9441 15.3592 47.9441 12.819 47.6364 10.8163C47.3125 8.70803 46.6163 6.95669 45.0558 5.59125C43.5283 4.2547 41.6252 3.68546 39.3332 3.41582C37.0931 3.15229 34.2321 3.15232 30.6244 3.15234Z" fill="#071C2F"/>
<path d="M25.1528 13.7937C25.7853 13.7031 26.5081 13.6468 27.1662 13.6629C27.5053 13.6712 27.7849 13.698 28.0057 13.7338C27.8506 13.9426 27.6282 14.2023 27.3161 14.5154C24.8098 17.0299 21.6517 21.1273 20.1833 24.2377C19.8128 25.0224 19.507 25.8321 19.3725 26.5921C19.2486 27.2928 19.2041 28.3264 19.8459 29.1943C20.5579 30.1572 21.6654 30.3468 22.553 30.2875C23.44 30.2282 24.4607 29.9141 25.5879 29.4295C27.6052 28.5621 29.2755 28.0823 30.5701 27.8825C31.8684 27.6821 32.6402 27.7859 32.999 27.9192C32.9162 28.1234 32.6989 28.5099 32.1492 29.0614C31.4791 29.7337 31.4809 30.822 32.1532 31.4921C32.8255 32.1622 33.9138 32.1604 34.5839 31.4881C35.599 30.4696 36.4071 29.2555 36.4795 27.9454C36.5184 27.2432 36.3393 26.5455 35.908 25.9466C35.4896 25.3654 34.9103 24.9818 34.3084 24.7402C33.1432 24.2726 31.656 24.2367 30.0458 24.4852C28.3954 24.7399 26.4412 25.3207 24.23 26.2715C23.6493 26.5212 23.2017 26.6726 22.867 26.7593C22.9572 26.4723 23.0957 26.1204 23.2918 25.7052C24.5417 23.0578 27.4243 19.2761 29.7507 16.9421C30.7606 15.9289 31.5721 14.8316 31.7027 13.6574C31.7769 12.991 31.6258 12.3359 31.236 11.7801C30.8714 11.2603 30.3784 10.9408 29.9435 10.7417C29.1048 10.3578 28.0968 10.2471 27.2503 10.2264C26.3604 10.2046 25.442 10.2797 24.6651 10.391C23.7254 10.5257 23.0729 11.3966 23.2076 12.3362C23.3422 13.2759 24.2131 13.9284 25.1528 13.7937Z" fill="#071C2F"/>
<path d="M7.26628 36.9528C6.00062 36.9528 4.97461 37.9788 4.97461 39.2445C4.97461 40.5101 6.00062 41.5361 7.26628 41.5361H14.3339L9.88487 48.9512C9.2337 50.0365 9.58562 51.4441 10.6709 52.0953C11.7562 52.7465 13.1639 52.3946 13.815 51.3093L19.6789 41.5361H25.6V47.8386C25.6 49.1042 26.626 50.1302 27.8916 50.1302C29.1573 50.1302 30.1833 49.1042 30.1833 47.8386V41.5361H36.1043L41.9682 51.3093C42.6194 52.3946 44.0271 52.7465 45.1123 52.0953C46.1976 51.4441 46.5496 50.0365 45.8984 48.9512L41.4494 41.5361H48.5163C49.7819 41.5361 50.8079 40.5101 50.8079 39.2445C50.8079 37.9788 49.7819 36.9528 48.5163 36.9528H7.26628Z" fill="#071C2F"/>
</svg>
