<svg width="56" height="56" viewBox="0 0 56 56" fill="none" xmlns="http://www.w3.org/2000/svg">
<path opacity="0.4" d="M52.6338 27.7878C52.6338 14.182 41.6041 3.15234 27.9984 3.15234C14.3926 3.15234 3.36295 14.182 3.36295 27.7878C3.36295 41.3935 14.3926 52.4232 27.9984 52.4232C41.6041 52.4232 52.6338 41.3935 52.6338 27.7878Z" fill="#071C2F"/>
<path d="M28.2377 19.44C28.1879 18.4921 28.916 17.6833 29.8639 17.6335C30.3699 17.6069 30.8363 17.802 31.1687 18.1339L32.7898 19.755L36.69 15.8548C37.585 14.9599 39.036 14.9599 39.9309 15.8548C40.8259 16.7498 40.8259 18.2008 39.9309 19.0957L36.0307 22.9959L37.6512 24.6163C37.9835 24.9488 38.1788 25.4155 38.1522 25.9218C38.1025 26.8697 37.2937 27.5978 36.3457 27.5481C36.1561 27.5381 35.7896 27.5534 35.1958 27.5855L35.0659 27.5925C34.546 27.6207 33.9261 27.6544 33.3114 27.6642C32.6531 27.6748 31.9273 27.6601 31.2731 27.5646C30.7196 27.4838 29.7973 27.2954 29.1438 26.6419C28.4903 25.9884 28.3019 25.0661 28.2211 24.5127C28.1256 23.8584 28.1109 23.1326 28.1215 22.4743C28.1314 21.8596 28.165 21.2397 28.1932 20.7198L28.2003 20.59C28.2323 19.9961 28.2476 19.6297 28.2377 19.44Z" fill="#071C2F"/>
<path d="M27.758 36.1358C27.8078 37.0837 27.0797 37.8925 26.1318 37.9423C25.6254 37.9689 25.1588 37.7735 24.8263 37.4412L23.2059 35.8208L19.3057 39.721C18.4107 40.6159 16.9597 40.6159 16.0648 39.721C15.1698 38.826 15.1698 37.375 16.0648 36.4801L19.965 32.5799L18.3438 30.9588C18.012 30.6263 17.8169 30.16 17.8435 29.654C17.8932 28.706 18.702 27.9779 19.65 28.0277C19.8396 28.0377 20.2061 28.0223 20.7999 27.9903L20.9297 27.9833C21.4497 27.955 22.0696 27.9214 22.6843 27.9115C23.3426 27.901 24.0684 27.9156 24.7226 28.0112C25.2761 28.0919 26.1984 28.2804 26.8519 28.9339C27.5054 29.5873 27.6938 30.5096 27.7746 31.0631C27.8701 31.7173 27.8848 32.4432 27.8742 33.1015C27.8643 33.7161 27.8307 34.336 27.8025 34.8559L27.7954 34.9858C27.7634 35.5797 27.7481 35.9461 27.758 36.1358Z" fill="#071C2F"/>
</svg>
