<svg width="57" height="56" viewBox="0 0 57 56" fill="none" xmlns="http://www.w3.org/2000/svg">
<path opacity="0.4" d="M12.6644 7.21971C12.6644 7.0166 12.4904 6.85227 12.2892 6.88002C10.2265 7.16453 8.51308 7.77252 7.16005 9.12681C5.78094 10.5072 5.18783 12.2451 4.91057 14.3093C4.64348 16.2977 4.64351 18.8261 4.64356 21.9631V37.1244C4.64352 40.2614 4.64348 42.7897 4.91057 44.7781C5.18783 46.8423 5.78094 48.5802 7.16005 49.9606C8.53938 51.3412 10.2763 51.9352 12.3393 52.2128C13.2323 52.333 14.2341 52.3991 15.3511 52.4356C16.0213 52.4574 16.3565 52.4683 16.5488 52.3258C16.6058 52.2836 16.6343 52.256 16.6783 52.2004C16.8271 52.0128 16.8271 51.5956 16.8271 50.7613C16.8271 47.5972 19.3921 45.0321 22.5562 45.0321H24.8479C25.0833 45.0321 25.3154 45.0463 25.5434 45.0739C26.376 45.1747 26.7923 45.2251 26.9958 45.1013C27.0223 45.0852 27.0322 45.0784 27.0568 45.0596C27.2458 44.9147 27.3348 44.5661 27.5128 43.8688C27.8813 42.4254 28.5882 40.4622 30.2728 38.7775L37.9886 31.0615L38.0908 30.9588C38.6311 30.4154 39.4587 29.583 40.4644 29.0024C41.946 28.1469 43.6181 27.7656 45.2697 27.8582C46.1626 27.9083 46.609 27.9334 46.8242 27.7299C47.0394 27.5265 47.0394 27.1336 47.0394 26.3479V21.9633C47.0394 18.8261 47.0395 16.2978 46.7724 14.3093C46.4951 12.2451 45.902 10.5072 44.5229 9.12681C43.1699 7.77252 41.4565 7.16453 39.3937 6.88002C39.1925 6.85227 39.0186 7.0166 39.0186 7.21971C39.0186 11.0167 35.9405 14.0947 32.1436 14.0947H19.5394C15.7424 14.0947 12.6644 11.0167 12.6644 7.21971Z" fill="#071C2F"/>
<path d="M19.5393 3.20703C17.3244 3.20703 15.5289 5.00256 15.5289 7.21745C15.5289 9.43234 17.3244 11.2279 19.5393 11.2279H32.1435C34.3584 11.2279 36.1539 9.43234 36.1539 7.21745C36.1539 5.00256 34.3584 3.20703 32.1435 3.20703H19.5393Z" fill="#071C2F"/>
<path d="M16.6792 23.832C15.73 23.832 14.9604 24.6015 14.9604 25.5508C14.9604 26.5 15.73 27.2695 16.6792 27.2695H35.0125C35.9618 27.2695 36.7313 26.5 36.7313 25.5508C36.7313 24.6015 35.9618 23.832 35.0125 23.832H16.6792Z" fill="#071C2F"/>
<path d="M16.6792 35.2904C15.73 35.2904 14.9604 36.0599 14.9604 37.0091C14.9604 37.9584 15.73 38.7279 16.6792 38.7279H25.8459C26.7951 38.7279 27.5646 37.9584 27.5646 37.0091C27.5646 36.0599 26.7951 35.2904 25.8459 35.2904H16.6792Z" fill="#071C2F"/>
<path d="M42.1827 31.9771C43.7928 31.0476 45.7765 31.0476 47.3866 31.9771C47.986 32.3232 48.6599 32.9984 49.2858 33.6256C49.913 34.2515 50.5881 34.9253 50.9342 35.5248C51.8638 37.1349 51.8638 39.1186 50.9342 40.7287C50.5881 41.3281 50.0501 41.865 49.4229 42.491L41.7053 50.2083C40.639 51.2747 39.3512 51.773 38.1944 52.0683C37.6169 52.2158 37.0366 52.3209 36.5103 52.4118C35.809 52.5619 33.5227 53.0043 32.9423 53.0412C32.3031 53.0818 31.3762 53.0192 30.6342 52.2772C29.8922 51.5352 29.8295 50.6083 29.8702 49.969C29.9071 49.3886 30.3494 47.1023 30.4996 46.4011C30.5905 45.8747 30.6956 45.2945 30.8431 44.7169C31.1384 43.5601 31.6367 42.2724 32.703 41.206L40.4204 33.4885C41.0463 32.8613 41.5832 32.3232 42.1827 31.9771Z" fill="#071C2F"/>
<path d="M22.5561 48.4674C21.2904 48.4674 20.2644 49.4935 20.2644 50.7591C20.2644 52.0248 21.2904 53.0508 22.5561 53.0508H24.8477C26.1134 53.0508 27.1394 52.0248 27.1394 50.7591C27.1394 49.4935 26.1134 48.4674 24.8477 48.4674H22.5561Z" fill="#071C2F"/>
</svg>
