<svg width="56" height="56" viewBox="0 0 56 56" fill="none" xmlns="http://www.w3.org/2000/svg">
<g clip-path="url(#clip0_4584_2054)">
<path opacity="0.4" d="M28.6549 0.950222C28.2973 0.829093 27.9097 0.829093 27.5521 0.950222C23.5326 2.31169 18.3015 6.03654 15.219 12.7578C12.1201 19.5149 11.273 29.1141 15.6935 42.0907C15.8626 42.5871 16.2491 42.9791 16.743 43.1553C17.237 43.3315 17.7843 43.2725 18.2294 42.9952C19.2388 42.3663 22.8997 40.8203 28.1035 40.8203C33.3073 40.8203 36.9682 42.3663 37.9776 42.9952C38.4227 43.2725 38.97 43.3315 39.4639 43.1553C39.9579 42.9791 40.3443 42.5871 40.5134 42.0907C44.934 29.1141 44.0868 19.5149 40.9879 12.7578C37.9054 6.03654 32.6744 2.31169 28.6549 0.950222Z" fill="#071C2F"/>
<path d="M33.8324 18.6198C33.8324 15.4557 31.2673 12.8906 28.1032 12.8906C24.9391 12.8906 22.374 15.4557 22.374 18.6198C22.374 21.7839 24.9391 24.349 28.1032 24.349C31.2673 24.349 33.8324 21.7839 33.8324 18.6198Z" fill="#071C2F"/>
<path d="M49.9295 42.9338C50.4265 43.2919 51.0766 43.3585 51.6359 43.1085C52.1951 42.8585 52.5791 42.3297 52.6436 41.7205L52.645 41.7135C52.7972 41.2087 52.7302 40.1331 52.6775 39.6574C52.624 38.456 52.4351 36.8092 51.8822 35.0607C51.2489 33.0582 50.1273 30.912 48.211 29.1714C47.4986 28.5242 47.1424 28.2007 46.7478 28.351C46.3533 28.5014 46.2974 29.0302 46.1858 30.0879C45.889 32.8982 45.3211 35.8924 44.4421 39.0753C44.2589 39.7386 44.1673 40.0704 44.3042 40.3163C44.4411 40.5623 44.7815 40.6623 45.4622 40.8621C47.0994 41.3427 48.6559 42.0159 49.9295 42.9338Z" fill="#071C2F"/>
<path d="M6.27684 42.9337C5.77985 43.2919 5.12978 43.3584 4.57051 43.1084C4.01124 42.8584 3.62731 42.3296 3.56275 41.7204L3.56135 41.7134C3.40918 41.2086 3.47622 40.133 3.5289 39.6573C3.5824 38.456 3.77126 36.8091 4.32421 35.0606C4.95745 33.0582 6.07907 30.912 7.99523 29.1714C8.70766 28.5243 9.06388 28.2007 9.45843 28.351C9.85297 28.5014 9.90882 29.0302 10.0205 30.0879C10.3173 32.8982 10.8852 35.8924 11.7642 39.0753C11.9474 39.7386 12.039 40.0703 11.9021 40.3163C11.7651 40.5623 11.4248 40.6622 10.7441 40.862C9.10688 41.3427 7.55044 42.0158 6.27684 42.9337Z" fill="#071C2F"/>
<path d="M21.8306 44.4892C25.621 43.2257 30.5858 43.226 34.376 44.4892C35.1784 44.7566 35.6669 45.568 35.5279 46.4023L35.5274 46.4052C35.527 47.3077 34.6935 49.133 34.2768 49.9328C33.317 51.7425 31.5553 53.9338 28.5045 54.666C28.2408 54.7293 27.9659 54.7293 27.7022 54.666C24.6514 53.9338 22.8897 51.7425 21.93 49.9328C21.2901 48.8983 20.8292 47.1481 20.6788 46.4023C20.5398 45.5681 21.0283 44.7567 21.8306 44.4892Z" fill="#071C2F"/>
</g>
<defs>
<clipPath id="clip0_4584_2054">
<rect width="55" height="55" fill="white" transform="translate(0.603516 0.287109)"/>
</clipPath>
</defs>
</svg>
