<svg width="56" height="56" viewBox="0 0 56 56" fill="none" xmlns="http://www.w3.org/2000/svg">
<path opacity="0.4" d="M13.7908 5.54248C16.7193 5.12213 19.8104 6.03851 22.0678 8.29592C24.5932 10.8213 25.4398 14.3862 24.6151 17.6075L37.9646 30.957C41.1859 30.1322 44.7508 30.9789 47.2762 33.5042C49.5336 35.7617 50.4499 38.8528 50.0296 41.7812C49.9371 42.4254 49.4887 42.9621 48.8712 43.1677C48.2538 43.3733 47.5731 43.2125 47.1129 42.7523L43.8997 39.5392H39.8163V44.1808L42.7504 47.1149C43.2106 47.5751 43.3714 48.2557 43.1658 48.8732C42.9602 49.4907 42.4235 49.9391 41.7793 50.0315C38.8508 50.4519 35.7597 49.5355 33.5023 47.2781C30.9788 44.7546 30.1315 41.1931 30.9532 37.9737L17.5984 24.6188C14.379 25.4405 10.8175 24.5933 8.29396 22.0698C6.03656 19.8124 5.12018 16.7212 5.54053 13.7928C5.633 13.1486 6.08139 12.6119 6.69887 12.4063C7.31635 12.2007 7.99699 12.3615 8.45718 12.8217L11.3913 15.7558H16.0329V11.6723L12.8197 8.45913C12.3595 7.99894 12.1987 7.3183 12.4043 6.70082C12.6099 6.08334 13.1466 5.63495 13.7908 5.54248Z" fill="#071C2F"/>
<path d="M17.9385 29.0097L7.99799 38.9502C6.11721 40.831 6.11721 43.8803 7.99799 45.7611L9.81236 47.5755C11.6931 49.4563 14.7425 49.4563 16.6233 47.5755L26.5638 37.635L17.9385 29.0097Z" fill="#071C2F"/>
<path d="M44.0885 6.83482C44.7648 6.42904 45.6305 6.53561 46.1882 7.09329L48.4798 9.38496C49.0375 9.94264 49.1441 10.8083 48.7383 11.4846L45.3008 17.2138C45.0285 17.6676 44.5623 17.9707 44.037 18.0353C43.5117 18.1 42.9859 17.919 42.6117 17.5448L41.5321 16.4653L34.5263 23.4711L32.0956 21.0404L39.1015 14.0346L38.0283 12.9615C37.6541 12.5872 37.4731 12.0614 37.5378 11.5361C37.6025 11.0108 37.9055 10.5446 38.3594 10.2723L44.0885 6.83482Z" fill="#071C2F"/>
</svg>
