<svg width="95" height="110" viewBox="0 0 95 110" fill="none" xmlns="http://www.w3.org/2000/svg">
<path d="M93.3941 106.986C89.6534 96.006 86.5468 89.0563 80.7652 78.3063C80.2232 77.2986 78.816 77.2013 78.1452 78.1281C70.6634 88.4652 67.3284 95.3654 64.7232 107.165C64.5093 108.133 65.2536 109.048 66.2459 109.048H91.9149C92.984 109.048 93.7389 107.998 93.3941 106.986Z" fill="#292D2E" stroke="#292D2E" stroke-width="0.783333"/>
<path d="M68.5005 49.1171L48.5376 3.84422C47.9858 2.5928 46.2078 2.59974 45.6658 3.85542L1.03313 107.254C0.586696 108.289 1.34503 109.442 2.47151 109.442H12.8612C13.4377 109.442 13.9714 109.117 14.2464 108.611C28.7709 81.8544 41.7947 69.2643 67.9517 51.044C68.5677 50.615 68.8034 49.804 68.5005 49.1171Z" fill="#292D2E" stroke="#292D2E" stroke-width="0.783333"/>
</svg>
