<svg width="258" height="75" viewBox="0 0 258 75" fill="none" xmlns="http://www.w3.org/2000/svg">
<path d="M233.191 73.5664C233.406 73.459 233.729 73.459 233.944 73.3516L233.191 73.5664Z" fill="#9E9B9C"/>
<path d="M257.151 40.9023C256.829 46.0596 254.68 55.2997 251.886 59.5975C249.523 63.358 241.679 70.1269 235.018 72.813H234.91H234.803C231.472 74.1023 227.497 72.2758 225.133 70.7716H225.026C224.596 70.5567 224.274 70.3418 224.059 70.1269C223.629 69.8046 223.307 69.5897 223.307 69.5897C222.662 69.1599 222.125 68.6227 221.373 68.1929L220.943 67.7632C220.728 67.6557 220.513 67.4408 220.406 67.2259L219.546 66.4738L218.686 65.7217L217.827 64.8622L216.538 63.5729C226.53 61.3166 242.217 55.1923 251.027 48.8531C254.68 46.1671 257.151 43.481 257.473 41.2247C257.151 41.0098 257.151 40.9023 257.151 40.9023Z" fill="url(#paint0_linear_4222_1263)"/>
<path d="M234.696 73.1365C234.481 73.244 234.266 73.3514 233.943 73.3514L233.191 73.5663C232.976 73.6738 232.762 73.6738 232.654 73.7812L232.439 73.8886L232.117 73.9961H231.795C231.687 73.9961 231.472 73.9961 231.365 74.1035C226.208 74.6407 212.025 72.5993 203.107 68.409L202.785 68.1941L202.355 67.9793C199.991 66.7974 197.95 65.1857 196.123 63.1443C189.999 55.6233 182.693 37.2505 182.8 26.7211C182.908 24.8945 183.445 23.2829 184.305 21.7787L184.412 21.6712C184.52 21.5638 184.52 21.4563 184.627 21.3489C186.346 18.8777 188.388 16.8363 190.966 15.1172C193.867 29.1923 203.215 50.3586 216.108 63.4666C216.538 63.8964 216.967 64.3262 217.397 64.756C217.827 65.1857 218.579 65.8304 219.224 66.4751L220.083 67.2272C220.298 67.4421 220.513 67.5495 220.621 67.7644L221.05 68.1941C221.695 68.7314 222.232 69.1611 222.984 69.5909C222.984 69.5909 223.199 69.8058 223.736 70.1281C224.059 70.343 224.381 70.5579 224.811 70.7728C224.811 70.7728 224.811 70.7728 224.918 70.7728C227.497 72.3844 231.472 74.3184 234.696 73.1365Z" fill="url(#paint1_linear_4222_1263)"/>
<path d="M182.908 24.7852C182.8 25.3224 182.8 25.8596 182.8 26.2894C182.8 25.967 182.8 25.4298 182.908 24.7852Z" fill="url(#paint2_linear_4222_1263)"/>
<path d="M257.151 40.8987V41.0062C256.829 43.4774 254.357 46.056 250.704 48.6346C244.795 46.3783 239.208 43.4773 234.158 39.7168C220.405 29.8321 211.595 13.2858 199.991 12.4263C196.768 12.3188 193.652 13.0709 190.966 14.8975C188.387 16.6165 186.346 18.658 184.627 21.1292C184.519 21.2366 184.519 21.344 184.412 21.4515L184.304 21.5589C183.445 22.9557 182.908 24.6748 182.8 26.5013V26.3939C182.8 26.3939 182.8 26.2864 182.8 26.179C182.8 25.7492 182.8 25.212 182.908 24.6748C182.908 24.5673 182.908 24.5673 182.908 24.4599C184.627 13.2858 196.123 0.500049 205.578 0.822379C217.075 1.14471 226.852 14.6826 235.662 22.9557C243.291 29.9395 249.415 32.9479 253.39 35.5266C255.862 37.2456 257.258 38.7498 257.151 40.8987Z" fill="url(#paint3_linear_4222_1263)"/>
<path d="M4.12192 13.7213L5.19635 12.432L6.37823 13.7213H6.59312L7.98988 12.2171L6.48567 10.8203H6.27079L5.19635 12.0022L4.01448 10.8203H3.79959L2.40283 12.2171L3.79959 13.7213H4.12192Z" fill="#040404"/>
<path d="M3.15538 24.2479C3.90749 24.2479 4.55215 24.033 5.30425 23.7107C5.41169 23.2809 5.51914 22.8512 5.62658 22.4214C5.94891 24.8926 6.80846 25.8596 8.84988 25.8596H47.422C50.0006 25.8596 52.4718 25.4298 54.8356 24.7851L56.6621 24.2479L57.1993 21.9916L57.0919 21.8842L55.2654 22.3139C52.4718 22.9586 49.5709 22.0991 49.5709 20.38C49.5709 19.0907 50.9676 18.3386 52.3644 18.3386C53.5463 18.3386 54.8356 18.6609 55.8026 19.413L56.2324 18.8758C55.3728 16.9418 54.1909 15.9748 52.7942 15.9748C50.6453 15.9748 48.8188 18.3386 48.8188 20.8097C48.8188 21.7767 49.2485 22.8512 50.0006 23.4958C49.2485 23.6033 48.4964 23.6033 47.422 23.6033H9.27965C7.45311 23.6033 7.02334 22.9586 6.80845 20.9172L6.1638 15.0078H5.62658L4.87448 16.9418L3.04794 18.1237C0.899074 19.413 0.146973 20.4874 0.146973 21.7767C0.146973 23.0661 1.43629 24.2479 3.15538 24.2479ZM2.51072 19.7353L4.98192 18.5534L5.41169 21.5618C4.65959 21.8842 3.90749 21.9916 3.04794 21.9916C1.86606 21.9916 0.899074 21.6693 0.899074 21.1321C0.899074 20.5949 1.54373 20.1651 2.51072 19.7353Z" fill="#040404"/>
<path d="M63.8606 25.8568H80.4069C81.159 25.8568 81.9111 25.5345 82.6632 25.1047C82.7706 24.675 82.878 24.3526 82.9855 23.9228C83.3078 25.1047 84.3822 25.9643 86.2088 25.9643H91.0437C92.0107 25.9643 92.9777 25.5345 93.5149 24.8898C95.0191 25.8568 96.9531 26.394 98.8871 26.394C101.036 26.394 103.077 26.0717 105.119 25.3196C106.086 25.8568 107.375 26.0717 108.45 26.0717C109.739 26.0717 111.136 25.6419 112.21 24.9973C112.64 24.0303 112.747 22.9559 112.747 21.8814V13.3934L113.822 12.5339V12.4264L112.747 11.1371V9.41801H112.532C111.136 10.385 110.706 11.5669 111.565 12.6413L111.888 23.1707C111.028 23.4931 110.061 23.6005 109.202 23.6005C108.557 23.6005 107.912 23.4931 107.16 23.4931C107.483 22.741 107.59 21.9889 107.59 21.1293C107.59 19.0879 106.193 17.5837 104.152 17.4763H104.044C101.681 17.4763 99.5318 19.3028 96.5233 23.6005C95.9861 23.4931 95.4489 23.2782 95.0191 23.0633L96.0936 21.5591L95.5564 21.1293L94.8042 22.2038C94.0521 23.2782 92.6554 24.0303 91.3661 23.708H87.0683C85.1344 23.708 84.4897 23.2782 84.4897 21.8814V19.84H83.7376L83.2004 23.0633C82.4483 23.4931 81.4813 23.6005 80.6217 23.6005H64.5052C62.5713 23.6005 61.9266 23.0633 61.9266 21.5591V9.20312H61.282L60.2075 11.352L60.5299 21.5591C60.315 24.675 61.3894 25.8568 63.8606 25.8568ZM103.077 19.7326C104.796 19.84 106.193 20.9144 106.623 22.5261C104.259 23.4931 101.681 23.9228 99.102 23.9228C98.5648 23.9228 97.9201 23.8154 97.2754 23.708C99.6392 20.9144 101.143 19.7326 103.077 19.7326Z" fill="#040404"/>
<path d="M84.0594 18.0162L85.4562 16.6194L84.0594 15.2227H83.8445L82.3403 16.6194L83.8445 18.0162H84.0594Z" fill="#040404"/>
<path d="M118.012 25.8568L118.764 23.2782V9.20312H117.904L116.938 11.352L117.26 25.8568H118.012Z" fill="#040404"/>
<path d="M127.897 15.649L129.079 14.4671L130.153 15.649H130.368L131.872 14.2522L130.368 12.8555H130.153L129.079 13.9299L127.897 12.8555H127.574L126.285 14.2522L127.789 15.649H127.897Z" fill="#040404"/>
<path d="M128.971 26.1796C131.228 26.1796 132.517 24.4605 132.517 22.0968C132.517 19.8404 131.55 18.5511 127.467 16.832L127.36 16.9395V19.1958C126.393 20.2702 125.641 21.7744 125.533 23.1712C125.426 24.8903 126.608 26.1796 128.327 26.287C128.649 26.1796 128.756 26.1796 128.971 26.1796ZM128.327 19.8404C130.798 20.9149 131.657 21.8819 131.657 22.634C131.657 23.3861 130.798 23.9233 129.079 23.9233C127.36 23.9233 126.5 23.3861 126.5 22.5265C126.715 21.3447 127.36 20.3777 128.327 19.8404Z" fill="#040404"/>
<path d="M132.409 29.0843V29.7289L136.599 31.0182C138.533 28.6545 139.608 25.861 139.715 22.8525C139.608 21.026 139.071 19.4144 138.211 17.9102H137.566L136.814 19.8441C138.319 21.8856 138.963 22.7451 138.963 23.927C138.856 26.3982 136.492 28.0098 132.409 29.0843Z" fill="#040404"/>
<path d="M143.69 25.8568L144.335 23.2782V9.20312H143.69L142.508 11.352L142.938 25.8568H143.69Z" fill="#040404"/>
<path d="M151.535 23.0674C151.427 21.2408 150.89 19.6292 150.03 18.125H149.386L148.634 20.059C150.138 22.1004 150.783 22.9599 150.783 24.1418C150.783 26.1832 148.419 27.9023 144.336 28.9768V29.6214L148.526 30.9107C150.353 28.8693 151.32 26.0758 151.535 23.0674Z" fill="#040404"/>
<path d="M149.385 16.5143L150.782 15.01L149.278 13.6133H149.17L147.773 15.01L149.17 16.5143H149.385Z" fill="#040404"/>
<path d="M160.452 22.8546C160.452 19.8462 159.056 17.375 157.122 17.375C155.402 17.375 153.791 19.7388 153.791 21.9951C153.683 23.3918 154.65 24.7886 156.262 25.0035C156.477 25.0035 156.584 25.0035 156.799 25.0035C157.444 25.0035 158.196 24.896 158.948 24.5737L159.593 22.8546C159.7 23.1769 159.7 23.6067 159.7 23.929C159.7 26.5077 157.014 28.2268 152.287 29.0863V29.731L156.477 31.0203C158.733 29.0863 160.237 26.0779 160.452 22.8546ZM157.014 22.7472C155.617 22.7472 154.65 22.4248 154.65 21.6727C154.65 20.7057 155.402 19.7388 156.584 19.7388C157.766 19.7388 158.948 20.9206 159.378 22.4248C158.518 22.6397 157.766 22.7472 157.014 22.7472Z" fill="#040404"/>
<path d="M6.27079 36.1719L5.19635 37.3537L4.01448 36.1719H3.79959L2.40283 37.5686L3.79959 39.0728H4.12192L5.19635 37.7835L6.37823 39.0728H6.59312L7.98988 37.5686L6.48567 36.1719H6.27079Z" fill="#040404"/>
<path d="M32.8094 53.043H32.5945L31.4127 54.3323L30.2308 53.043H30.1233L28.6191 54.5472L30.1233 55.9439H30.3382L31.4127 54.7621L32.702 55.9439H32.9169L34.2062 54.5472L32.8094 53.043Z" fill="#040404"/>
<path d="M43.4466 51.1096H47.8518C49.2485 51.1096 50.6453 50.7873 51.9346 50.1426C52.3644 49.1756 52.4718 47.9937 52.4718 47.0267C52.4718 45.8449 52.0421 44.5555 51.3974 43.5886H50.7527L50.0006 45.5225C50.7528 46.2746 51.29 47.2416 51.7197 48.3161C50.5379 48.7458 49.2485 48.9607 47.9592 48.9607H34.7437C32.8097 48.9607 32.1651 48.531 32.1651 47.1342V45.0928H31.5204L30.9832 48.3161C30.2311 48.7458 29.2641 48.8533 28.4046 48.8533H9.27965C7.45311 48.8533 7.02334 48.2086 6.80845 46.1672L6.1638 40.2578H5.62658L4.87448 42.1918L3.04794 43.3737C0.899074 44.7704 0.146973 45.7374 0.146973 47.1342C0.146973 48.531 1.32885 49.6054 3.15538 49.6054C3.90749 49.6054 4.55215 49.3905 5.30425 49.0682C5.41169 48.6384 5.51914 48.2086 5.62658 47.7788C5.94891 50.25 6.80846 51.217 8.84988 51.217H28.4046C29.1567 51.217 30.1236 50.8947 30.6609 50.4649C30.7683 50.0351 30.8757 49.7128 30.9832 49.2831C31.3055 50.4649 32.38 51.3245 34.2065 51.3245L43.4466 51.1096ZM3.15538 47.2416C1.97351 47.2416 1.00652 46.9193 1.00652 46.3821C1.00652 45.8449 1.43629 45.4151 2.40328 44.9853L4.87448 43.8034L5.30425 46.9193C4.76703 47.1342 4.01493 47.2416 3.15538 47.2416Z" fill="#040404"/>
<path d="M49.3555 40.3616L50.7522 41.8658H50.9671L52.4713 40.3616L50.9671 38.9648H50.7522L49.3555 40.3616Z" fill="#040404"/>
<path d="M98.4569 34.4531H97.8123C96.4155 35.4201 95.9857 36.602 96.8453 37.6764L97.1676 48.2059C96.3081 48.5282 95.3411 48.6356 94.4815 48.6356C93.5145 48.7431 92.4401 48.2059 92.1178 47.2389L91.688 46.2719C90.8284 44.5528 90.2912 44.0156 89.2168 44.0156C87.82 44.0156 86.3158 45.8421 85.8861 47.991C85.2414 48.3133 84.4893 48.5282 83.7372 48.5282C82.4479 48.6356 81.1586 48.2059 80.1916 47.4538C81.266 46.4868 81.9107 45.7347 81.9107 44.9826C81.9107 43.6932 80.9437 42.9411 79.2246 42.9411C78.2576 42.9411 77.1832 43.2635 76.431 43.6933L75.7864 45.9495L76.0013 46.4868C76.8608 46.4868 77.8278 46.8091 78.2576 47.5612L78.365 47.6686C77.1832 48.3133 75.8938 48.6356 74.6045 48.6356H65.6867C63.9676 48.6356 63.1081 47.8835 62.356 45.3049L60.6369 40.6848H60.0997L59.3476 42.6188L60.8518 46.4868C61.0667 47.1314 61.389 47.6686 61.6039 48.2059C60.7443 48.7431 59.5625 49.0654 58.488 49.0654C56.4466 49.0654 55.9094 48.7431 55.802 47.2389V46.9165H55.1573C54.9424 47.4538 54.835 48.0984 54.835 48.8505C54.835 50.5696 55.802 51.3217 57.9508 51.3217C59.1327 51.3217 60.422 50.9994 61.389 50.2473C61.4964 49.8175 61.6039 49.3877 61.7113 48.958H61.8188C62.6783 50.6771 63.7527 51.2143 65.0421 51.2143H74.2822C76.1087 50.9994 77.7204 50.2473 78.9022 48.958C79.8692 50.3547 81.4809 51.2143 83.2 51.2143C84.167 51.2143 85.134 50.8919 85.8861 50.2473C87.3903 50.9994 89.2168 51.5366 90.9359 51.7515C91.1508 51.2143 91.3657 50.6771 91.4731 50.0324C92.0103 50.7845 92.9773 51.1068 93.9443 51.1068C95.2336 51.1068 96.6304 50.7845 97.7048 50.0324C98.1346 49.0654 98.242 47.991 98.242 46.9165V38.4285L99.3165 37.569L98.242 36.2797L98.4569 34.4531ZM86.8531 48.2059C86.9605 47.3463 87.7126 46.7017 88.6796 46.4868C89.3242 46.4868 89.754 46.8091 90.5061 47.8835L91.0433 48.8505C91.1508 49.0654 91.2582 49.1728 91.3657 49.3877C89.754 49.1728 88.2498 48.7431 86.8531 48.2059Z" fill="#040404"/>
<path d="M103.4 51.1068L104.044 48.6356V34.4531H103.4L102.218 36.7094L102.755 51.1068H103.4Z" fill="#040404"/>
<path d="M114.251 51.539C116.507 51.539 117.797 49.8199 117.797 47.4561C117.797 45.1998 116.83 43.9105 112.747 42.1914L112.639 42.2989V44.5552C111.672 45.6296 110.92 47.0264 110.813 48.5306C110.705 50.0348 111.887 51.539 113.606 51.6464C113.929 51.539 114.036 51.539 114.251 51.539ZM113.606 45.0924C116.078 46.1668 116.937 47.1338 116.937 47.8859C116.937 48.638 115.97 49.1752 114.359 49.1752C112.854 49.1752 111.78 48.638 111.78 47.7785C112.102 46.704 112.747 45.737 113.606 45.0924Z" fill="#040404"/>
<path d="M113.07 38.1055L111.566 39.5022L113.07 40.899H113.285L114.359 39.7171L115.649 40.899H115.864L117.153 39.5022L115.756 38.1055H115.649L114.359 39.2874L113.178 38.1055H113.07Z" fill="#040404"/>
<path d="M123.385 42.7344C121.666 42.7344 120.054 45.0981 120.054 47.3544C119.947 48.7512 121.021 50.148 122.525 50.2554C122.633 50.2554 122.848 50.2554 123.062 50.2554C123.707 50.2554 124.459 50.148 125.211 49.8256L125.856 48.1065C125.963 48.4289 125.963 48.8586 125.963 49.181C125.963 51.7596 123.277 53.4787 118.55 54.3383V54.9829L122.74 56.2722C125.211 54.1234 126.608 51.115 126.823 47.8917C126.715 45.2056 125.319 42.7344 123.385 42.7344ZM123.277 47.9991C121.881 47.9991 120.914 47.6768 120.914 46.9247C120.914 45.9577 121.666 44.9907 122.848 44.9907C124.029 44.9907 125.211 46.1726 125.641 47.6768C124.889 47.9991 124.029 48.1065 123.277 47.9991Z" fill="#040404"/>
<path d="M137.889 38.3228L139.179 36.926L137.782 35.6367H137.675L136.278 36.926L137.675 38.3228H137.889Z" fill="#040404"/>
<path d="M138.963 38.2148L137.781 39.2893L136.492 38.2148H136.384L134.987 39.6116L136.384 41.0084H136.599L137.781 39.8265L138.963 41.0084H139.178L140.574 39.6116L139.07 38.2148H138.963Z" fill="#040404"/>
<path d="M141.005 51.1068C142.294 51.1068 143.691 50.7845 144.765 50.0324C145.195 49.0654 145.302 47.991 145.302 46.9165V38.4285L146.377 37.569L145.302 36.2797V34.4531H144.765C143.369 35.4201 142.939 36.602 143.798 37.6764L144.121 48.2059C143.261 48.5282 142.294 48.6356 141.435 48.6356C139.715 48.6356 139.071 47.991 138.748 45.9495L138.211 42.5114H137.674L137.352 43.2635C136.707 45.1974 135.955 45.6272 134.988 45.6272C134.021 45.5198 133.054 44.8751 132.517 43.9081H131.872L131.12 45.9495C132.517 47.2389 133.269 48.4207 133.269 49.3877C133.269 51.4291 130.905 53.0408 126.822 54.0078V54.6525L131.013 56.0492C132.947 53.6855 134.021 50.8919 134.128 47.8835V47.6686C134.343 47.6686 134.558 47.7761 134.773 47.7761C135.955 47.7761 136.922 47.024 137.352 45.1974L137.567 46.5942C138.104 50.1398 138.856 51.2143 141.005 51.1068Z" fill="#040404"/>
<path d="M150.997 48.6356V34.4531H150.352L149.17 36.7094L149.6 51.1068H150.352L150.997 48.6356Z" fill="#040404"/>
<path d="M152.394 54.4379V55.0826L156.584 56.3719C159.055 54.223 160.452 51.2146 160.667 47.9913C160.667 44.9829 159.27 42.5117 157.336 42.5117C155.617 42.5117 154.005 44.8755 154.005 47.1318C153.898 48.5285 154.972 49.9253 156.476 50.0327C156.584 50.0327 156.799 50.0327 156.906 50.0327C157.551 50.0327 158.303 49.9253 159.055 49.603L159.7 47.8839C159.807 48.2062 159.807 48.636 159.807 48.9583C159.915 51.7518 157.121 53.4709 152.394 54.4379ZM157.229 47.9913C155.832 47.9913 154.865 47.669 154.865 46.9169C154.865 45.9499 155.617 44.9829 156.799 44.9829C157.981 44.9829 159.162 46.1648 159.592 47.669C158.733 47.9913 157.981 48.0988 157.229 47.9913Z" fill="#040404"/>
<path d="M6.59357 61.961L7.34567 61.8536V61.5312H5.41169V61.8536L3.80004 65.5066L2.08095 61.5312H0.254416V61.8536L1.00652 61.961V66.6885L0.146973 66.9034V67.2257H2.40328V66.9034L1.43629 66.4736V62.2833L3.26283 66.3662L3.47771 66.9034H3.80004L4.01493 66.3662L5.73402 62.1759V66.6885L4.98192 66.9034V67.2257H7.45311V66.9034L6.59357 66.6885V61.961Z" fill="#040404"/>
<path d="M9.28006 62.9297L7.99074 63.252V63.6818L8.42052 63.7892V66.6902L7.8833 66.9051V67.2274H9.81728V66.9051L9.28006 66.6902V62.9297Z" fill="#040404"/>
<path d="M9.38693 61.4239C9.38693 61.1016 9.17205 60.8867 8.84972 60.8867C8.52739 60.8867 8.3125 61.1016 8.3125 61.4239C8.41994 61.7463 8.74227 61.8537 8.95716 61.8537C9.17204 61.7463 9.27949 61.5314 9.38693 61.4239Z" fill="#040404"/>
<path d="M14.3294 64.4319C14.3294 63.3575 14.007 63.0352 13.1475 63.0352C12.6103 63.1426 12.1805 63.3575 11.8582 63.7873L11.6433 63.0352L10.5688 63.4649V63.6798L11.1061 63.7873V66.6882L10.5688 66.9031V67.2254H12.6103V66.9031L12.0731 66.7957V64.1096C12.2879 63.8947 12.6103 63.6798 13.04 63.6798C13.5773 63.6798 13.7921 64.0021 13.7921 64.5394V66.6882L13.3624 66.7957V67.118H15.0815V66.7957L14.5442 66.5808L14.3294 64.4319Z" fill="#040404"/>
<path d="M16.6927 62.9297L15.2959 63.252V63.6818L15.8331 63.7892V66.6902L15.2959 66.9051V67.2274H17.3373V66.9051L16.6927 66.6902V62.9297Z" fill="#040404"/>
<path d="M16.8005 61.422C16.6931 61.0996 16.3707 60.9922 16.1558 60.9922C15.941 60.9922 15.8335 61.2071 15.7261 61.422C15.8335 61.7443 16.1558 61.8517 16.3707 61.8517C16.4782 61.7443 16.8005 61.5294 16.8005 61.422Z" fill="#040404"/>
<path d="M19.8085 64.8656L19.3787 64.6508C18.8415 64.4359 18.7341 64.221 18.7341 63.8986C18.7341 63.5763 18.949 63.3614 19.2713 63.3614C19.4862 63.3614 19.7011 63.4689 19.8085 63.5763L20.1308 64.3284H20.3457V63.254C20.0234 63.0391 19.5936 63.0391 19.2713 63.0391C18.5192 62.9317 17.8745 63.5763 17.8745 64.3284C17.8745 64.8656 18.0894 65.188 18.7341 65.4029L19.0564 65.6177C19.5936 65.8326 19.8085 66.155 19.8085 66.4773C19.8085 66.7996 19.4862 67.1219 19.1639 67.1219C18.949 67.1219 18.6266 67.0145 18.5192 66.907L18.0894 65.9401H17.7671L17.8745 67.1219C18.1969 67.3368 18.6266 67.4443 19.0564 67.4443C19.8085 67.5517 20.5606 67.0145 20.7755 66.1549C20.7755 65.5103 20.5606 65.188 19.8085 64.8656Z" fill="#040404"/>
<path d="M23.2469 66.6884C22.9246 66.6884 22.7097 66.6884 22.7097 66.0437V63.68H23.7842V63.2502H22.7097V62.1758H22.3874L21.9576 63.2502L21.4204 63.3576V63.68H21.9576V66.4735C21.9576 67.0107 22.1725 67.4405 22.8172 67.4405C23.2469 67.4405 23.6767 67.3331 23.999 67.0107L23.8916 66.7958C23.6767 66.6884 23.4618 66.6884 23.2469 66.6884Z" fill="#040404"/>
<path d="M26.793 62.9297C26.4706 62.9297 26.2558 63.1446 25.9334 63.5744L25.6111 64.0041L25.5037 63.0371L24.3218 63.4669V63.6818L24.859 63.7892V66.6902L24.3218 66.9051V67.2274H26.4706V66.9051L25.7185 66.7977V64.5413C25.826 64.3264 26.0409 64.1116 26.2558 64.0041L26.9004 64.219C27.1153 64.1116 27.2227 63.8967 27.2227 63.5744C27.2227 63.3595 27.1153 63.1446 26.9004 63.1446C26.9004 62.9297 26.793 62.9297 26.793 62.9297Z" fill="#040404"/>
<path d="M30.1236 63.3594L30.6609 63.5743L29.5864 66.4753L28.6194 63.5743L29.1567 63.4669V63.1445H27.1152V63.4669L27.545 63.5743L29.0492 67.5497L28.6194 68.6241C28.512 68.4093 28.4046 68.3018 28.1897 68.3018C27.9748 68.3018 27.7599 68.5167 27.7599 68.7316C27.7599 69.0539 27.9748 69.2688 28.2971 69.2688C28.7269 69.2688 28.9418 68.9465 29.2641 68.1944L31.1981 63.5743L31.6279 63.4669V63.1445H30.2311L30.1236 63.3594Z" fill="#040404"/>
<path d="M35.4953 62.9297C34.4209 62.9297 33.3465 63.8967 33.4539 65.186C33.3465 66.2604 34.206 67.2274 35.2804 67.3349C35.3879 67.3349 35.3879 67.3349 35.4953 67.3349C36.5698 67.3349 37.6442 66.3679 37.5368 65.0786C37.6442 64.1116 36.8921 63.0371 35.8177 62.9297C35.8177 62.9297 35.7102 62.9297 35.4953 62.9297ZM35.7102 66.9051C34.8507 66.9051 34.5283 65.9381 34.5283 64.9711C34.5283 64.1116 34.8507 63.4669 35.4953 63.4669C36.14 63.4669 36.6772 64.1116 36.6772 65.4009C36.6772 66.153 36.3549 66.9051 35.7102 66.9051Z" fill="#040404"/>
<path d="M40.5444 60.7812C39.47 60.8887 38.6105 61.8557 38.6105 63.0376L38.0732 63.2524V63.5748H38.6105V66.6906L38.0732 66.9055V67.2278H40.2221V66.9055L39.47 66.6906V63.5748H40.5444V63.145H39.47V62.3929C39.47 61.5334 39.7923 61.211 40.3295 61.211C40.437 61.211 40.5444 61.211 40.6519 61.3185L40.8668 62.0706C40.9742 62.0706 40.9742 62.0706 41.0817 62.0706C41.2965 62.0706 41.5114 61.9631 41.5114 61.6408C41.5114 61.6408 41.5114 61.6408 41.5114 61.5333C41.6189 61.211 41.1891 60.7812 40.5444 60.7812Z" fill="#040404"/>
<path d="M44.5203 61.961L45.2724 61.8536V61.5312H42.9087V61.8536L43.6608 61.961V66.6885L42.9087 66.9034V67.2257H45.3799V66.9034L44.5203 66.6885V61.961Z" fill="#040404"/>
<path d="M49.7854 64.4319C49.7854 63.3575 49.4631 63.0352 48.6035 63.0352C48.0663 63.1426 47.6365 63.3575 47.3142 63.7873L47.0993 63.0352L46.0249 63.4649V63.6798L46.5621 63.7873V66.6882L46.0249 66.9031V67.2254H47.9589V66.9031L47.4217 66.7957V64.1096C47.6365 63.8947 47.9589 63.6798 48.3887 63.6798C48.9259 63.6798 49.1408 64.0021 49.1408 64.5394V66.6882L48.711 66.7957V67.118H50.645V66.7957L50.1077 66.5808L49.7854 64.4319Z" fill="#040404"/>
<path d="M54.5129 60.8867L52.7938 61.1016V61.4239L53.5459 61.5314V63.2505C53.331 63.143 53.1161 63.143 52.9013 63.143C51.7194 63.143 50.645 64.2174 50.7524 65.5068C50.645 66.4738 51.2896 67.3333 52.2566 67.4407H52.364C52.7938 67.4407 53.2236 67.2259 53.5459 66.9035L53.7608 67.4407L54.9427 67.2259V66.9035L54.298 66.6886L54.5129 60.8867ZM53.6534 66.4738C53.4385 66.5812 53.2236 66.6886 53.0087 66.6886C52.0417 66.6886 51.7194 65.8291 51.7194 64.8621C51.7194 64.0026 52.2566 63.4654 52.7938 63.4654C53.1161 63.4654 53.4385 63.6802 53.6534 64.0026V66.4738Z" fill="#040404"/>
<path d="M59.5628 63.0352L58.0586 63.1426V63.4649L58.7033 63.5724V66.2585C58.4884 66.4733 58.166 66.5808 57.8437 66.5808C57.3065 66.5808 56.9842 66.2584 56.9842 65.6138V63.0352L55.5874 63.1426V63.4649L56.1246 63.5724V65.7212C56.1246 66.6882 56.5544 67.118 57.1991 67.118C57.7363 67.118 58.2735 66.7957 58.5958 66.4733L58.8107 67.118L60.1 67.0106V66.6882L59.4554 66.5808L59.5628 63.0352Z" fill="#040404"/>
<path d="M62.6791 64.8656L62.3568 64.6508C61.8196 64.4359 61.7121 64.221 61.7121 63.8986C61.7121 63.5763 61.927 63.3614 62.2494 63.3614C62.4643 63.3614 62.6791 63.4689 62.7866 63.5763L63.1089 64.3284H63.3238V63.254C63.0015 63.0391 62.5717 63.0391 62.2494 63.0391C61.4973 62.9317 60.8526 63.5763 60.7452 64.3284C60.7452 64.8656 60.96 65.188 61.6047 65.4029L61.927 65.6177C62.4642 65.8326 62.6791 66.155 62.6791 66.4773C62.6791 66.7996 62.3568 67.1219 62.0345 67.1219C62.0345 67.1219 62.0345 67.1219 61.927 67.1219C61.7121 67.1219 61.3898 67.0145 61.2824 66.907L60.8526 65.9401H60.5303L60.6377 67.1219C60.96 67.3368 61.3898 67.4443 61.8196 67.4443C62.5717 67.5517 63.3238 67.0145 63.5387 66.1549C63.6461 65.5103 63.3238 65.188 62.6791 64.8656Z" fill="#040404"/>
<path d="M66.0092 66.6884C65.6868 66.6884 65.4719 66.6884 65.4719 66.0437V63.68H66.5464V63.2502H65.4719V62.1758H65.1496L64.7198 63.1428L64.1826 63.3576V63.68H64.7198V66.4735C64.7198 67.0107 64.9347 67.4405 65.5794 67.4405C66.0092 67.4405 66.4389 67.3331 66.7613 67.0107V66.7958C66.4389 66.6884 66.224 66.6884 66.0092 66.6884Z" fill="#040404"/>
<path d="M69.5547 62.9297C69.2324 62.9297 69.0175 63.1446 68.6951 63.5744L68.3728 64.0041L68.2654 63.0371L67.0835 63.4669V63.6818L67.6207 63.7892V66.6902L67.0835 66.9051V67.2274H69.2324V66.9051L68.4803 66.7977V64.5413C68.5877 64.3264 68.8026 64.1116 69.0175 64.0041L69.6621 64.219C69.877 64.1116 69.9845 63.8967 69.9845 63.5744C69.9845 63.3595 69.877 63.1446 69.6621 63.1446C69.6621 62.9297 69.5547 62.9297 69.5547 62.9297Z" fill="#040404"/>
<path d="M72.8858 63.3594L73.4231 63.5743L72.3486 66.4753L71.3816 63.5743L72.0263 63.4669V63.1445H69.9849V63.4669L70.3072 63.5743L71.8114 67.5497L71.3816 68.6241C71.2742 68.4093 71.1667 68.3018 70.9519 68.3018C70.737 68.3018 70.5221 68.5167 70.5221 68.7316C70.5221 69.0539 70.737 69.2688 71.0593 69.2688C71.4891 69.2688 71.704 68.9465 72.0263 68.1944L73.9603 63.5743L74.2826 63.4669V63.252H72.8858V63.3594Z" fill="#040404"/>
<path d="M79.547 66.4753V64.219C79.547 63.3595 79.2247 62.9297 78.2577 62.9297C77.2907 62.9297 76.5386 63.5743 76.5386 64.0041C76.5386 64.219 76.6461 64.3265 76.9684 64.3265C77.0758 64.3265 77.1833 64.3265 77.2907 64.3265V63.4669C77.3982 63.3595 77.6131 63.3595 77.7205 63.3595C78.1503 63.3595 78.4726 63.6818 78.4726 64.3265V64.7562L77.613 64.9711C76.7535 65.186 76.3237 65.5083 76.3237 66.153C76.3237 66.6902 76.7535 67.12 77.2907 67.12C77.8279 67.12 78.0428 66.9051 78.4726 66.4753C78.4726 66.7976 78.6875 67.12 79.1173 67.12C79.4396 67.12 79.6545 67.0125 79.9768 66.9051V66.6902H79.547C79.547 66.7976 79.547 66.7976 79.547 66.4753ZM78.6875 66.2604C78.58 66.4753 78.2577 66.5828 78.0428 66.6902C77.7205 66.6902 77.3982 66.4753 77.3982 66.153C77.3982 66.153 77.3982 66.153 77.3982 66.0455C77.3982 65.7232 77.613 65.5083 78.0428 65.4009L78.7949 65.186L78.6875 66.2604Z" fill="#040404"/>
<path d="M84.5969 64.4319C84.5969 63.3575 84.2746 63.0352 83.4151 63.0352C82.8778 63.1426 82.4481 63.3575 82.1257 63.7873L81.9109 63.0352L80.8364 63.4649V63.6798L81.3736 63.7873V66.6882L80.8364 66.9031V67.2254H82.663V66.9031L82.1257 66.7957V64.1096C82.3406 63.8947 82.663 63.6798 83.0927 63.6798C83.63 63.6798 83.8448 64.0021 83.8448 64.5394V66.6882L83.4151 66.7957V67.118H85.349V66.7957L84.8118 66.5808V64.4319H84.5969Z" fill="#040404"/>
<path d="M89.3254 60.8867L87.6063 61.1016V61.4239L88.3584 61.5314V63.2505C88.1435 63.143 87.9286 63.143 87.7138 63.143C86.5319 63.143 85.4575 64.2174 85.5649 65.5068C85.4575 66.4738 86.1021 67.3333 87.0691 67.4407H87.1765C87.6063 67.4407 88.0361 67.2259 88.3584 66.9035L88.5733 67.4407L89.7552 67.2259V66.9035L89.1105 66.6886V60.8867H89.3254ZM88.4659 66.4738C88.251 66.5812 88.0361 66.6886 87.8212 66.6886C86.8542 66.6886 86.5319 65.8291 86.5319 64.8621C86.5319 64.0026 87.0691 63.4654 87.6063 63.4654C87.9286 63.4654 88.251 63.6802 88.4659 64.0026V66.4738Z" fill="#040404"/>
<path d="M98.6727 61.961L99.4248 61.8536V61.5312H97.4908V61.8536L95.8791 65.5066L94.16 61.5312H92.2261V61.8536L93.0856 61.961V66.6885L92.2261 66.9034V67.2257H94.4824V66.9034L93.5154 66.4736V62.2833L95.3419 66.3662L95.4494 66.9034H95.7717L96.094 66.3662L97.8131 62.1759V66.6885L97.061 66.9034V67.2257H99.4248V66.9034L98.6727 66.6885V61.961Z" fill="#040404"/>
<path d="M100.284 61.4216C100.284 61.7439 100.499 61.9588 100.821 61.9588C101.143 61.9588 101.358 61.7439 101.358 61.4216C101.358 61.0992 101.143 60.8844 100.821 60.8844C100.499 60.7769 100.284 61.0992 100.284 61.4216Z" fill="#040404"/>
<path d="M101.251 62.9297L100.069 63.252V63.6818L100.499 63.7892V66.6902L99.9619 66.9051V67.2274H101.896V66.9051L101.251 66.6902V62.9297Z" fill="#040404"/>
<path d="M106.301 64.4319C106.301 63.3575 105.978 63.0352 105.119 63.0352C104.581 63.1426 104.152 63.3575 103.829 63.7873L103.722 63.0352L102.647 63.4649V63.6798L103.185 63.7873V66.6882L102.647 66.9031V67.2254H104.581V66.9031L104.044 66.7957V64.1096C104.259 63.8947 104.581 63.6798 105.011 63.6798C105.548 63.6798 105.763 64.0021 105.763 64.5394V66.6882L105.334 66.7957V67.118H107.16V66.7957L106.623 66.5808L106.301 64.4319Z" fill="#040404"/>
<path d="M109.632 66.6882C108.772 66.6882 108.235 66.0436 108.235 64.9691H111.028C111.028 63.8947 110.491 63.0352 109.524 63.0352C108.45 63.0352 107.375 64.0021 107.483 65.2915V65.3989C107.375 66.3659 108.128 67.3329 109.202 67.4403C109.954 67.5478 110.706 67.0106 111.136 66.2585L110.921 66.151C110.491 66.2584 110.169 66.4733 109.632 66.6882ZM109.309 63.3575C109.847 63.3575 110.062 63.8947 110.062 64.4319H108.128C108.128 64.0021 108.557 63.3575 109.309 63.3575Z" fill="#040404"/>
<path d="M114.144 62.9297C113.821 62.9297 113.606 63.1446 113.284 63.5744L112.962 64.0041L112.854 63.0371L111.672 63.4669V63.6818L112.21 63.7892V66.6902L111.672 66.9051V67.2274H113.821V66.9051L113.069 66.7977V64.5413C113.284 64.3264 113.391 64.219 113.606 64.0041L114.251 64.219C114.466 64.1116 114.573 63.8967 114.573 63.5744C114.573 63.3595 114.466 63.1446 114.251 63.1446C114.251 62.9297 114.144 62.9297 114.144 62.9297Z" fill="#040404"/>
<path d="M118.012 66.4753V64.219C118.012 63.3595 117.69 62.9297 116.723 62.9297C115.756 62.9297 115.003 63.5743 115.003 64.0041C115.003 64.219 115.111 64.3265 115.433 64.3265C115.541 64.3265 115.648 64.3265 115.756 64.3265V63.4669C115.863 63.3595 116.078 63.3595 116.185 63.3595C116.615 63.3595 116.937 63.6818 116.937 64.3265V64.7562L116.078 64.9711C115.218 65.186 114.789 65.5083 114.789 66.153C114.789 66.6902 115.218 67.12 115.756 67.12C116.293 67.12 116.508 66.9051 116.937 66.4753C116.937 66.7976 117.152 67.12 117.582 67.12C117.904 67.12 118.119 67.0125 118.442 66.9051V66.6902H118.012C118.119 66.7976 118.012 66.7976 118.012 66.4753ZM117.152 66.2604C117.045 66.4753 116.723 66.5828 116.508 66.6902C116.185 66.6902 115.863 66.4753 115.863 66.153C115.863 66.153 115.863 66.153 115.863 66.0455C115.863 65.7232 116.078 65.5083 116.508 65.4009L117.26 65.186L117.152 66.2604Z" fill="#040404"/>
<path d="M120.483 60.8867L119.194 61.1016V61.4239L119.731 61.5314V66.6886L119.194 66.9035V67.2259H121.02V66.9035L120.483 66.6886V60.8867Z" fill="#040404"/>
<path d="M126.607 64.4341C127.252 64.3267 127.789 63.682 127.789 63.0374C127.789 62.1778 126.929 61.6406 125.318 61.6406H123.276V61.963L124.028 62.1778V66.7979L123.276 67.0128V67.3351H125.64V67.0128L124.995 66.7979V64.7565H125.64L125.962 65.2937L127.359 67.3351H128.756V67.0128L128.004 66.7979L126.607 64.4341ZM125.748 64.3267H125.103V61.8555C126.285 61.8555 127.037 62.2853 127.037 63.1448C126.822 63.7895 126.285 64.2193 125.748 64.3267Z" fill="#040404"/>
<path d="M131.335 66.6882C130.475 66.6882 129.938 66.0436 129.938 64.9691H132.731C132.731 63.8947 132.194 63.0352 131.227 63.0352C130.045 63.0352 129.078 64.0021 129.186 65.2915V65.3989C129.078 66.3659 129.938 67.3329 131.012 67.4403C131.764 67.4403 132.517 67.0105 132.946 66.3659L132.731 66.2585C132.194 66.2585 131.764 66.4733 131.335 66.6882ZM130.797 63.3575C131.335 63.3575 131.55 63.8947 131.55 64.4319H129.616C129.831 64.0021 130.26 63.3575 130.797 63.3575Z" fill="#040404"/>
<path d="M135.31 64.8637L134.988 64.6488C134.451 64.4339 134.343 64.219 134.343 63.8967C134.343 63.5743 134.558 63.3594 134.881 63.3594C135.096 63.3594 135.31 63.4669 135.418 63.5743L135.74 64.3264H135.955V63.252C135.633 63.0371 135.203 63.0371 134.881 63.0371C134.129 62.9297 133.484 63.4669 133.376 64.219C133.376 64.7562 133.591 65.0785 134.236 65.2934L134.558 65.5083C135.203 65.7232 135.31 66.0455 135.31 66.3679C135.31 66.6902 134.988 67.0125 134.666 67.0125C134.451 67.0125 134.129 66.9051 134.021 66.7976L133.591 65.8306H133.269L133.376 67.0125C133.699 67.2274 134.129 67.3349 134.558 67.3349C135.31 67.4423 136.063 66.9051 136.277 66.0455C136.277 65.5083 136.063 65.186 135.31 64.8637Z" fill="#040404"/>
<path d="M139.071 62.9297C137.996 62.9297 136.922 63.8967 137.029 65.186C136.922 66.2604 137.781 67.2274 138.856 67.3349C138.963 67.3349 138.963 67.3349 139.071 67.3349C140.145 67.3349 141.219 66.3679 141.112 65.0786C141.219 64.1116 140.467 63.0371 139.393 62.9297C139.178 62.9297 139.178 62.9297 139.071 62.9297ZM139.178 66.9051C138.318 66.9051 137.996 65.9381 137.996 64.9711C137.996 64.1116 138.318 63.4669 138.963 63.4669C139.608 63.4669 140.145 64.1116 140.145 65.4009C140.145 66.153 139.715 66.9051 139.178 66.9051Z" fill="#040404"/>
<path d="M145.409 63.0352L143.905 63.1426V63.4649L144.55 63.5724V66.2585C144.335 66.4733 144.013 66.5808 143.69 66.5808C143.153 66.5808 142.831 66.2584 142.831 65.6138V63.0352L141.434 63.1426V63.4649L141.971 63.5724V65.7212C141.971 66.6882 142.401 67.118 143.153 67.118C143.69 67.118 144.228 66.7957 144.55 66.4733L144.765 67.118L145.947 66.9031V66.6882L145.302 66.5808L145.409 63.0352Z" fill="#040404"/>
<path d="M148.956 62.9297C148.634 62.9297 148.419 63.1446 148.097 63.5744L147.774 64.0041L147.667 63.0371L146.485 63.4669V63.6818L147.022 63.7892V66.6902L146.485 66.9051V67.2274H148.634V66.9051L147.882 66.7977V64.5413C147.989 64.3264 148.204 64.1116 148.419 64.0041L149.063 64.219C149.278 64.1116 149.386 63.8967 149.386 63.5744C149.386 63.3595 149.278 63.1446 149.063 63.1446C148.956 62.9297 148.956 62.9297 148.956 62.9297Z" fill="#040404"/>
<path d="M151.964 66.6902C151.105 66.5827 150.46 65.9381 150.568 64.9711C150.568 64.1115 150.997 63.4669 151.749 63.4669C151.964 63.4669 152.072 63.4669 152.179 63.5743L152.287 64.4338C152.394 64.4338 152.501 64.4338 152.609 64.4338C152.824 64.4338 153.039 64.219 153.039 64.0041C153.039 63.5743 152.501 63.1445 151.857 63.1445C150.675 63.1445 149.601 64.219 149.708 65.5083C149.601 66.4753 150.353 67.4423 151.427 67.5497C151.534 67.5497 151.535 67.5497 151.642 67.5497C152.287 67.5497 152.931 67.1199 153.146 66.5827L152.931 66.4753C152.716 66.3678 152.287 66.6902 151.964 66.6902Z" fill="#040404"/>
<path d="M155.939 66.6882C155.08 66.6882 154.542 66.0436 154.542 64.9691H157.336C157.336 63.8947 156.799 63.0352 155.832 63.0352C154.65 63.0352 153.683 64.0021 153.683 65.2915V65.3989C153.575 66.3659 154.435 67.3329 155.509 67.4403H155.617C156.369 67.4403 157.014 67.0106 157.443 66.2585L157.229 66.151C156.799 66.2584 156.476 66.4733 155.939 66.6882ZM155.509 63.3575C156.047 63.3575 156.262 63.8947 156.262 64.4319H154.435C154.435 64.0021 154.865 63.3575 155.509 63.3575Z" fill="#040404"/>
<path d="M160.022 64.8637L159.593 64.6488C159.055 64.4339 158.948 64.219 158.948 63.8967C158.948 63.5743 159.163 63.3594 159.485 63.3594C159.7 63.3594 159.915 63.4669 160.022 63.5743L160.345 64.3264H160.56V63.252C160.237 63.0371 159.808 63.0371 159.485 63.0371C158.733 62.9297 158.088 63.4669 157.981 64.219C157.981 64.7562 158.196 65.0785 158.841 65.2934L159.163 65.5083C159.7 65.7232 159.915 66.0455 159.915 66.3679C159.915 66.6902 159.593 67.0125 159.27 67.0125C159.27 67.0125 159.27 67.0125 159.163 67.0125C158.948 67.0125 158.626 66.9051 158.518 66.7976L158.088 65.8306H157.766L157.874 67.0125C158.196 67.2274 158.626 67.3349 159.055 67.3349C159.808 67.4423 160.56 66.9051 160.775 66.0455C160.989 65.5083 160.775 65.186 160.022 64.8637Z" fill="#040404"/>
<defs>
<linearGradient id="paint0_linear_4222_1263" x1="287.152" y1="57.7985" x2="186.477" y2="56.0855" gradientUnits="userSpaceOnUse">
<stop offset="0.13" stop-color="#DDD9D7"/>
<stop offset="0.16" stop-color="#CECBC9"/>
<stop offset="0.24" stop-color="#A7A7A6"/>
<stop offset="0.25" stop-color="#A2A2A1"/>
<stop offset="0.28" stop-color="#A9A9A9"/>
<stop offset="0.32" stop-color="#BBBBBB"/>
<stop offset="0.35" stop-color="#ACACAC"/>
<stop offset="0.42" stop-color="#808181"/>
<stop offset="0.48" stop-color="#8D8E8E"/>
<stop offset="0.6" stop-color="#B1B1B1"/>
<stop offset="0.7" stop-color="#D6D6D6"/>
<stop offset="0.72" stop-color="#CCCDCD"/>
<stop offset="0.77" stop-color="#B2B4B4"/>
<stop offset="0.83" stop-color="#878B8C"/>
<stop offset="0.9" stop-color="#4D5455"/>
<stop offset="0.92" stop-color="#707475"/>
<stop offset="0.96" stop-color="#9FA1A1"/>
<stop offset="0.98" stop-color="#BDBDBD"/>
<stop offset="1" stop-color="#C8C7C7"/>
</linearGradient>
<linearGradient id="paint1_linear_4222_1263" x1="189.308" y1="11.6317" x2="276.556" y2="206.232" gradientUnits="userSpaceOnUse">
<stop offset="0.03" stop-color="#4E4D4D"/>
<stop offset="0.04" stop-color="#636363"/>
<stop offset="0.06" stop-color="#737474"/>
<stop offset="0.08" stop-color="#7F7F80"/>
<stop offset="0.11" stop-color="#858687"/>
<stop offset="0.18" stop-color="#878889"/>
<stop offset="0.35" stop-color="#4E4D4D"/>
<stop offset="0.39" stop-color="#6B6A6A"/>
<stop offset="0.45" stop-color="#888787"/>
<stop offset="0.51" stop-color="#9F9E9E"/>
<stop offset="0.58" stop-color="#B2B1B1"/>
<stop offset="0.66" stop-color="#BEBDBD"/>
<stop offset="0.77" stop-color="#C6C5C5"/>
<stop offset="1" stop-color="#C8C7C7"/>
</linearGradient>
<linearGradient id="paint2_linear_4222_1263" x1="246" y1="62.6943" x2="167.178" y2="16.3212" gradientUnits="userSpaceOnUse">
<stop stop-color="#DDD9D7"/>
<stop offset="0.04" stop-color="#B3B2B1"/>
<stop offset="0.12" stop-color="#6A6F6F"/>
<stop offset="0.16" stop-color="#4D5455"/>
<stop offset="0.73" stop-color="#7D8386"/>
<stop offset="0.82" stop-color="#868B8F"/>
<stop offset="0.84" stop-color="#8B9093"/>
<stop offset="0.86" stop-color="#9A9DA0"/>
<stop offset="0.88" stop-color="#B3B4B5"/>
<stop offset="0.9" stop-color="#C8C7C7"/>
</linearGradient>
<linearGradient id="paint3_linear_4222_1263" x1="253.035" y1="51.1062" x2="161.339" y2="-9.75579" gradientUnits="userSpaceOnUse">
<stop offset="0.03" stop-color="#676767"/>
<stop offset="0.09" stop-color="#7E7E7D"/>
<stop offset="0.16" stop-color="#929291"/>
<stop offset="0.23" stop-color="#9E9E9D"/>
<stop offset="0.29" stop-color="#A2A2A1"/>
<stop offset="0.35" stop-color="#9A9A99"/>
<stop offset="0.44" stop-color="#838383"/>
<stop offset="0.52" stop-color="#676767"/>
<stop offset="0.53" stop-color="#6D6D6D"/>
<stop offset="0.59" stop-color="#979797"/>
<stop offset="0.64" stop-color="#B1B1B1"/>
<stop offset="0.67" stop-color="#BBBBBB"/>
<stop offset="0.71" stop-color="#B9B9B9"/>
<stop offset="0.73" stop-color="#B2B3B4"/>
<stop offset="0.74" stop-color="#A6A8AA"/>
<stop offset="0.75" stop-color="#95999C"/>
<stop offset="0.76" stop-color="#868B8F"/>
<stop offset="0.79" stop-color="#8B9093"/>
<stop offset="0.83" stop-color="#9A9DA0"/>
<stop offset="0.87" stop-color="#B3B4B5"/>
<stop offset="0.9" stop-color="#C8C7C7"/>
<stop offset="0.92" stop-color="#C3C2C3"/>
<stop offset="0.95" stop-color="#B4B4B6"/>
<stop offset="0.98" stop-color="#9B9EA0"/>
<stop offset="1" stop-color="#868B8F"/>
</linearGradient>
</defs>
</svg>
