<svg width="258" height="95" viewBox="0 0 258 95" fill="none" xmlns="http://www.w3.org/2000/svg">
<path d="M46.8851 58.8427C47.3998 58.6137 47.9144 58.4992 48.3147 58.442C49.4012 58.3274 49.973 58.8427 50.2589 59.3008C49.8587 59.0717 49.2868 58.671 48.3147 58.7855C47.171 58.9 45.6843 59.6443 44.4834 60.1023C45.1696 59.6443 46.0845 59.1863 46.8851 58.8427Z" fill="white"/>
<path d="M37.5642 58.8427C38.422 59.1863 39.2797 59.6443 40.0231 60.1023C38.8794 59.6443 37.3355 58.9 36.1918 58.7855C35.2197 58.671 34.5907 59.0717 34.2476 59.3008C34.5335 58.8427 35.1053 58.3274 36.1918 58.442C36.5349 58.4992 36.9924 58.6137 37.5642 58.8427Z" fill="white"/>
<path d="M126.141 45.6711H119.051L111.788 34.8501C111.674 34.6211 111.445 34.163 111.102 33.476H110.988V45.7283H105.384V22.1397C105.384 21.2237 106.642 20.7656 106.642 20.7656H110.988V32.5599H111.102C111.217 32.2164 111.445 31.7584 111.788 31.1858L118.65 20.7656H125.341L116.649 32.6744L126.141 45.6711Z" fill="#106F77"/>
<path d="M142.953 25.2913H134.147V31.4174H142.21V35.9977H134.147V45.6736H128.543C128.543 45.6736 128.486 21.9133 128.543 21.627C128.6 20.9399 129.286 20.7109 129.286 20.7109H142.953V25.2913Z" fill="#106F77"/>
<path d="M167.429 34.8513C167.429 42.3516 163.941 46.0731 156.964 46.0731C150.217 46.0731 146.786 42.4088 146.786 35.0803V20.6523H152.447V35.1376C152.447 39.2026 154.048 41.2065 157.193 41.2065C160.281 41.2065 161.825 39.2599 161.825 35.3666V20.6523H167.429V34.8513Z" fill="#106F77"/>
<path d="M115.563 64.6794C115.563 65.023 115.505 65.3092 115.448 65.5382C115.277 66.2253 114.991 66.7978 114.648 67.3704C114.305 67.9429 113.847 68.4009 113.332 68.7445C112.818 69.1452 112.246 69.4315 111.617 69.6033C110.988 69.8323 110.359 69.8896 109.673 69.8896C108.701 69.8896 107.843 69.775 107.157 69.4315C106.47 69.1453 105.899 68.7445 105.498 68.2864C105.041 67.8284 104.755 67.3131 104.583 66.7406C104.412 66.168 104.297 65.5382 104.297 64.9657C104.297 64.1069 104.469 63.3053 104.755 62.6183C105.041 61.874 105.384 61.3015 105.784 60.9007L106.356 61.0724C106.013 61.645 105.841 62.2175 105.727 62.7328C105.613 63.2481 105.555 63.7634 105.555 64.1069C105.555 64.6794 105.67 65.1947 105.899 65.6528C106.127 66.1108 106.413 66.5116 106.756 66.7978C107.099 67.1414 107.557 67.3704 108.071 67.5421C108.586 67.7139 109.101 67.7711 109.673 67.7711C110.359 67.7711 110.988 67.6567 111.445 67.4276C111.903 67.1986 112.303 66.9123 112.646 66.5116C112.932 66.1108 113.161 65.6528 113.332 65.1375C113.447 64.6222 113.504 64.0497 113.504 63.4199V50.4805H115.62V61.5305C115.62 61.8167 115.62 62.1603 115.677 62.4465C115.734 62.7328 115.848 63.0191 115.963 63.2481C116.134 63.4771 116.306 63.6489 116.535 63.8206C116.763 63.9924 117.049 64.0496 117.45 64.0496H118.536C118.708 64.0496 118.879 64.1069 118.936 64.1642C118.994 64.2214 119.051 64.3359 119.051 64.5077V65.0802C119.051 65.4237 118.879 65.5955 118.536 65.5955H117.964C117.278 65.5955 116.763 65.3665 116.363 64.9657C115.963 64.5649 115.734 63.9924 115.62 63.3626C115.62 63.9924 115.62 64.3932 115.563 64.6794Z" fill="#005773"/>
<path d="M130.03 61.9899C130.03 61.3601 129.973 60.7876 129.802 60.3295C129.63 59.8715 129.458 59.528 129.173 59.1844C128.887 58.8982 128.601 58.6692 128.2 58.5547C127.857 58.4402 127.457 58.3256 127 58.3256C126.485 58.3256 126.027 58.4402 125.513 58.6692C124.998 58.8982 124.541 59.299 124.083 59.757C123.626 60.2723 123.225 60.8448 122.882 61.5891C122.539 62.3334 122.253 63.1922 122.025 64.1655H130.03V61.9899ZM134.09 64.2228C134.433 64.2228 134.605 64.3946 134.605 64.6808V65.2534C134.605 65.5969 134.433 65.7687 134.09 65.7687H118.193C118.022 65.7687 117.907 65.7114 117.85 65.6542C117.793 65.5396 117.793 65.4251 117.793 65.3106V64.6808C117.793 64.5663 117.793 64.4518 117.85 64.3946C117.907 64.3373 118.022 64.2801 118.193 64.2801H120.08V58.5547H122.139V61.6464C122.368 60.7876 122.711 59.986 123.168 59.3562C123.569 58.7264 124.026 58.1539 124.541 57.7531C125.055 57.3523 125.57 57.0088 126.142 56.8371C126.714 56.608 127.228 56.5508 127.8 56.5508C128.486 56.5508 129.058 56.6653 129.63 56.9515C130.202 57.2378 130.659 57.5813 131.002 58.0394C131.403 58.4974 131.689 59.07 131.86 59.6997C132.089 60.3295 132.146 61.0738 132.146 61.8181V64.2801H134.09V64.2228Z" fill="#005773"/>
<path d="M138.951 68.2285C138.951 67.9422 139.066 67.6559 139.294 67.4842C139.523 67.2551 139.809 67.1979 140.095 67.1979C140.381 67.1979 140.667 67.3124 140.896 67.4842C141.124 67.7132 141.239 67.9422 141.239 68.2285C141.239 68.572 141.124 68.801 140.896 69.03C140.667 69.259 140.438 69.3163 140.095 69.3163C139.809 69.3163 139.523 69.2018 139.294 69.03C139.066 68.801 138.951 68.572 138.951 68.2285ZM135.863 68.2285C135.863 67.9422 135.978 67.6559 136.207 67.4842C136.435 67.2551 136.664 67.1979 137.007 67.1979C137.35 67.1979 137.579 67.3124 137.808 67.4842C138.036 67.7132 138.151 67.9422 138.151 68.2285C138.151 68.572 138.036 68.801 137.808 69.03C137.579 69.259 137.35 69.3163 137.007 69.3163C136.664 69.3163 136.435 69.2018 136.207 69.03C135.978 68.801 135.863 68.572 135.863 68.2285ZM134.034 65.7665C133.862 65.7665 133.748 65.7093 133.69 65.652C133.633 65.5375 133.633 65.423 133.633 65.3085V64.6787C133.633 64.5642 133.633 64.4497 133.69 64.3925C133.748 64.3352 133.862 64.278 134.034 64.278H136.607C137.007 64.278 137.236 64.1634 137.407 63.9917C137.522 63.8199 137.579 63.4764 137.579 62.9611V57.293H139.695V61.7588C139.695 62.3886 139.809 62.9611 139.981 63.3619C140.152 63.8199 140.553 64.0489 141.067 64.1634C141.182 64.1634 141.239 64.1634 141.353 64.1634C141.467 64.1634 141.525 64.1634 141.639 64.1634H142.554C142.725 64.1634 142.897 64.2207 142.954 64.278C143.011 64.3352 143.069 64.4497 143.069 64.6215V65.194C143.069 65.5375 142.897 65.7093 142.554 65.7093H142.382H141.868C141.753 65.7093 141.639 65.7093 141.582 65.652C141.067 65.5375 140.61 65.3085 140.267 64.9077C139.923 64.507 139.695 64.0489 139.638 63.4764C139.58 63.8199 139.523 64.1062 139.409 64.3925C139.294 64.6787 139.123 64.9077 138.894 65.0795C138.665 65.2513 138.437 65.423 138.094 65.5375C137.751 65.652 137.35 65.7093 136.893 65.7093H134.034V65.7665Z" fill="#005773"/>
<path d="M147.642 53.9732C147.642 53.6869 147.757 53.4007 147.928 53.1716C148.157 52.9426 148.386 52.8281 148.729 52.8281C149.015 52.8281 149.301 52.9426 149.472 53.1716C149.701 53.4007 149.758 53.6297 149.758 53.9732C149.758 54.3167 149.644 54.5457 149.472 54.7748C149.244 55.0038 149.015 55.1183 148.729 55.1183C148.386 55.1183 148.157 55.0038 147.928 54.7748C147.757 54.5457 147.642 54.2595 147.642 53.9732ZM149.93 64.2217C149.987 63.8209 150.044 63.4201 150.044 63.0193C150.044 62.6185 150.101 62.2178 150.101 61.8742C150.101 61.359 150.101 60.8437 150.044 60.3284C149.987 59.8131 149.93 59.2978 149.873 58.8398H148.786C148.557 58.8398 148.271 58.897 147.985 59.0115C147.7 59.1261 147.414 59.2978 147.185 59.5268C146.956 59.7558 146.727 60.0994 146.556 60.5002C146.384 60.9009 146.27 61.4162 146.27 61.9888C146.27 62.3895 146.327 62.7903 146.384 63.1911C146.442 63.5919 146.613 63.9354 146.785 64.3362H149.93V64.2217ZM142.153 65.7675C141.981 65.7675 141.867 65.7103 141.81 65.653C141.752 65.5385 141.752 65.424 141.752 65.3095V64.6797C141.752 64.5652 141.752 64.4507 141.81 64.3934C141.867 64.3362 141.981 64.2789 142.153 64.2789H144.383C144.211 63.6491 144.154 63.0193 144.154 62.3323C144.154 61.5307 144.269 60.8437 144.554 60.2139C144.84 59.5841 145.183 59.0688 145.641 58.668C146.098 58.2672 146.613 57.9237 147.242 57.6947C147.814 57.4657 148.443 57.3512 149.129 57.3512H151.874C151.988 58.1527 152.046 58.9543 152.16 59.8131C152.217 60.6719 152.274 61.5307 152.274 62.3895C152.274 62.9048 152.274 63.4773 152.217 64.0499C152.16 64.6224 152.16 65.195 152.046 65.8248H142.153V65.7675Z" fill="#005773"/>
<path d="M163.483 57.4669V56.4363H164.741V55.4058C164.741 54.6042 164.912 54.0889 165.313 53.6881C165.713 53.3446 166.227 53.1729 166.857 53.1729H167.771V54.2034H167.142C166.971 54.2034 166.799 54.2034 166.628 54.2607C166.456 54.2607 166.342 54.3179 166.17 54.4324C166.056 54.4897 165.942 54.6615 165.884 54.776C165.827 54.9477 165.77 55.1195 165.77 55.4058V56.4363H167.886V57.4669H163.483ZM170.116 64.2229C170.516 64.2229 170.745 64.1084 170.859 63.9366C170.974 63.7648 171.031 63.4213 171.031 62.906V50.7109H173.147V61.7609C173.147 62.1045 173.204 62.448 173.261 62.7343C173.318 63.0205 173.433 63.3068 173.547 63.5358C173.719 63.7648 173.89 63.9366 174.119 64.0511C174.348 64.1656 174.634 64.2229 175.034 64.2229H175.892C176.063 64.2229 176.177 64.2801 176.235 64.3374C176.292 64.3946 176.349 64.5091 176.349 64.6809V65.2534C176.349 65.597 176.177 65.7687 175.892 65.7687H175.548C174.862 65.7687 174.348 65.5397 173.947 65.1389C173.547 64.7382 173.261 64.1656 173.147 63.5358C173.09 64.0511 172.918 64.5091 172.689 64.9099C172.461 65.2534 172.06 65.5397 171.488 65.6542C171.145 65.7687 170.745 65.7687 170.23 65.7687H162.282C161.31 65.7687 160.509 65.6542 159.88 65.4824C159.251 65.2534 158.794 64.9672 158.451 64.6236C158.107 64.2801 157.879 63.8793 157.764 63.4786C157.65 63.0778 157.593 62.6198 157.593 62.219C157.593 61.5892 157.707 60.9594 157.993 60.3296C158.279 59.6998 158.622 59.2418 158.965 58.841L159.537 59.0128C159.308 59.3563 159.137 59.6998 159.022 60.1006C158.908 60.5014 158.851 60.9021 158.851 61.3602C158.851 61.6464 158.908 61.9327 158.965 62.2762C159.022 62.6198 159.194 62.906 159.48 63.1923C159.766 63.4786 160.109 63.7648 160.624 63.9366C161.081 64.1084 161.767 64.2229 162.568 64.2229H170.116Z" fill="#005773"/>
<path d="M175.549 65.7661C175.377 65.7661 175.263 65.7089 175.206 65.6516C175.148 65.5371 175.148 65.4226 175.148 65.3081V64.6783C175.148 64.5638 175.148 64.4493 175.206 64.3921C175.263 64.3348 175.377 64.2776 175.549 64.2776H177.15C177.55 64.2776 177.779 64.1631 177.95 63.9913C178.065 63.8195 178.122 63.476 178.122 62.9607V50.7656H180.238V61.8156C180.238 62.1592 180.238 62.4454 180.295 62.7317C180.352 63.018 180.467 63.3042 180.581 63.5332C180.752 63.7623 180.924 63.934 181.153 64.1058C181.381 64.2203 181.667 64.3348 182.068 64.3348H182.983C183.154 64.3348 183.326 64.3921 183.383 64.4493C183.44 64.5066 183.497 64.6211 183.497 64.7928V65.3654C183.497 65.7089 183.326 65.8807 182.983 65.8807H182.582C181.896 65.8807 181.381 65.6516 180.981 65.2509C180.581 64.8501 180.295 64.2776 180.181 63.6478C180.123 63.9913 180.066 64.2776 179.952 64.5638C179.838 64.8501 179.666 65.0791 179.437 65.2509C179.208 65.4226 178.98 65.5944 178.637 65.7089C178.294 65.8234 177.893 65.8807 177.436 65.8807H175.549V65.7661Z" fill="#005773"/>
<path d="M189.959 64.2181C190.13 63.8746 190.244 63.4738 190.359 63.0731C190.416 62.6723 190.473 62.2715 190.473 61.8707C190.473 61.2982 190.359 60.7829 190.187 60.3821C190.016 59.9813 189.787 59.6951 189.501 59.4088C189.215 59.1798 188.986 59.008 188.701 58.8935C188.415 58.779 188.129 58.7217 187.9 58.7217H186.813C186.756 59.237 186.699 59.6951 186.642 60.2104C186.585 60.7256 186.585 61.2409 186.585 61.7562C186.585 62.5005 186.642 63.3021 186.756 64.1036H189.959V64.2181ZM182.639 65.764C182.467 65.764 182.353 65.7067 182.296 65.6495C182.239 65.535 182.239 65.4205 182.239 65.306V64.6762C182.239 64.5616 182.239 64.4471 182.296 64.3899C182.353 64.3326 182.467 64.2754 182.639 64.2754H184.526C184.526 63.9319 184.526 63.6456 184.469 63.3021C184.469 63.0158 184.469 62.6723 184.469 62.386C184.469 61.4699 184.526 60.6111 184.583 59.8096C184.64 58.9508 184.755 58.1492 184.869 57.3477H187.614C188.3 57.3477 188.929 57.4622 189.501 57.6912C190.073 57.9202 190.645 58.2637 191.102 58.6645C191.56 59.1225 191.903 59.6378 192.189 60.2676C192.475 60.8974 192.589 61.5844 192.589 62.386C192.589 62.7295 192.589 63.0158 192.532 63.3593C192.475 63.7028 192.417 63.9891 192.36 64.3326H194.419C194.59 64.3326 194.762 64.3899 194.819 64.4471C194.876 64.5044 194.934 64.6189 194.934 64.7907V65.3632C194.934 65.7067 194.762 65.8785 194.419 65.8785H182.639V65.764Z" fill="#005773"/>
<path d="M194.019 65.7661C193.847 65.7661 193.733 65.7089 193.676 65.6517C193.619 65.5371 193.619 65.4226 193.619 65.3081V64.6783C193.619 64.5638 193.619 64.4493 193.676 64.3921C193.733 64.3348 193.847 64.2776 194.019 64.2776H196.592V50.7656H198.765V65.8234H194.019V65.7661Z" fill="#005773"/>
<path d="M203.969 50.7109H201.853V65.7687H203.969V50.7109Z" fill="#005773"/>
<path d="M214.605 53.9707C214.605 53.6844 214.72 53.3981 214.948 53.2263C215.177 52.9973 215.406 52.8828 215.749 52.8828C216.092 52.8828 216.321 52.9973 216.55 53.2263C216.778 53.4554 216.836 53.6844 216.836 53.9707C216.836 54.3142 216.721 54.5432 216.55 54.7722C216.321 55.0012 216.092 55.1157 215.749 55.1157C215.463 55.1157 215.177 55.0012 214.948 54.7722C214.72 54.5432 214.605 54.2569 214.605 53.9707ZM215.349 64.2191C215.406 63.8183 215.463 63.4175 215.463 63.0168C215.463 62.616 215.52 62.2152 215.52 61.8717C215.52 61.3564 215.52 60.8411 215.463 60.3258C215.406 59.8105 215.349 59.2953 215.292 58.8372H214.205C213.976 58.8372 213.69 58.8945 213.404 59.009C213.119 59.1235 212.833 59.2953 212.547 59.5243C212.318 59.7533 212.089 60.0968 211.918 60.4976C211.746 60.8984 211.632 61.4137 211.632 61.9862C211.632 62.387 211.689 62.7877 211.746 63.1885C211.803 63.5893 211.975 63.9328 212.146 64.3336H215.349V64.2191ZM211.517 53.9707C211.517 53.6844 211.632 53.3981 211.861 53.2263C212.089 52.9973 212.318 52.8828 212.661 52.8828C212.947 52.8828 213.233 52.9973 213.462 53.2263C213.69 53.4554 213.805 53.6844 213.805 53.9707C213.805 54.3142 213.69 54.5432 213.462 54.7722C213.233 55.0012 212.947 55.1157 212.661 55.1157C212.375 55.1157 212.089 55.0012 211.861 54.7722C211.632 54.5432 211.517 54.2569 211.517 53.9707ZM217.236 57.2914C217.35 58.0929 217.465 58.8945 217.522 59.7533C217.579 60.6121 217.636 61.4709 217.636 62.387C217.636 62.7305 217.636 63.0168 217.636 63.303C217.636 63.5893 217.579 63.9328 217.579 64.2764H219.523C219.695 64.2764 219.809 64.3336 219.923 64.3909C219.981 64.4481 220.038 64.5626 220.038 64.7344V65.3069C220.038 65.6504 219.866 65.8222 219.58 65.8222H210.431C210.202 65.3069 210.031 64.7344 209.859 64.1046C209.745 63.5321 209.63 62.9023 209.63 62.3297C209.63 61.5854 209.745 60.8984 210.031 60.2686C210.317 59.6388 210.66 59.1235 211.06 58.6655C211.517 58.2074 212.032 57.8639 212.604 57.6349C213.176 57.4059 213.805 57.2914 214.434 57.2914H217.236Z" fill="#005773"/>
<path d="M219.122 65.7712C218.951 65.7712 218.837 65.714 218.779 65.6567C218.722 65.5422 218.722 65.4277 218.722 65.3132V64.6834C218.722 64.5689 218.722 64.4544 218.779 64.3971C218.837 64.3399 218.951 64.2826 219.122 64.2826H222.439C221.867 63.7101 221.41 63.1376 221.01 62.5078C220.666 61.878 220.438 61.1909 220.438 60.4466C220.438 59.7596 220.552 59.187 220.838 58.6717C221.124 58.1565 221.467 57.7557 221.867 57.4694C222.268 57.1259 222.782 56.8969 223.297 56.7251C223.812 56.5533 224.383 56.4961 224.955 56.4961C225.298 56.4961 225.699 56.5533 226.156 56.6106C226.614 56.6678 227.014 56.7824 227.3 56.9541V58.5C227.071 58.3855 226.728 58.271 226.385 58.2137C226.042 58.1565 225.756 58.0992 225.584 58.0992C225.184 58.0992 224.784 58.1565 224.441 58.2137C224.097 58.3282 223.754 58.4427 223.468 58.6717C223.182 58.9008 222.954 59.187 222.839 59.5305C222.668 59.8741 222.611 60.2749 222.611 60.7901C222.611 61.1337 222.668 61.4772 222.782 61.878C222.897 62.2215 223.068 62.565 223.24 62.8513C223.411 63.1376 223.64 63.4238 223.869 63.6528C224.097 63.8819 224.326 64.1109 224.555 64.2826H229.187C229.358 64.2826 229.53 64.3399 229.587 64.3971C229.644 64.4544 229.701 64.5689 229.701 64.7407V65.3132C229.701 65.6567 229.53 65.8285 229.187 65.8285H219.122V65.7712Z" fill="#005773"/>
<path d="M236.221 64.2181C236.392 63.8746 236.507 63.4738 236.621 63.0731C236.678 62.6723 236.735 62.2715 236.735 61.8707C236.735 61.2982 236.621 60.7829 236.45 60.3821C236.278 59.9813 236.049 59.6951 235.763 59.4088C235.477 59.1798 235.249 59.008 234.963 58.8935C234.677 58.779 234.391 58.7217 234.162 58.7217H233.076C233.019 59.237 232.961 59.6951 232.904 60.2104C232.847 60.7256 232.847 61.2409 232.847 61.7562C232.847 62.5005 232.904 63.3021 233.019 64.1036H236.221V64.2181ZM228.844 65.764C228.673 65.764 228.558 65.7067 228.501 65.6495C228.444 65.535 228.444 65.4205 228.444 65.306V64.6762C228.444 64.5616 228.444 64.4471 228.501 64.3899C228.558 64.3326 228.673 64.2754 228.844 64.2754H230.788C230.731 63.6456 230.731 63.0158 230.731 62.386C230.731 61.4699 230.788 60.6111 230.846 59.8096C230.903 58.9508 231.017 58.1492 231.131 57.3477H234.048C234.677 57.3477 235.306 57.4622 235.878 57.6912C236.45 57.9202 236.964 58.2637 237.422 58.7217C237.879 59.1798 238.222 59.6951 238.451 60.3249C238.737 60.9546 238.851 61.6417 238.851 62.386C238.851 62.9585 238.794 63.5311 238.623 64.1609C238.508 64.7334 238.279 65.306 238.051 65.8785H228.844V65.764Z" fill="#005773"/>
<path d="M241.539 65.7687V50.7109H243.654V64.2229H245.313C245.484 64.2229 245.599 64.2801 245.713 64.3374C245.77 64.3946 245.827 64.5091 245.827 64.6809V65.2534C245.827 65.597 245.656 65.7687 245.37 65.7687H241.539Z" fill="#005773"/>
<path d="M248.801 68.2904C248.801 67.9469 248.915 67.7179 249.144 67.4888C249.373 67.2598 249.601 67.1453 249.945 67.1453C250.23 67.1453 250.516 67.2598 250.745 67.4888C250.974 67.7179 251.088 67.9469 251.088 68.2904C251.088 68.5767 250.974 68.8629 250.745 69.092C250.516 69.321 250.288 69.3782 249.945 69.3782C249.601 69.3782 249.373 69.2637 249.144 69.092C248.915 68.8057 248.801 68.5767 248.801 68.2904ZM245.027 65.7712C244.855 65.7712 244.741 65.714 244.684 65.6567C244.626 65.5422 244.626 65.4277 244.626 65.3132V64.6834C244.626 64.5689 244.626 64.4544 244.684 64.3971C244.741 64.3399 244.855 64.2826 245.027 64.2826H253.032C252.861 63.9391 252.747 63.5956 252.632 63.1948C252.518 62.794 252.461 62.3933 252.403 61.9925C252.289 61.4772 252.232 60.9619 252.118 60.4466C252.003 59.9313 251.832 59.4733 251.603 59.0725C251.374 58.6717 251.088 58.3855 250.688 58.0992C250.288 57.8702 249.773 57.7557 249.087 57.7557C248.458 57.7557 247.714 57.9274 246.914 58.2137C246.857 58.042 246.799 57.8702 246.742 57.6984C246.685 57.5267 246.628 57.3549 246.571 57.1831C246.742 57.1259 246.971 57.0114 247.2 56.9541C247.428 56.8969 247.657 56.7824 247.943 56.7251C248.229 56.6679 248.458 56.6106 248.744 56.5534C249.03 56.4961 249.316 56.4961 249.544 56.4961C250.23 56.4961 250.859 56.5533 251.374 56.7251C251.889 56.8969 252.289 57.1259 252.689 57.4122C253.032 57.6984 253.318 58.0419 253.547 58.3855C253.776 58.7862 253.947 59.187 254.119 59.5878C254.291 60.0458 254.405 60.5039 254.462 60.9619C254.519 61.4199 254.634 61.9352 254.691 62.3932C254.748 63.023 254.862 63.5956 254.977 64.1681C255.091 64.7407 255.263 65.2559 255.491 65.7712H245.027Z" fill="#005773"/>
<path d="M104.812 72.9844H105.555V76.8777L109.101 72.9844H110.073L107.442 75.8471L110.416 80.5992H109.615L106.985 76.4196L105.555 77.9655V80.5992H104.812V72.9844Z" fill="#005773"/>
<path d="M113.962 72.9844H113.218V80.5992H113.962V72.9844Z" fill="#005773"/>
<path d="M117.678 72.9844H118.821L122.538 79.225V72.9844H123.282V80.5992H122.538L118.421 73.6714V80.5992H117.678V72.9844Z" fill="#005773"/>
<path d="M130.145 79.2221C129.859 79.5657 129.516 79.8519 129.173 80.0809C128.829 80.2527 128.429 80.3672 127.972 80.3672C127.114 80.3672 126.428 80.081 125.856 79.4512C125.227 78.7069 124.941 77.7335 124.941 76.474C124.941 75.2144 125.227 74.1838 125.856 73.554C126.485 72.867 127.171 72.5234 128.029 72.5234C128.486 72.5234 128.944 72.6379 129.401 72.8097C129.802 73.0387 130.145 73.325 130.431 73.6685C130.602 73.9548 130.774 74.2983 130.888 74.7563L130.087 74.9281C129.973 74.5846 129.859 74.2983 129.744 74.1265C129.573 73.783 129.287 73.554 129.001 73.3822C128.715 73.2105 128.429 73.096 128.029 73.096C127.4 73.096 126.828 73.3822 126.371 73.8975C125.913 74.4701 125.684 75.2716 125.684 76.3022C125.684 76.932 125.799 77.5045 125.97 78.0198C126.142 78.5351 126.428 78.9359 126.828 79.2221C127.171 79.4512 127.571 79.6229 127.972 79.6229C128.315 79.6229 128.601 79.5657 128.944 79.3939C129.23 79.2221 129.458 79.0504 129.63 78.8214C129.802 78.5924 129.916 78.3633 129.973 78.1343C130.03 77.9053 130.087 77.5618 130.087 77.2183H128.2V76.474H130.831V80.1382H130.087V79.2221H130.145Z" fill="#005773"/>
<path d="M138.665 72.582H143.068V73.3263H139.408V75.7882H142.153V76.5325H139.408V80.1968H138.665V72.582Z" fill="#005773"/>
<path d="M146.956 73.0973L145.641 77.1051H148.215L146.956 73.0973ZM146.385 72.582H147.585L150.044 80.1968H149.301L148.558 77.8494H145.47L144.726 80.1968H143.983L146.385 72.582Z" fill="#005773"/>
<path d="M153.532 72.582H152.789V80.1968H153.532V72.582Z" fill="#005773"/>
<path d="M157.536 78.0783C157.593 78.3646 157.708 78.5936 157.822 78.7653C157.993 79.0516 158.222 79.2234 158.508 79.3951C158.794 79.5669 159.137 79.6242 159.537 79.6242C160.109 79.6242 160.567 79.4524 160.853 79.1661C161.196 78.8799 161.31 78.5363 161.31 78.1356C161.31 77.792 161.139 77.4485 160.853 77.2195C160.624 77.0477 160.166 76.8187 159.48 76.6469C158.565 76.3607 157.936 76.0744 157.536 75.7309C157.136 75.3874 156.964 74.9866 156.964 74.4713C156.964 73.8988 157.193 73.4407 157.593 73.04C158.051 72.6392 158.622 72.4102 159.309 72.4102C159.766 72.4102 160.166 72.4674 160.51 72.6392C160.91 72.8109 161.196 73.04 161.482 73.3262C161.653 73.5552 161.825 73.8415 161.882 74.185L161.139 74.414C161.024 73.956 160.795 73.6125 160.452 73.3835C160.109 73.1545 159.766 73.04 159.309 73.04C158.851 73.04 158.451 73.1545 158.165 73.4407C157.879 73.6698 157.708 74.0133 157.708 74.3568C157.708 74.6431 157.822 74.9293 158.051 75.1584C158.279 75.3874 158.794 75.6164 159.595 75.8454C160.51 76.1317 161.139 76.4179 161.539 76.7615C161.882 77.105 162.053 77.563 162.053 78.0783C162.053 78.7081 161.825 79.2234 161.367 79.6242C160.91 80.0822 160.281 80.254 159.48 80.254C158.966 80.254 158.508 80.1394 158.108 79.9677C157.708 79.7959 157.364 79.5097 157.136 79.1661C156.964 78.9371 156.793 78.5936 156.678 78.1928L157.536 78.0783Z" fill="#005773"/>
<path d="M167.429 73.0973L166.113 77.1051H168.687L167.429 73.0973ZM166.857 72.582H168.058L170.517 80.1968H169.773L169.03 77.8494H165.942L165.198 80.1968H164.455L166.857 72.582Z" fill="#005773"/>
<path d="M173.09 72.582H173.833V79.4525H177.493V80.1968H173.09V72.582Z" fill="#005773"/>
<path d="M184.755 72.582H185.498V77.5631C185.498 78.1929 185.67 78.7082 186.013 79.0517C186.356 79.3952 186.871 79.567 187.443 79.567C187.9 79.567 188.3 79.5098 188.643 79.338C188.929 79.1662 189.158 78.9372 189.33 78.5937C189.501 78.2502 189.558 77.9066 189.558 77.5631V72.582H190.302V77.5631C190.302 78.4219 190.073 79.109 189.558 79.567C189.044 80.0823 188.415 80.3113 187.557 80.3113C186.871 80.3113 186.356 80.1968 185.899 79.9105C185.441 79.6243 185.155 79.2807 184.984 78.8227C184.812 78.4219 184.755 78.0211 184.755 77.6204V72.582Z" fill="#005773"/>
<path d="M193.732 72.582H194.876L198.65 78.8227V72.582H199.394V80.1968H198.65L194.476 73.2691V80.1968H193.732V72.582Z" fill="#005773"/>
<path d="M203.855 72.582H203.111V80.1968H203.855V72.582Z" fill="#005773"/>
<path d="M206.713 72.582H207.457L209.687 78.9945L211.86 72.582H212.603L209.973 80.1968H209.344L206.713 72.582Z" fill="#005773"/>
<path d="M215.292 72.582H219.752V73.3263H216.035V75.7882H218.837V76.5325H216.035V79.4525H220.152V80.1968H215.292V72.582Z" fill="#005773"/>
<path d="M223.755 73.2691V76.1318H225.356C225.756 76.1318 226.156 76.0745 226.499 75.96C226.785 75.8455 227.014 75.731 227.128 75.502C227.3 75.273 227.357 75.0439 227.357 74.7004C227.357 74.2996 227.186 73.9561 226.9 73.6699C226.614 73.3836 226.156 73.2691 225.584 73.2691H223.755ZM223.011 72.582H225.356C226.042 72.582 226.557 72.6393 226.957 72.811C227.357 72.9828 227.7 73.2118 227.929 73.5553C228.158 73.8989 228.272 74.2424 228.272 74.6432C228.272 75.1012 228.158 75.4447 227.872 75.7882C227.586 76.1318 227.186 76.3608 226.614 76.5325L228.444 80.1395H227.643L225.87 76.7043H223.812V80.1395H223.068V72.582H223.011Z" fill="#005773"/>
<path d="M231.588 78.0783C231.645 78.3646 231.76 78.5936 231.874 78.7653C232.046 79.0516 232.274 79.2234 232.56 79.3951C232.846 79.5669 233.189 79.6242 233.59 79.6242C234.162 79.6242 234.619 79.4524 234.905 79.1661C235.248 78.8799 235.362 78.5363 235.362 78.1356C235.362 77.792 235.191 77.4485 234.905 77.2195C234.676 77.0477 234.219 76.8187 233.533 76.6469C232.618 76.3607 231.989 76.0744 231.588 75.7309C231.188 75.3874 231.016 74.9866 231.016 74.4713C231.016 73.8988 231.245 73.4407 231.645 73.04C232.103 72.6392 232.675 72.4102 233.361 72.4102C233.818 72.4102 234.219 72.4674 234.562 72.6392C234.962 72.8109 235.248 73.04 235.534 73.3262C235.706 73.5552 235.877 73.8415 235.934 74.185L235.191 74.414C235.076 73.956 234.848 73.6125 234.505 73.3835C234.162 73.1545 233.818 73.04 233.361 73.04C232.904 73.04 232.503 73.1545 232.217 73.4407C231.931 73.6698 231.76 74.0133 231.76 74.3568C231.76 74.6431 231.874 74.9293 232.103 75.1584C232.332 75.3874 232.846 75.6164 233.647 75.8454C234.562 76.1317 235.191 76.4179 235.591 76.7615C235.934 77.105 236.106 77.563 236.106 78.0783C236.106 78.7081 235.877 79.2234 235.42 79.6242C234.962 80.0822 234.333 80.254 233.533 80.254C233.018 80.254 232.56 80.1394 232.16 79.9677C231.76 79.7959 231.417 79.5097 231.131 79.1661C230.959 78.9371 230.788 78.5936 230.673 78.1928L231.588 78.0783Z" fill="#005773"/>
<path d="M240.223 72.582H239.48V80.1968H240.223V72.582Z" fill="#005773"/>
<path d="M243.254 72.582H248.801V73.3263H246.399V80.1968H245.656V73.3263H243.254V72.582Z" fill="#005773"/>
<path d="M250.745 72.582H251.545L253.604 76.1318L255.605 72.582H256.406L253.947 76.8761V80.1968H253.204V76.8761L250.745 72.582Z" fill="#005773"/>
<path d="M257.607 48.9922H102.868" stroke="black" stroke-width="0.117227"/>
<path d="M93.3758 47.5578C93.3758 73.3221 72.5609 94.1625 46.8283 94.1625C21.0956 94.1625 0.280762 73.3221 0.280762 47.5578C0.280762 21.8508 21.0956 0.953125 46.8283 0.953125C72.5037 0.953125 93.3758 21.8508 93.3758 47.5578Z" fill="#C69A47"/>
<path d="M87.7721 47.3907C87.7721 70.235 69.2446 88.7853 46.4283 88.7853C23.612 88.7853 5.08447 70.235 5.08447 47.3907C5.08447 24.5464 23.612 5.99609 46.4283 5.99609C69.2446 5.99609 87.7721 24.5464 87.7721 47.3907Z" fill="#DCDDDE"/>
<path d="M75.4199 47.6749C75.4199 63.7632 62.382 76.7599 46.3706 76.7599C30.302 76.7599 17.3213 63.7632 17.3213 47.6749C17.3213 31.6438 30.302 18.5898 46.3706 18.5898C62.4392 18.6471 75.4199 31.6438 75.4199 47.6749Z" fill="#106F77"/>
<path d="M47.5712 79.624C26.4133 80.2538 8.7435 63.5357 8.11448 42.3517C7.77137 31.0727 12.4033 20.2517 20.8093 12.6942L21.3239 13.2095C13.0895 20.6525 8.57194 31.2445 8.91505 42.2945C9.54407 63.0776 26.8707 79.4523 47.6284 78.8797C68.3861 78.2499 84.7406 60.902 84.1688 40.1188C83.8257 29.0116 78.4504 18.5913 69.3582 11.5491L69.8157 10.9766C79.0794 18.1333 84.5691 28.7825 84.9122 40.1188C85.4268 61.3028 68.7292 78.9942 47.5712 79.624Z" fill="#C69A47"/>
<path d="M14.4043 71.2688L17.8353 68.2344L18.4072 68.8642L16.9204 70.2383C17.2635 70.1238 17.721 70.0092 18.1212 69.8947L19.1505 69.6657L19.7796 70.41L17.5494 70.8681L16.4057 73.5017L15.7195 72.7574L16.5201 70.9826L15.9483 71.0971L14.9761 71.9559L14.4043 71.2688Z" fill="#005773"/>
<path d="M16.8062 73.8963L20.0084 70.6328L20.6375 71.2626L17.4352 74.4688L16.8062 73.8963Z" fill="#005773"/>
<path d="M22.6957 73.1007L23.3248 73.6732L20.3512 77.1084L19.665 76.5359L20.2368 74.8755C20.4084 74.303 20.6371 73.7877 20.9802 73.1007C20.7515 73.3869 20.4656 73.7877 20.1797 74.1312C19.8937 74.4747 19.6078 74.8755 19.3791 75.1045L18.8072 75.7343L18.1782 75.1618L21.1518 71.7266L21.838 72.2991L21.2661 73.9595C21.0946 74.532 20.8659 75.0473 20.5228 75.7343C20.7515 75.3908 21.0374 75.0473 21.3233 74.7038C21.6092 74.3602 21.838 74.0167 22.1239 73.6732L22.6957 73.1007Z" fill="#005773"/>
<path d="M22.6398 75.5577C23.326 74.6416 23.8979 73.9546 25.0415 74.7562C25.6134 75.2142 25.9565 75.615 25.6134 76.4165C25.5562 76.5883 25.4418 76.76 25.3274 76.8746L24.6412 76.3593C24.9272 75.9585 25.0987 75.6722 24.6412 75.3287C24.1266 74.9279 23.6691 75.615 23.4976 75.9012L22.7542 76.9318C22.5254 77.2181 22.1823 77.7333 22.697 78.0769C23.0973 78.3631 23.4976 78.0196 23.8979 77.4471L23.4404 77.1036L23.8407 76.5883L24.9843 77.3898L23.5547 79.3937L23.0401 78.9929L23.326 78.5922C22.9257 78.8784 22.5826 78.8212 22.2967 78.6494C21.153 77.8479 21.6105 77.0463 22.2967 76.073L22.6398 75.5577Z" fill="#005773"/>
<path d="M28.7007 82.3709L30.5877 78.1914L32.7607 79.1647L32.532 79.7945L31.1024 79.1647L30.5877 80.1953L31.9602 80.8251L31.6742 81.4549L30.359 80.8251L29.5013 82.7145L28.7007 82.3709Z" fill="#005773"/>
<path d="M32.9324 82.1415L33.6186 82.3705L33.8474 81.0537C33.9045 80.8247 33.9617 80.6529 33.9617 80.4239C33.9617 80.3094 34.0189 80.1949 34.0189 80.1376C33.9617 80.2521 33.9045 80.3094 33.9045 80.4239C33.7902 80.5956 33.733 80.8247 33.6186 80.9964L32.9324 82.1415ZM31.1025 83.4583L33.6758 79.5078L34.7623 79.9086L34.1905 84.5462L33.3327 84.2599L33.5043 83.1148L32.5893 82.7713L31.9603 83.8019L31.1025 83.4583Z" fill="#005773"/>
<path d="M34.8193 84.7171L36.0774 80.3086L36.9351 80.5949L35.6771 84.9461L34.8193 84.7171Z" fill="#005773"/>
<path d="M38.9943 82.4903C39.1087 82.0896 39.1087 81.6888 38.7084 81.5743C38.4224 81.517 38.2509 81.5743 38.1365 81.8605C38.0793 82.2041 38.2509 82.3758 38.4796 82.6049C38.7084 82.8339 39.1658 83.2919 39.3374 83.5782C39.5661 83.9217 39.5661 84.208 39.5089 84.6087C39.3374 85.4676 38.6512 85.7538 37.8506 85.582C36.8785 85.353 36.5926 84.7232 36.7641 83.9217L36.8785 83.6354L37.7362 83.8072L37.6791 84.0934C37.5647 84.4942 37.6219 84.8377 38.0222 84.9523C38.3653 85.0095 38.594 84.895 38.6512 84.5515C38.7084 84.2652 38.6512 84.0934 38.4224 83.8644C38.0793 83.4064 37.5647 83.0629 37.336 82.5476C37.2216 82.3186 37.2216 82.0323 37.2788 81.8033C37.4503 81.059 37.965 80.7155 38.8227 80.8872C40.138 81.1735 39.9092 82.2041 39.7949 82.6621L38.9943 82.4903Z" fill="#005773"/>
<path d="M41.2812 84.2638L42.0246 84.3783L41.9674 83.0615C41.9674 82.8325 41.9674 82.6607 41.9674 82.4317C41.9674 82.3172 41.9674 82.2027 41.9674 82.1454C41.9674 82.2599 41.9102 82.3172 41.9102 82.4317C41.853 82.6607 41.7959 82.8325 41.7387 83.0615L41.2812 84.2638ZM39.7944 85.9242L41.4528 81.5156L42.5964 81.6874L43.0539 86.325L42.139 86.2105L42.0818 85.0081L41.1097 84.8936L40.7094 86.0387L39.7944 85.9242Z" fill="#005773"/>
<path d="M43.7402 86.3811L43.969 81.8008L44.8267 81.858L44.598 85.7513L46.1991 85.8086L46.1419 86.4956L43.7402 86.3811Z" fill="#005773"/>
<path d="M53.1757 81.3958L54.0335 81.2812L54.491 84.4302C54.6625 85.4035 54.3766 85.9761 53.2901 86.0906C52.2036 86.2623 51.8033 85.8043 51.6318 84.831L51.1743 81.682L52.0321 81.5675L52.4895 84.6592C52.5467 85.1173 52.6611 85.5181 53.2329 85.4608C53.8048 85.4035 53.7476 84.9455 53.6904 84.4875L53.1757 81.3958Z" fill="#005773"/>
<path d="M56.6635 80.7134L57.4641 80.4844L58.5505 84.8929L57.6928 85.1219L56.6635 83.6906C56.3204 83.2326 56.0345 82.7173 55.6342 82.0875C55.7485 82.431 55.9201 82.889 56.0345 83.3471C56.1488 83.8051 56.3204 84.2059 56.3776 84.6067L56.6063 85.4655L55.8057 85.6945L54.7192 81.2859L55.577 81.0569L56.6063 82.4883C56.9494 82.9463 57.2353 83.4616 57.6356 84.0914C57.5212 83.6906 57.3497 83.2898 57.2353 82.8318C57.121 82.431 57.0066 81.973 56.8922 81.5722L56.6635 80.7134Z" fill="#005773"/>
<path d="M59.5233 84.6077L58.1509 80.2564L58.9515 80.0273L60.3239 84.3786L59.5233 84.6077Z" fill="#005773"/>
<path d="M61.4097 79.0545L62.2675 78.7109L63.0109 83.3485L61.9244 83.7493L59.2939 79.856L60.1517 79.5125L61.6957 82.0317C61.81 82.2607 61.9816 82.4897 62.096 82.7187C62.1531 82.8332 62.2103 82.9477 62.2675 83.0622C62.2103 82.9477 62.2103 82.8332 62.1531 82.7187C62.0959 82.4897 62.0388 82.2034 61.9816 81.9744L61.4097 79.0545Z" fill="#005773"/>
<path d="M64.6118 82.6568L62.6104 78.5917L64.7833 77.5039L65.0693 78.1337L63.6397 78.8208L64.1543 79.8513L65.4695 79.2215L65.7555 79.7941L64.4402 80.4239L65.0693 81.6835L66.4417 80.9964L66.7848 81.6262L64.6118 82.6568Z" fill="#005773"/>
<path d="M66.8996 78.5367L67.4714 78.1932C67.7002 78.0214 67.8145 77.7351 67.5858 77.3916C67.2999 76.9336 67.0711 76.9908 66.8424 77.1626L66.2706 77.5061L66.8996 78.5367ZM67.2427 79.1092L68.272 80.7696L67.5286 81.2276L65.1841 77.3344L66.5565 76.5328C67.1855 76.132 67.8145 76.0748 68.2148 76.8191C68.4436 77.2199 68.6151 77.7351 68.1576 78.1359C68.6151 77.9069 68.901 78.1359 69.1298 78.5367C69.2441 78.7085 69.7588 79.6818 70.0447 79.6818L70.1019 79.739L69.3013 80.1971C69.0726 80.0253 68.7867 79.51 68.6151 79.281C68.4436 79.052 68.272 78.7085 67.9861 78.7657C67.7573 78.823 67.5286 78.9375 67.3571 79.1092H67.2427Z" fill="#005773"/>
<path d="M70.4448 75.5042C70.2161 75.1606 69.9302 74.8744 69.5871 75.1607C69.3583 75.3324 69.3012 75.5042 69.4727 75.7904C69.7014 76.0767 69.9302 76.0767 70.2733 76.0195C70.6164 76.0195 71.2454 75.9622 71.5313 76.0195C71.9316 76.0767 72.1603 76.2485 72.3891 76.592C72.9037 77.2791 72.675 77.9661 72.046 78.4814C71.2454 79.1112 70.5592 78.8249 70.1017 78.1951L69.9302 77.9088L70.6164 77.3936L70.7879 77.6226C71.0167 78.0234 71.3598 78.1951 71.6457 77.9088C71.9316 77.6798 71.9888 77.4508 71.7601 77.1646C71.5885 76.9355 71.4169 76.8783 71.131 76.8783C70.5592 76.8783 69.9874 76.9928 69.4155 76.821C69.1868 76.7638 68.958 76.592 68.8437 76.363C68.3862 75.7332 68.5006 75.1034 69.244 74.5881C70.3305 73.7866 70.9023 74.6454 71.1882 75.0461L70.4448 75.5042Z" fill="#005773"/>
<path d="M73.7611 76.9908L70.8447 73.4411L71.5309 72.9258L74.3901 76.4183L73.7611 76.9908Z" fill="#005773"/>
<path d="M71.8174 72.6355L73.876 70.7461L74.3906 71.2041L73.6473 71.8912L76.2777 74.7539L75.7059 75.3264L73.0182 72.4637L72.2748 73.1508L71.8174 72.6355Z" fill="#005773"/>
<path d="M75.763 70.4622C75.9918 70.5194 76.2205 70.6339 76.3921 70.8057C76.1633 70.5194 76.049 70.2904 75.9346 70.0041L75.4199 69.0308L76.049 68.3438L77.1926 70.9774L78.6222 72.2943L78.0504 72.9241L76.6208 71.6072L73.876 70.7484L74.505 70.0614L75.763 70.4622Z" fill="#005773"/>
<path d="M69.5875 22.6525C69.1301 22.2518 68.9013 22.08 68.4438 21.6792C68.6726 21.393 68.7869 21.2785 69.0157 20.9922C69.4732 21.393 69.7019 21.5647 70.2165 22.0228C69.9306 22.2518 69.8163 22.4235 69.5875 22.6525Z" fill="#005773"/>
<path d="M71.5318 24.5444C71.1315 24.0864 70.9028 23.8574 70.4453 23.4566C70.674 23.1703 70.8456 23.0558 71.0743 22.7695C71.5318 23.2276 71.7605 23.3993 72.1608 23.8574C71.9321 24.2009 71.7605 24.3154 71.5318 24.5444Z" fill="#005773"/>
<path d="M22.5827 23.3446C22.1252 23.7454 21.8965 23.9744 21.4962 24.4325L20.8672 23.8027C21.3247 23.3446 21.5534 23.1156 21.9537 22.7148C22.2396 22.9439 22.354 23.1156 22.5827 23.3446Z" fill="#005773"/>
<path d="M20.7523 25.2339C20.4092 25.5774 20.2376 25.8064 20.2376 25.8064C20.352 26.2644 20.4092 26.7225 20.2948 27.1232C20.1804 27.524 19.9517 27.982 19.6086 28.4401C19.3799 28.7836 19.0368 29.0126 18.6936 29.2416C18.2934 29.4706 17.9503 29.4706 17.7215 29.2989C17.4356 29.0699 17.1497 28.7263 17.0353 28.2111C16.921 27.8103 16.8638 27.4668 16.8638 27.2377C16.921 27.295 16.9781 27.295 17.0353 27.3522C17.0353 27.4668 17.0925 27.5813 17.0925 27.6958C17.1497 27.9248 17.2641 28.0965 17.4356 28.2111C17.6643 28.3828 17.8359 28.4401 18.0074 28.3828C18.3505 28.3256 18.6936 27.982 19.1511 27.4095C19.2655 27.2377 19.3799 27.066 19.4942 26.837C19.6086 26.6079 19.723 26.3789 19.7801 26.2072C19.7801 26.2072 18.8652 25.6346 17.0353 24.5468C16.9781 24.2605 16.921 23.8598 16.8638 23.3445C16.921 23.2872 17.3784 23.5162 18.1218 24.0888C18.3505 24.2605 18.6365 24.4896 18.8652 24.7186C19.2655 25.0048 19.6086 25.0621 19.723 24.8903C19.8373 24.7758 19.8373 24.7186 19.9517 24.6613C20.352 24.8903 20.4663 25.0048 20.7523 25.2339Z" fill="#005773"/>
<path d="M21.61 24.3173C21.2098 24.7753 20.981 25.0043 20.5807 25.4624C20.2948 25.2334 20.1804 25.1188 19.8945 24.8326C20.2948 24.3745 20.5235 24.1455 20.981 23.6875C21.2098 23.9165 21.3813 24.0883 21.61 24.3173Z" fill="#005773"/>
<path d="M26.1276 19.3338C25.7845 19.2193 25.3842 19.2766 24.9839 19.5628C24.8124 19.6773 24.5836 19.9636 24.4121 20.3071C24.3549 20.4216 24.2405 20.6506 24.069 20.9369C24.8695 20.1926 25.2698 19.9063 26.1276 19.3338ZM27.6715 19.3911C25.8989 20.5361 25.0983 21.1659 23.4971 22.54C23.3828 22.6545 23.154 22.6545 22.8109 22.5973C22.8681 22.7118 22.8681 22.8835 22.9253 23.0553C22.7537 23.1698 22.6966 23.2843 22.525 23.3988C22.2963 23.1126 22.1247 22.9981 21.896 22.7118C22.1247 22.4828 22.2391 22.4255 22.4678 22.1965C22.5822 22.082 22.3535 21.853 22.2391 21.624C22.2391 21.5667 22.2963 21.2804 22.4106 20.7079C22.4678 20.7079 22.5822 20.7652 22.6394 20.8224C22.6966 20.8797 22.7538 20.9369 22.7538 21.0514C22.8109 21.2232 22.8681 21.2804 22.8681 21.3377C22.9253 21.4522 22.9825 21.4522 23.0397 21.4522C23.154 21.4522 23.2112 21.3949 23.3256 21.3377C23.44 21.2804 23.4971 21.1087 23.6687 20.8224C23.8402 20.4789 23.8974 20.3071 24.069 20.0208C24.2405 19.7346 24.4121 19.3911 24.6408 19.1048C24.9267 18.704 25.1555 18.4177 25.3842 18.3032C25.6129 18.1315 25.8417 18.0742 26.1848 18.0742C26.5279 18.0742 26.7566 18.1887 26.871 18.4177C26.871 18.475 26.9282 18.5895 26.9282 18.704C27.0425 18.6468 27.0997 18.5895 27.2713 18.475C27.3284 18.933 27.4428 19.1048 27.6715 19.3911Z" fill="#005773"/>
<path d="M30.4158 18.8198C30.3586 19.2779 30.2443 19.5641 30.1871 19.5641C30.1299 19.5641 29.844 19.6214 29.3293 19.6214C29.2722 19.7932 29.215 19.9649 29.1578 20.1367C29.0434 20.1367 28.9291 20.1939 28.7003 20.1939C28.4716 20.1939 28.3572 20.1939 28.3 20.1939C28.3572 20.0222 28.4144 19.7359 28.4716 19.4496C28.5288 19.4496 28.7003 19.4496 28.8719 19.4496C29.1006 19.4496 29.215 19.3924 29.2722 19.3924C29.2722 19.3924 29.3293 19.2779 29.3865 19.1061C29.4437 18.9343 29.5009 18.8198 29.5009 18.8198C29.9012 18.8198 30.0727 18.8198 30.4158 18.8198ZM30.3586 17.8465C30.1299 17.961 30.0155 18.0183 29.844 18.1328C29.5009 18.3046 29.215 18.2473 28.9291 18.0183C28.9291 18.19 28.8719 18.4191 28.8719 18.7053C28.3572 19.0489 28.0713 19.1634 27.5566 19.5069C27.3851 19.2206 27.2707 19.0489 27.042 18.7626C27.671 18.3618 28.0141 18.1328 28.6431 17.7893C28.6431 17.6748 28.4144 17.3885 28.3572 17.1022C28.3572 17.045 28.4144 16.8732 28.4716 16.5869C28.5288 16.3007 28.5859 16.1289 28.6431 16.1289C28.8147 16.3579 28.9291 16.7014 29.0434 17.045C29.1006 17.1595 29.1578 17.2167 29.2722 17.2167C29.3865 17.2167 29.5581 17.2167 29.6724 17.1595C29.7868 17.1022 29.844 17.1022 29.9012 17.045C30.1299 17.3312 30.1871 17.503 30.3586 17.8465Z" fill="#005773"/>
<path d="M31.4458 15.0408C31.1599 14.8691 30.9312 14.8691 30.7596 14.9263C30.6453 14.9836 30.5309 15.0981 30.5309 15.2699C30.5881 15.2699 30.7596 15.2699 30.9884 15.2699C31.0455 15.2699 31.1027 15.2126 31.1599 15.2126C31.2171 15.2126 31.3315 15.1553 31.4458 15.0408ZM30.245 13.8958C30.245 13.953 30.1878 14.0675 30.0162 14.2965C29.8447 14.5255 29.7875 14.6401 29.7303 14.6401C29.6731 14.6401 29.5588 14.6401 29.2728 14.6401C28.9869 14.6401 28.8726 14.5828 28.8726 14.5828C28.8726 14.5255 28.9297 14.411 29.0441 14.182C29.1585 13.953 29.2728 13.7812 29.33 13.7812C29.33 13.7812 29.5016 13.7813 29.7875 13.8385C30.1306 13.8385 30.245 13.8958 30.245 13.8958ZM32.8754 15.3271C32.9326 15.4416 32.9898 15.6134 33.047 15.8996C33.1042 16.2432 33.1613 16.4722 33.1042 16.5867C31.9033 17.0447 31.3315 17.331 30.1878 17.9608C30.0162 17.6173 29.959 17.5028 29.7875 17.1592C30.8168 16.6439 31.3315 16.3577 32.3608 15.8996C32.3036 15.8424 32.2464 15.7279 32.1892 15.6134C32.0748 15.4989 31.9605 15.3844 31.9033 15.3844C31.8461 15.4989 31.7889 15.6134 31.7889 15.6706C31.6746 15.8424 31.4458 16.0142 31.1599 16.1859C30.9312 16.3004 30.7596 16.3004 30.5309 16.3004C30.245 16.3004 30.1306 16.2432 30.0162 16.0714C29.9019 15.8424 29.959 15.5561 30.1306 15.0408C30.3593 14.5255 30.6453 14.182 30.9884 14.0103C31.3315 13.8385 31.7317 13.953 32.1892 14.3538C32.5323 14.6973 32.761 15.0408 32.8754 15.3271Z" fill="#005773"/>
<path d="M37.5646 11.1481C37.5646 11.2626 37.5075 11.6634 37.3359 11.7779C37.05 12.0642 36.4782 12.1787 36.3638 12.2932C36.4782 12.3504 36.6497 12.2932 36.9928 12.2359C37.2787 12.1787 37.4503 12.2359 37.4503 12.3504C37.5075 12.5222 37.4503 12.694 37.3359 12.923C37.1644 13.2092 36.8213 13.4383 36.3638 13.5528C36.3066 13.5528 36.1351 13.61 35.9635 13.61C35.7348 13.6673 35.5632 13.6673 35.5632 13.61C35.5632 13.61 35.7348 13.4955 36.0779 13.3237C36.421 13.152 36.6497 12.9802 36.7069 12.923C36.5925 12.923 36.3638 12.9802 36.1351 13.0375C35.9063 13.0947 35.7348 13.0375 35.7348 12.8657C35.6776 12.694 35.9063 12.3504 36.3638 11.8924C36.8213 11.4916 37.2215 11.2053 37.5646 11.1481ZM40.7097 14.4116C40.2523 14.4688 40.0235 14.5261 39.5661 14.6406C39.4517 14.6406 39.3945 14.6406 39.3945 14.5261C39.3373 14.3543 39.3373 14.2398 39.2802 14.068C39.1658 14.3543 39.1086 14.4688 39.0514 14.7551C37.679 15.0414 37.05 15.2131 35.7348 15.6139C35.3917 15.7284 35.1057 15.7284 34.877 15.6139C34.6483 15.4994 34.4767 15.3276 34.3624 15.0414C34.3052 14.8696 34.3052 14.6406 34.3052 14.3543C34.3052 14.068 34.3624 13.839 34.4195 13.7245C34.4195 13.7245 34.4195 13.7245 34.4195 13.7818C34.4195 13.7818 34.4195 13.7818 34.4195 13.839C34.4195 13.8963 34.4767 14.0108 34.4767 14.1253C34.4767 14.2398 34.4767 14.3543 34.5339 14.4116C34.5911 14.5833 34.7055 14.6978 34.877 14.7551C35.0486 14.8696 35.2201 14.8696 35.3917 14.8124C36.9356 14.2971 37.7362 14.1253 39.2802 13.7818C38.9371 12.923 38.8227 12.4649 38.4796 11.6634C38.594 11.3771 38.7655 11.0336 39.0514 10.6328C39.1086 10.6328 39.3373 11.0908 39.5661 11.9497C39.6233 12.2359 39.7376 12.5794 39.7948 12.8657C39.9092 13.3237 40.1379 13.61 40.3095 13.5528C40.4238 13.5528 40.481 13.4955 40.5954 13.4955C40.5954 13.839 40.6526 14.0681 40.7097 14.4116Z" fill="#005773"/>
<path d="M42.7107 14.1289C42.3105 14.1861 42.1389 14.1861 41.7958 14.2434C41.6814 14.2434 41.6243 14.1861 41.5671 14.0716C41.5099 13.8999 41.5099 13.8426 41.5099 13.6708C41.4527 13.7853 41.3955 14.0144 41.224 14.3006C40.938 14.3579 40.8237 14.3579 40.5378 14.4151C40.4806 14.0716 40.4234 13.8999 40.3662 13.4991C40.8237 13.4418 40.9952 13.3846 41.4527 13.3273C41.1668 12.4685 40.9952 12.0105 40.6521 11.1517C40.8237 10.8654 41.0524 10.5219 41.3383 10.1211C41.3955 10.1211 41.5671 10.5791 41.7958 11.4952C42.0245 12.354 42.1389 12.8693 42.1389 12.9838C42.1389 13.1556 42.2533 13.2128 42.3676 13.1555C42.482 13.1555 42.5392 13.1555 42.5964 13.1555C42.6536 13.6136 42.6536 13.7853 42.7107 14.1289Z" fill="#005773"/>
<path d="M43.9688 14.0137C43.3969 14.071 43.111 14.071 42.5392 14.1282L42.4248 13.2122C42.9966 13.1549 43.2826 13.0977 43.9116 13.0977C43.9116 13.4984 43.9116 13.6702 43.9688 14.0137Z" fill="#005773"/>
<path d="M46.4274 13.0396C46.4274 12.9824 46.4274 12.8679 46.4274 12.8106C46.3702 12.6961 46.3131 12.6388 46.2559 12.6388C45.97 12.6388 45.7984 12.6961 45.7412 12.7533C45.7984 12.7533 45.9128 12.8106 46.0271 12.8678C46.1987 12.9824 46.3702 13.0396 46.4274 13.0396ZM47.9142 13.9557C47.6283 13.9557 47.4567 13.9557 47.1708 13.9557C47.1136 13.9557 47.0565 14.0129 46.9993 14.1274C46.9421 14.2419 46.8849 14.3565 46.7705 14.3565C46.0271 14.0129 45.6269 13.7839 44.8263 13.4976C44.7691 13.4976 44.7119 13.6122 44.7119 13.6694C44.6547 13.7839 44.6547 13.8412 44.5976 13.8984C44.5404 13.9557 44.426 14.0129 44.2545 14.0129C44.0257 14.0129 43.9685 14.0129 43.7398 14.0702C43.7398 13.7267 43.6826 13.4976 43.6826 13.1541C44.0829 13.0969 44.3116 13.0969 44.7119 13.0969C44.7691 13.0969 44.8263 13.0396 44.8835 12.9824C44.9407 12.8106 45.055 12.6388 45.1122 12.5243C45.2838 12.3526 45.5125 12.1808 45.8556 12.0663C46.1987 11.9518 46.4274 11.8945 46.6562 11.8945C46.8277 11.8945 46.8849 11.8945 46.9421 11.9518C46.9421 11.9518 46.9421 12.0663 46.9993 12.1808C46.9993 12.2381 46.9993 12.2953 47.0565 12.3526C47.1136 12.4671 47.228 12.6388 47.3424 12.8106C47.5139 13.0396 47.6283 13.0969 47.7427 13.0969C47.857 13.0969 47.857 13.0969 47.9714 13.0969C47.9142 13.4404 47.9142 13.6122 47.9142 13.9557Z" fill="#005773"/>
<path d="M49.2294 14.0124C48.6576 13.9551 48.3716 13.9551 47.7998 13.9551C47.7998 13.6116 47.7998 13.3826 47.857 13.0391C48.4288 13.0391 48.7147 13.0963 49.3438 13.0963C49.2294 13.4971 49.2294 13.6689 49.2294 14.0124Z" fill="#005773"/>
<path d="M51.8601 11.2062C51.4598 11.4925 51.2883 11.607 50.9452 11.8933C50.9452 12.0078 50.9452 12.3513 50.9452 13.0384C50.9452 13.1529 50.888 13.3819 50.7736 13.6109C50.7164 13.7254 50.6592 13.8399 50.6021 14.0117C50.6021 14.0689 50.5449 14.0689 50.4305 14.1262C50.3733 14.1262 50.3161 14.1262 50.259 14.1262H50.2018C49.7443 14.0689 49.5156 14.0689 49.0581 14.0117C49.0581 13.6682 49.1153 13.4391 49.1153 13.0956C49.5156 13.1529 49.7443 13.1529 50.2018 13.2101C50.2018 13.2101 50.2018 13.1529 50.259 13.0956C50.259 12.9239 50.259 12.5803 50.2018 12.0651C50.1446 11.7215 50.1446 11.5498 50.0874 11.2062C49.973 11.149 49.8587 11.0345 49.7443 10.92C49.9159 10.691 49.973 10.6337 50.1446 10.4047C50.3733 10.1184 50.5449 10.0039 50.6021 10.0039C50.6021 10.0039 50.6021 10.0612 50.6021 10.1757C50.6021 10.2902 50.6592 10.4047 50.7164 10.4619C51.4026 10.9772 51.7457 11.2062 51.8601 11.2062Z" fill="#005773"/>
<path d="M53.1751 13.2094C53.0607 13.7819 52.7748 14.1827 52.3745 14.5262C52.3745 13.4384 52.3745 12.8658 52.3745 11.778C52.3745 11.7207 52.5461 11.549 52.832 11.2627C53.1179 11.0337 53.2895 10.8619 53.3466 10.8047C53.3466 11.1482 53.3466 11.4345 53.3466 11.6062C53.3466 12.1788 53.2895 12.7513 53.1751 13.2094Z" fill="#005773"/>
<path d="M57.1206 14.24C57.1206 14.1828 57.1206 13.9538 57.1206 13.4385C57.1206 13.4385 57.0634 13.4385 56.9491 13.4957C56.7775 13.6102 56.5488 13.6675 56.3201 13.7247C56.2057 13.7247 56.1485 13.782 56.0913 13.8393C56.1485 13.8965 56.3772 13.9538 56.6632 14.0683C56.8919 14.1828 57.0634 14.24 57.1206 14.24ZM58.4359 16.0149C58.0927 15.9004 57.9212 15.8431 57.5209 15.7286C57.2922 15.6714 57.1206 15.4996 57.1206 15.2706C57.1206 15.2706 57.1206 15.0416 57.0634 14.6408C57.0063 14.6408 56.8347 14.7553 56.6632 14.9271C56.4916 15.0988 56.3772 15.0988 56.2057 15.0988H56.1485C55.3479 14.6981 54.8333 14.4691 54.5474 14.4118C54.6045 14.2973 54.7189 14.1255 54.8905 13.8393C55.1192 13.553 55.3479 13.324 55.5195 13.2667C55.6339 13.2095 55.9198 13.1522 56.3772 13.095C56.7775 13.0377 57.0634 13.0377 57.1778 12.9805C57.1778 12.9232 57.1778 12.9232 57.1778 12.8087C57.1778 12.7514 57.1778 12.6942 57.1778 12.6369C57.3494 12.5224 57.6353 12.3507 58.0356 12.0071C58.0928 12.1216 58.0927 12.5797 57.9784 13.324C57.9212 14.0683 57.864 14.469 57.9212 14.5836C57.9784 14.6981 58.1499 14.8126 58.493 14.9271C58.6074 14.9843 58.6646 14.9843 58.8361 15.0416C58.6074 15.4996 58.5502 15.6714 58.4359 16.0149ZM57.864 11.8926C57.4065 12.1216 57.1206 12.2361 57.0634 12.2361C57.0634 12.2361 56.9491 12.1216 56.6632 11.9499C56.4344 11.7781 56.2629 11.6636 56.2629 11.6636C56.0913 11.7209 55.9198 11.7781 55.7482 11.8926C55.6339 11.8354 55.4623 11.7209 55.2907 11.6064C55.1192 11.4918 55.0048 11.3773 54.9476 11.3201C55.1192 11.2628 55.4051 11.0911 55.7482 10.9766C55.8054 11.0338 55.9198 11.1483 56.0913 11.2628C56.2629 11.4346 56.3772 11.4918 56.4916 11.4918C56.5488 11.4918 56.606 11.4918 56.7775 11.4346C56.9491 11.3773 57.0634 11.3201 57.1206 11.3201C57.4065 11.4918 57.5209 11.6064 57.864 11.8926Z" fill="#005773"/>
<path d="M59.5799 16.4717C59.0653 16.2427 58.7794 16.1282 58.2075 15.9565C58.3219 15.6129 58.3791 15.4412 58.4934 15.0977C59.0653 15.2694 59.3512 15.3839 59.8658 15.6129C59.7515 15.9565 59.6943 16.1282 59.5799 16.4717Z" fill="#005773"/>
<path d="M62.725 17.9641C62.2675 17.7351 62.0388 17.6206 61.5813 17.3916C61.5813 17.2771 61.5241 17.1053 61.4669 16.8763C61.3526 16.9336 61.181 17.0481 60.9523 17.1626C60.3233 16.8763 59.9801 16.7046 59.2939 16.4755L59.6371 15.6167C60.2661 15.903 60.6092 16.0175 61.2382 16.3038C61.2382 16.1893 61.181 16.0748 61.0666 15.9603C60.9523 15.7885 60.7807 15.674 60.6092 15.6167C60.4948 15.5595 60.3804 15.5595 60.2661 15.5022C60.2661 15.5022 60.3804 15.3877 60.6092 15.216C60.8379 15.1014 60.9523 14.9869 61.0666 14.9297C61.0666 14.9297 61.2382 14.9297 61.4669 14.9297C61.7528 14.9297 61.9816 15.0442 62.2103 15.1015C62.6106 15.2732 62.8393 15.5595 63.0109 15.8458C63.1253 16.0748 63.1253 16.3038 63.0681 16.4183C63.0109 16.4755 62.9537 16.5901 62.7822 16.6473C62.6106 16.7046 62.4962 16.7618 62.4962 16.8191C62.725 16.9336 62.8393 16.9908 63.0681 17.1053C63.0109 17.4489 62.8965 17.6206 62.725 17.9641Z" fill="#005773"/>
<path d="M65.3553 18.0201C65.4696 17.7338 65.4125 17.5621 65.3553 17.5048C65.2409 17.4475 65.0122 17.3903 64.7834 17.3903C65.0122 17.6193 65.1265 17.7911 65.3553 18.0201ZM66.0415 18.8216C66.0415 18.8789 65.8699 18.9361 65.5268 19.0507C65.2409 19.1652 65.0694 19.2224 65.0122 19.1652C64.5547 18.6499 64.326 18.3636 63.8113 17.8483C63.7541 17.8483 63.6398 17.8483 63.4682 17.9628C63.2395 18.0773 63.1251 18.1346 63.0107 18.0773C62.782 17.9628 62.7248 17.9056 62.4961 17.7911C62.6676 17.4475 62.7248 17.333 62.8964 16.9895C63.1823 17.1613 63.3538 17.2185 63.5826 17.3903C63.6398 17.333 63.7541 17.2758 63.8685 17.1613C64.1544 16.9895 64.4975 16.875 64.7834 16.875C64.955 16.875 65.1837 16.875 65.3553 16.9323C65.4125 16.9323 65.5268 16.9323 65.6412 16.9895C65.8127 17.0468 65.9843 17.104 66.0987 17.1613C66.213 17.2185 66.2702 17.2758 66.2702 17.3903C66.2702 17.4475 66.213 17.6193 66.213 17.7338C66.213 17.8483 66.1559 18.0773 66.0987 18.3063C66.213 18.5354 66.1558 18.7071 66.0415 18.8216Z" fill="#005773"/>
<path d="M67.4708 20.9362C67.0133 20.5927 66.8417 20.421 66.3843 20.1347C66.3843 20.0774 66.8989 19.1614 67.9282 17.2147C67.9854 17.2147 68.3285 17.1575 68.9575 17.043C68.5001 17.959 67.9854 18.8178 67.4708 19.7339C67.4708 19.7912 67.5851 19.8484 67.8139 20.0202C67.8711 20.0774 67.9282 20.0774 67.9854 20.1347L67.4708 20.9362Z" fill="#005773"/>
<path d="M68.5573 21.7971C68.0998 21.3963 67.8711 21.2245 67.3564 20.881C67.5852 20.5947 67.6995 20.423 67.9283 20.1367C68.4429 20.4802 68.6717 20.7093 69.1291 21.11C68.9004 21.3963 68.786 21.5108 68.5573 21.7971Z" fill="#005773"/>
<path d="M70.5591 23.5731C70.1017 23.1723 69.8729 22.9433 69.4727 22.5425C69.7014 22.2562 69.8158 22.1417 70.1017 21.8555C70.5591 22.2562 70.7879 22.4853 71.2454 22.886C70.9023 23.2296 70.7879 23.3441 70.5591 23.5731Z" fill="#005773"/>
<path d="M73.2474 27.867C73.2474 27.9243 73.3045 27.9243 73.2474 27.867C73.2474 27.867 73.0758 27.867 72.7899 27.8098C72.4468 27.7525 72.2752 27.6953 72.2752 27.6953C72.0465 27.0082 71.9893 26.6647 71.9893 26.6074C71.9893 26.6074 72.1609 26.6074 72.504 26.6647C72.7899 26.722 72.9614 26.7792 73.0186 26.8365C73.0186 26.8365 73.0758 27.0082 73.133 27.3517C73.1902 27.6953 73.2474 27.867 73.2474 27.867ZM76.2781 28.4968C76.0494 28.4396 75.7063 28.3823 75.1916 28.3251C75.3632 28.5541 75.2488 28.3823 74.9057 27.8098C74.5054 27.2372 74.2767 26.8937 74.1623 26.7792C74.0479 26.6074 73.762 26.3784 73.3617 26.1494C72.9614 25.9204 72.6755 25.7486 72.5612 25.5769C72.1037 25.0616 71.875 24.8326 71.4175 24.3173C71.7034 24.0883 71.8178 23.9165 72.0465 23.6875C72.6183 24.26 72.8471 24.5463 73.3617 25.1188C73.6476 25.4624 73.8764 25.6914 74.1051 25.7486C74.1051 25.6914 74.0479 25.4624 73.8764 25.1761C73.7048 24.7753 73.5905 24.5463 73.5333 24.4891C73.4189 24.3173 73.133 24.1455 72.7899 23.9738C72.7899 23.9738 72.9043 23.9738 73.133 23.9165C73.4189 23.9165 73.6476 23.9165 73.8764 23.9738C74.1623 24.031 74.391 24.1455 74.5626 24.3173C74.7341 24.5463 74.9057 24.7753 75.0201 25.0043C75.0772 25.1761 75.1916 25.4051 75.2488 25.7486C75.3632 26.0922 75.4203 26.4357 75.5347 26.6074C75.8206 27.5808 76.0494 28.2106 76.2781 28.4968Z" fill="#005773"/>
<path d="M31.6738 26.7188L31.102 27.234L26.4701 28.6081L28.7574 31.4136C28.7574 31.4136 28.4143 31.7571 28.1856 31.7571C27.9569 31.8143 27.8425 32.1006 27.7853 32.2151C27.7281 32.3869 27.6138 32.7304 27.3278 32.7877C27.0419 32.8449 26.2414 33.0167 26.2414 33.0167C26.2414 33.0167 25.8411 33.0739 25.7839 33.1884C25.7267 33.3029 25.4408 33.761 25.3264 33.9327C25.2121 34.1045 24.9261 34.3335 24.8118 34.448C24.6974 34.5625 24.1256 34.9633 24.1256 34.9633L21.4379 34.677C21.4379 34.677 21.4379 35.0206 21.3807 35.3068C21.2664 35.5931 21.0948 35.9366 21.152 36.1657C21.152 36.3947 21.0948 36.9672 21.0376 37.139C20.9805 37.3107 20.7517 37.7688 20.7517 37.7688C20.7517 37.7688 20.5802 37.9978 20.8661 37.9978C21.152 37.9978 21.4379 38.055 21.6095 38.055C21.781 38.055 22.1813 38.2268 22.2385 38.3413C22.3529 38.4558 22.9247 39.6009 23.0391 39.7726C23.1534 39.9444 23.4394 40.1734 23.4965 40.2879C23.5537 40.4024 23.5537 40.5169 23.5537 40.6314C23.6109 40.8032 23.954 41.3185 24.0684 41.3758C24.1256 41.433 24.2399 41.7765 24.3543 41.8338C24.4687 41.891 24.6402 42.0628 24.6974 42.1773C24.7546 42.2918 24.9261 42.8644 25.0405 42.9789C25.1549 43.0934 25.2692 43.2651 25.3836 43.3796C25.498 43.4941 25.8411 43.5514 25.7267 43.7232C25.6123 43.8377 25.498 43.9522 25.5552 44.0667C25.6123 44.1812 25.7839 44.2957 26.0126 44.4102C26.1842 44.5247 26.4129 44.8682 26.5273 45.0973C26.6416 45.3263 26.9276 45.5553 26.9847 45.7843C27.0419 46.0133 27.0991 46.3568 27.0419 46.4141C27.0419 46.5286 26.9847 46.6431 26.9276 46.7576C26.9276 46.9294 26.8704 47.0439 27.0419 47.1584C27.2135 47.2729 27.4422 47.5592 27.4422 47.7309C27.4422 47.9027 27.4422 48.0172 27.5566 48.0745C27.6709 48.189 27.8425 48.189 27.9569 48.189C28.0712 48.189 28.1856 48.3035 28.2428 48.3607C28.3 48.418 28.4143 48.418 28.6431 48.5325C28.8718 48.647 29.5008 49.0478 29.558 49.105C29.6152 49.1623 29.9583 49.6203 29.9583 49.7921C30.0155 49.9638 30.0155 50.1356 30.1298 50.1356C30.2442 50.1929 30.3586 50.1929 30.3586 50.3646C30.3586 50.5364 30.4729 50.9372 30.5873 51.1089C30.7017 51.2807 30.6445 51.4524 30.7589 51.567C30.8732 51.7387 31.2163 52.1395 31.3307 52.5403C31.3879 52.8838 31.4451 53.1701 31.3307 53.4563C31.2735 53.6853 31.2163 54.0289 31.1592 54.0861C31.1592 54.1434 31.0448 54.2579 31.2163 54.4297C31.3879 54.6587 31.4451 54.7732 31.4451 54.8877C31.4451 55.0022 31.731 55.403 31.6166 55.5747C31.5023 55.7465 31.4451 55.8037 31.5023 56.0328C31.6166 56.2045 32.0169 57.0061 32.1313 57.1778C32.3028 57.3496 32.7603 58.0367 32.8175 58.1512C32.8747 58.2657 33.1606 58.4374 33.3321 58.4947C33.5037 58.5519 33.7896 58.5519 33.9612 58.6664C34.0755 58.7809 34.3043 58.9527 34.4186 59.01C34.533 59.0672 34.8189 59.2962 34.8189 59.2962C34.8189 59.2962 34.8761 59.6398 34.9333 59.697C35.0476 59.7543 35.2192 59.6398 35.3336 59.8115C35.4479 59.9833 35.3907 60.1551 35.5623 60.2696C35.7338 60.3841 35.791 60.5558 35.791 60.6703C35.791 60.7848 35.791 60.8993 35.9054 60.9566C36.0198 61.0139 36.0198 61.1284 36.0198 61.3001C36.0198 61.4719 36.1913 61.4719 36.2485 61.6437C36.3057 61.7582 36.2485 61.8727 36.2485 61.9872C36.2485 62.1017 36.3057 62.388 36.3629 62.5597C36.4201 62.7315 36.5916 62.846 36.706 62.9032C36.8203 62.9605 36.9347 63.3613 36.9919 63.533C37.0491 63.7048 37.4494 64.3346 37.6781 64.6208C37.9068 64.8499 38.1356 65.0789 38.3643 65.2506C38.593 65.4224 38.9361 65.5942 38.9933 65.8232C39.0505 66.0522 39.0505 66.3385 39.1649 66.5102C39.2792 66.682 39.4508 66.911 39.508 67.0255C39.5652 67.14 39.8511 67.369 39.8511 67.4835C39.9083 67.6553 39.9083 67.7698 39.9654 67.8271C40.0226 67.9416 40.0798 68.3424 40.0798 68.3424L40.4801 68.2851C40.4801 68.2851 40.4801 68.1133 40.5945 68.1133C40.7088 68.0561 40.8232 68.0561 40.8804 67.9988C40.9376 67.9416 40.8804 67.7126 40.9947 67.7126C41.1091 67.7126 41.2807 67.7698 41.2807 67.5981C41.2807 67.4263 41.2807 67.3118 41.1663 67.2545C41.0519 67.14 40.8804 66.9683 40.9376 66.911C40.9947 66.8538 41.2235 66.8538 41.1663 66.682C41.1091 66.5102 40.9947 66.453 41.1091 66.3385C41.1663 66.2812 41.2235 66.224 41.3378 66.1095C41.4522 66.0522 41.4522 65.9377 41.3378 65.8232C41.2807 65.7087 41.2807 65.5942 41.395 65.4797C41.5094 65.4224 41.6809 65.3652 41.7953 65.4224C41.9097 65.4797 41.9669 65.4224 42.0812 65.5942C42.2528 65.7659 42.3672 65.8804 42.5387 65.8804C42.7103 65.8804 42.7674 65.9377 42.8818 65.8804C42.9962 65.8232 42.9962 65.7087 43.2249 65.7087C43.4536 65.7087 45.741 65.7087 45.741 65.7087C45.741 65.7087 46.0269 65.7659 46.1413 65.8232C46.2556 65.8804 46.4272 66.0522 46.7703 66.0522C47.1134 66.0522 48.0283 66.1095 48.2571 66.1667C48.4858 66.1667 48.9433 66.1667 49.172 66.1095C49.4007 66.0522 49.5723 65.9949 49.6867 66.1095C49.7439 66.2812 50.0298 66.6247 50.0298 66.6247C50.0298 66.6247 50.1441 66.7965 50.3157 66.7965C50.4872 66.7965 50.6588 66.8538 50.7732 66.7965C50.8875 66.7393 51.0591 66.6247 51.2306 66.453C51.345 66.2812 51.5165 66.2812 51.5165 66.1095C51.5737 65.9377 51.6309 65.5942 51.7453 65.5369C51.8596 65.4224 53.1749 63.7048 53.1749 63.7048L55.2907 62.6742C55.2907 62.6742 55.8625 62.617 56.2056 62.5597C56.5487 62.5025 58.7217 62.2734 59.2935 62.2162C59.9225 62.1589 62.0383 61.7009 62.1527 61.6437C62.2671 61.6437 69.2435 59.1245 69.2435 59.1245C69.2435 59.1245 69.4722 58.8955 69.5294 58.5519C69.5866 58.2084 70.959 53.9716 70.959 53.9716L69.9297 52.1968L63.4679 51.5097L61.2378 48.418L61.1806 47.96C61.1806 47.96 60.7231 47.96 60.5516 47.9027C60.38 47.8455 60.4372 47.6737 60.4944 47.5592C60.5516 47.4447 60.38 47.3874 60.1513 47.4447C59.9225 47.5019 59.751 47.5592 59.5794 47.2729C59.4079 46.9866 59.2935 46.7576 59.2935 46.7576C59.2935 46.7576 59.0648 46.3568 58.8932 46.1278C58.7217 45.8988 58.6645 45.7271 58.6645 45.5553C58.6645 45.3835 58.7217 44.9827 58.4358 44.9255C58.1498 44.811 57.9211 44.6392 57.8639 44.4675C57.8067 44.2957 57.4065 43.5514 57.4636 43.3224C57.5208 43.0934 57.578 42.8071 57.578 42.8071C57.578 42.8071 57.8067 42.4636 57.6924 42.3491C57.5208 42.2346 57.4065 42.1201 57.4065 42.0056C57.4636 41.891 57.578 41.6048 57.3493 41.433C57.1205 41.2612 56.7774 41.0895 56.6631 40.975C56.5487 40.8605 56.32 40.4597 56.2056 40.5169C56.0341 40.5742 55.9197 40.5169 55.8625 40.4024C55.7481 40.2879 55.5766 40.1162 55.5766 39.9444C55.5766 39.7154 55.6338 39.5436 55.405 39.4864C55.1763 39.4291 55.2335 39.3719 55.0619 39.3146C54.8904 39.2574 54.8332 39.1428 54.6616 39.2001C54.5473 39.2574 54.4329 38.8566 54.6045 38.7993C54.776 38.7421 54.776 38.6848 54.5473 38.3986C54.3185 38.1123 54.2614 37.9405 54.147 37.7688C54.0898 37.597 53.6895 36.7382 53.6895 36.7382H51.8596L51.2878 35.4786L44.8261 34.9061L38.4215 29.5814C38.4215 29.5814 36.8775 28.8944 36.6488 28.7226C36.4201 28.5509 34.6474 27.4058 34.4758 27.2913C34.4758 27.3485 31.6738 26.7188 31.6738 26.7188Z" fill="#C69A47"/>
<path d="M53.9758 59.4135C54.662 59.2417 55.291 59.1272 55.7485 59.1272C57.0637 59.1272 57.6927 59.8143 57.9786 60.4441C57.5212 60.1005 56.8922 59.528 55.6341 59.528C54.2045 59.528 50.4876 60.7303 49.0008 61.0739C50.0301 60.6731 52.8893 59.6998 53.9758 59.4135ZM42.1959 59.4135C43.2824 59.6998 46.1988 60.6731 47.1137 61.1311C45.5698 60.7303 41.91 59.5853 40.4804 59.5853C39.2224 59.5853 38.5934 60.1578 38.1359 60.5013C38.4218 59.8715 39.0508 59.1845 40.3661 59.1845C40.8807 59.1272 41.5097 59.2417 42.1959 59.4135ZM58.2074 61.2456C58.2074 61.2456 58.0358 58.5547 55.291 58.5547C54.7764 58.5547 54.2045 58.6692 53.5183 58.841C51.1738 59.4708 48.6005 60.9593 48.4862 61.0166L48.0859 61.2456L47.6856 61.0166C47.514 60.9021 43.3968 58.5547 40.8807 58.5547C38.1359 58.5547 37.9644 61.1884 37.9644 61.2456V61.5891H44.5977H45.3411H46.0844H47.4568H48.6005H58.1502L58.2074 61.2456Z" fill="white"/>
<path d="M76.2775 39.4336C76.3919 39.4336 76.4491 39.6054 76.5634 39.8916C76.6206 40.2352 76.735 40.6932 76.8493 41.323V41.4375V41.4947C76.8493 41.7237 76.7922 41.8383 76.6778 41.8383C76.5634 41.8383 76.5062 41.7237 76.4491 41.552C76.4491 41.323 76.3347 40.6932 76.106 39.6626C76.106 39.4908 76.1631 39.4336 76.2775 39.4336Z" fill="#106F77"/>
<path d="M77.3063 39.375C77.3635 39.375 77.4207 39.4323 77.5351 39.604C77.6494 39.7758 77.7638 39.833 77.8782 39.833C77.9925 39.833 78.0497 39.7185 78.0497 39.604C78.0497 39.4895 78.1069 39.4323 78.1641 39.4323H78.2213C78.2784 39.4323 78.3356 39.4895 78.3928 39.6613C78.45 39.833 78.5072 39.8903 78.5644 39.9475C78.6787 39.9475 78.7359 39.9475 78.7359 39.833C78.7931 39.7185 78.7931 39.6613 78.7931 39.5468C78.7931 39.4323 78.7931 39.4323 78.9075 39.375C78.9646 39.375 79.0218 39.375 79.079 39.4895C79.079 39.604 79.079 39.7185 79.0218 39.8903C78.9646 40.0621 78.8503 40.1766 78.6787 40.1766C78.5072 40.1766 78.3356 40.1193 78.2784 39.9475C78.1641 40.1766 78.0497 40.2338 77.821 40.1193C77.9353 40.4056 78.0497 40.8064 78.1641 41.3216L78.2213 41.6079C78.2213 41.6652 78.1641 41.7224 78.0497 41.7797C77.9353 41.7797 77.8782 41.7224 77.8782 41.5507C77.7066 40.8636 77.5922 40.4628 77.4779 40.2338C77.3635 40.0048 77.2491 39.7758 77.1348 39.5468V39.4895C77.1348 39.4323 77.192 39.375 77.3063 39.375Z" fill="#106F77"/>
<path d="M79.8231 40.0048C79.8231 40.1193 79.9375 40.1766 80.1662 40.1766H80.2234H80.5093C80.395 39.8903 80.2234 39.7185 80.1091 39.7185C79.9375 39.7185 79.8803 39.833 79.8231 40.0048ZM80.0519 39.375C80.395 39.375 80.6809 39.604 80.8524 40.1193C80.9668 40.1193 81.024 40.1766 81.024 40.2911V40.3483C81.024 40.4056 81.024 40.4056 80.9668 40.4628C81.024 40.8064 81.1384 41.2071 81.3671 41.5507V41.6652C81.3671 41.7224 81.3099 41.7797 81.1955 41.8369C81.024 41.8369 80.9096 41.6079 80.7381 41.2071L80.5665 40.5773C80.4522 40.5773 80.3378 40.6346 80.2234 40.6346H80.0519C79.766 40.6346 79.5372 40.5201 79.4229 40.2911V40.1766C79.4229 39.9475 79.5372 39.7185 79.8231 39.5468C79.9375 39.4323 79.9947 39.375 80.0519 39.375Z" fill="#106F77"/>
<path d="M82.6245 40.5778C82.4529 40.635 82.2814 40.7495 82.1098 40.9213C81.9383 41.0931 81.8811 41.2648 81.8811 41.4366C82.0526 41.4939 82.3957 41.4938 83.0247 41.4938C83.1963 41.4938 83.2535 41.4366 83.2535 41.3221V41.2648C83.2535 41.0931 83.0819 40.9213 82.7388 40.6923C82.7388 40.635 82.6816 40.5778 82.6245 40.5778ZM82.0526 40.0625C82.5673 40.0625 83.0247 40.2915 83.425 40.6923C83.5394 40.8641 83.6538 41.0358 83.6538 41.2076V41.3221C83.6538 41.6084 83.4822 41.7801 83.0819 41.8374C82.167 41.8374 81.7095 41.7229 81.6523 41.4938V41.4366C81.6523 41.0931 81.8811 40.8068 82.2814 40.5205C82.0526 40.5205 81.9383 40.4633 81.9383 40.3488V40.2915C81.8811 40.1198 81.9383 40.0625 82.0526 40.0625Z" fill="#106F77"/>
<path d="M10.5734 41.2616H10.2303C10.2875 40.9753 10.2875 40.689 10.3447 40.3455C10.4019 40.002 10.4019 39.773 10.4019 39.6012L9.94439 39.8302L9.88721 39.6585L10.6306 39.0859H10.8593C10.8021 39.544 10.745 39.9447 10.6878 40.3455C10.6306 40.689 10.6306 40.9753 10.5734 41.2616Z" fill="#106F77"/>
<path d="M12.6893 40.1165C12.6893 39.8875 12.6321 39.6585 12.5749 39.544C12.4606 39.4295 12.4034 39.3722 12.2318 39.3722C12.0603 39.3722 11.9459 39.4295 11.8315 39.6012C11.7172 39.7157 11.66 39.8875 11.66 40.0593C11.66 40.231 11.7172 40.3455 11.7744 40.46C11.8887 40.5745 12.0031 40.6318 12.1746 40.6318C12.3462 40.6318 12.5178 40.5745 12.6321 40.4028C12.6893 40.2883 12.6893 40.1738 12.6893 40.1165ZM13.0324 40.0593C13.0324 40.6318 12.918 41.0898 12.6321 41.4906C12.3462 41.8914 11.9459 42.0631 11.4313 42.1204L11.3741 41.8914C12.0603 41.8341 12.5178 41.4334 12.6321 40.5745C12.4606 40.7463 12.289 40.8608 12.0031 40.8608C11.7744 40.8608 11.6028 40.8036 11.4884 40.6318C11.3741 40.46 11.3169 40.2883 11.3169 40.1165C11.3169 39.8302 11.4313 39.6012 11.6028 39.3722C11.7744 39.2004 12.0031 39.0859 12.289 39.0859C12.5178 39.0859 12.6893 39.1432 12.8037 39.315C12.9752 39.4867 13.0324 39.7157 13.0324 40.0593Z" fill="#106F77"/>
<path d="M15.1486 39.0885C15.1486 39.432 14.8627 39.9473 14.4624 40.6916C14.0049 41.4359 13.7762 41.8367 13.7762 41.9512L13.4331 41.8939C13.4331 41.7222 13.6618 41.3214 14.1193 40.6344C14.5768 39.9473 14.8055 39.5465 14.8055 39.3175C14.5196 39.3175 14.1193 39.3175 13.5475 39.3748L13.6047 39.0312H15.1486V39.0885Z" fill="#106F77"/>
<path d="M16.921 39.0859L16.8638 39.4295C16.5779 39.3722 16.292 39.3722 15.9489 39.3722C15.8917 39.4867 15.8917 39.7157 15.8345 40.1165C16.5779 40.1165 16.921 40.3455 16.921 40.8608C16.921 41.2043 16.7495 41.4906 16.4064 41.7196C16.0633 41.9486 15.7202 42.0631 15.3199 42.0631L15.2627 41.8341C15.6058 41.8341 15.8917 41.7196 16.1205 41.6051C16.3492 41.4906 16.4636 41.2616 16.4636 40.9753C16.4636 40.8036 16.4064 40.6318 16.2348 40.5745C16.0633 40.5173 15.7773 40.46 15.3771 40.46C15.4342 40.1738 15.5486 39.7157 15.6058 39.1432H16.921V39.0859Z" fill="#106F77"/>
<path d="M51.8026 33.0748C51.9741 33.0748 57.5781 34.5061 60.8376 36.6245C57.6925 35.9375 56.6632 36.1092 53.4609 35.8802C56.3201 38.2276 58.7218 41.2048 60.4945 44.6973C57.9212 42.3499 55.1192 40.1743 52.2029 38.2276C53.7468 41.9491 54.4902 46.0714 54.2615 50.3655C53.0034 46.3004 51.2879 42.3499 49.2865 38.6284C49.2293 46.9875 48.0284 57.7512 48.0284 60.9574C48.0284 58.0947 46.5417 47.102 46.4845 38.6284C44.3115 42.6934 42.6532 46.7012 41.5095 50.3655C41.3951 46.0714 42.1385 41.9491 43.6825 38.1704C40.5374 40.2888 37.6782 42.5217 35.3337 44.6973C37.1635 41.2621 39.6224 38.2276 42.4816 35.823C38.9362 36.052 37.5638 35.9375 34.6475 36.6245C37.9069 34.5634 43.3966 33.2465 43.6253 33.0748C41.5667 29.9258 37.5638 25.8608 37.5638 25.8608C37.5638 25.8608 41.5667 27.6356 46.4845 30.8991C46.3701 29.6395 47.9141 20.0781 47.9141 20.0781C47.9141 20.0781 49.2293 29.067 49.2293 30.8991C53.9755 27.0631 56.5488 26.0325 57.0635 25.8608C57.0635 25.9753 52.8891 30.8419 51.8026 33.0748Z" fill="white"/>
<path d="M46.142 73.6717H44.9412L43.7403 71.8396C43.7403 71.7823 43.6831 71.7251 43.6259 71.6106V73.6717H42.6538V69.7212C42.6538 69.5495 42.8825 69.4922 42.8825 69.4922H43.6259V71.4961C43.6259 71.4388 43.6831 71.3816 43.7403 71.2671L44.884 69.4922H46.0276L44.5409 71.4961L46.142 73.6717Z" fill="white"/>
<path d="M49.0009 70.2338H47.5141V71.2644H48.8865V72.0087H47.5141V73.6118H46.542C46.542 73.6118 46.542 69.604 46.542 69.5468C46.542 69.4322 46.6564 69.375 46.6564 69.375H48.9437V70.2338H49.0009Z" fill="white"/>
<path d="M53.061 71.8396C53.061 73.0992 52.4891 73.729 51.2883 73.729C50.1446 73.729 49.5728 73.0992 49.5728 71.8969V69.4922H50.5449V71.9541C50.5449 72.6412 50.8308 72.9847 51.3455 72.9847C51.8601 72.9847 52.146 72.6412 52.146 72.0114V69.5494H53.1181V71.8396H53.061Z" fill="white"/>
<path d="M53.3464 57.81C53.9754 57.581 54.4901 57.4093 54.9475 57.352C56.1484 57.2375 56.7774 57.7528 57.1205 58.3253C56.7202 58.0963 55.9768 57.6383 54.8903 57.7528C53.5751 57.9245 51.9168 58.7261 50.6016 59.2414C51.4021 58.7261 52.4314 58.2108 53.3464 57.81Z" fill="white"/>
<path d="M42.8249 57.8087C43.7398 58.2095 44.7691 58.7248 45.5697 59.2401C44.2545 58.7248 42.5962 57.9232 41.2809 57.7515C40.1945 57.637 39.5083 58.0378 39.0508 58.324C39.3939 57.8087 40.0229 57.2362 41.2238 57.3507C41.6812 57.408 42.2531 57.5797 42.8249 57.8087Z" fill="white"/>
</svg>
