<svg width="148" height="52" viewBox="0 0 148 52" fill="none" xmlns="http://www.w3.org/2000/svg">
<path d="M5.98389 18.8672H9.46258V24.6571L13.1068 18.8672H17.7352L13.627 24.6483L17.9214 34.1829H13.6358L11.2625 27.8846L9.46553 30.4471V34.1858H5.98389V18.8672Z" fill="#071C2E"/>
<path d="M19.0947 18.8672H22.3429L26.5811 27.3408V18.8672H29.8618V34.1858H26.5811L22.3665 25.7743V34.1858H19.0947V18.8672Z" fill="#071C2E"/>
<path d="M31.7358 26.5352C31.7358 24.0348 32.2472 22.0871 33.2727 20.695C34.2954 19.303 35.7229 18.6055 37.5494 18.6055C39.4232 18.6055 40.8685 19.2912 41.8823 20.6596C42.896 22.028 43.4044 23.9462 43.4044 26.4111C43.4044 28.2022 43.1827 29.6681 42.7394 30.8149C42.296 31.9616 41.6576 32.8512 40.8183 33.4896C39.9818 34.128 38.9385 34.4443 37.6883 34.4443C36.4174 34.4443 35.3682 34.1694 34.5347 33.6197C33.7013 33.07 33.0274 32.1981 32.5102 31.007C31.993 29.8159 31.7358 28.3263 31.7358 26.5352ZM35.2145 26.5559C35.2145 28.1017 35.4244 29.213 35.847 29.8898C36.2697 30.5666 36.843 30.9035 37.5701 30.9035C38.3179 30.9035 38.8972 30.5725 39.305 29.9105C39.7158 29.2484 39.9198 28.0603 39.9198 26.3461C39.9198 24.9038 39.707 23.8516 39.2784 23.1866C38.8499 22.5216 38.2706 22.1876 37.5376 22.1876C36.8371 22.1876 36.2726 22.5245 35.847 23.2014C35.4273 23.8782 35.2145 24.9954 35.2145 26.5559Z" fill="#071C2E"/>
<path d="M43.8477 18.8672H47.152L48.3431 27.4413L50.0839 18.8672H53.3764L55.1231 27.4324L56.3142 18.8672H59.6008L57.1181 34.1858H53.7074L51.7331 24.5419L49.7647 34.1858H46.354L43.8477 18.8672Z" fill="#071C2E"/>
<path d="M60.7354 18.8672H64.214V30.4116H69.6434V34.1829H60.7354V18.8672Z" fill="#071C2E"/>
<path d="M71.2188 18.8672H80.5435V22.139H74.7063V24.5744H80.1209V27.6984H74.7063V30.719H80.712V34.1888H71.2188V18.8672Z" fill="#071C2E"/>
<path d="M82.6304 18.8672H87.7996C88.8193 18.8672 89.6409 19.0563 90.2675 19.4317C90.8941 19.8071 91.4143 20.3479 91.8221 21.0513C92.233 21.7548 92.5285 22.5735 92.7118 23.5074C92.895 24.4414 92.9896 25.4285 92.9896 26.4748C92.9896 28.1122 92.8536 29.3801 92.5788 30.2845C92.3039 31.1859 91.9256 31.9426 91.4379 32.5514C90.9503 33.1603 90.4301 33.5681 89.8715 33.7691C89.1089 34.0469 88.4174 34.1858 87.7967 34.1858H82.6304V18.8672ZM86.1091 22.337V30.7071H86.9603C87.6873 30.7071 88.2045 30.5978 88.5119 30.3791C88.8193 30.1604 89.0587 29.7761 89.2331 29.2294C89.4075 28.6826 89.4932 27.7959 89.4932 26.5694C89.4932 24.9468 89.2981 23.8355 88.9109 23.2355C88.5208 22.6355 87.8765 22.337 86.975 22.337H86.1091Z" fill="#071C2E"/>
<path d="M100.479 28.6376V25.4486H105.855V31.9804C104.827 32.935 103.916 33.5852 103.124 33.9281C102.332 34.2739 101.395 34.4453 100.311 34.4453C98.9747 34.4453 97.8841 34.135 97.0418 33.5143C96.1995 32.8936 95.5463 31.9715 95.0823 30.7449C94.6182 29.5184 94.3877 28.1115 94.3877 26.5244C94.3877 24.8516 94.6419 23.3974 95.1473 22.162C95.6527 20.9266 96.3975 19.9867 97.3758 19.3454C98.1383 18.8518 99.1639 18.6035 100.455 18.6035C101.7 18.6035 102.631 18.7572 103.248 19.0646C103.866 19.372 104.377 19.8478 104.785 20.4921C105.193 21.1364 105.498 21.9522 105.705 22.9423L102.347 23.758C102.208 23.1787 101.975 22.7383 101.644 22.431C101.313 22.1236 100.893 21.9699 100.382 21.9699C99.619 21.9699 99.0102 22.3305 98.558 23.0516C98.1058 23.7728 97.8782 24.9136 97.8782 26.4742C97.8782 28.1322 98.1087 29.3174 98.5668 30.0267C99.025 30.7361 99.6634 31.0937 100.482 31.0937C100.872 31.0937 101.242 31.0168 101.596 30.8632C101.951 30.7095 102.353 30.4494 102.811 30.0799V28.6376H100.479Z" fill="#071C2E"/>
<path d="M107.915 18.8672H117.24V22.139H111.403V24.5744H116.817V27.6984H111.403V30.719H117.408V34.1888H107.915V18.8672Z" fill="#071C2E"/>
<path d="M135.071 38.5981L136.194 38.4769C136.241 38.6276 136.306 38.737 136.389 38.802C136.472 38.867 136.584 38.8995 136.723 38.8995C136.874 38.8995 136.992 38.8641 137.078 38.7902C137.143 38.737 137.175 38.666 137.175 38.5862C137.175 38.4946 137.134 38.4237 137.048 38.3705C136.986 38.335 136.823 38.2907 136.56 38.2375C136.167 38.1606 135.892 38.0867 135.742 38.0217C135.588 37.9567 135.461 37.8444 135.355 37.6848C135.251 37.5281 135.198 37.3479 135.198 37.1439C135.198 36.9223 135.254 36.7331 135.366 36.5735C135.479 36.4139 135.635 36.2957 135.833 36.2159C136.031 36.1361 136.297 36.0977 136.631 36.0977C136.983 36.0977 137.243 36.1272 137.412 36.1893C137.58 36.2513 137.719 36.3459 137.831 36.473C137.944 36.6001 138.038 36.7745 138.112 36.9932L137.036 37.1144C137.01 37.008 136.962 36.9282 136.897 36.8779C136.809 36.8099 136.699 36.7774 136.575 36.7774C136.448 36.7774 136.354 36.804 136.294 36.8543C136.235 36.9045 136.206 36.9695 136.206 37.0405C136.206 37.1232 136.244 37.1853 136.318 37.2267C136.392 37.2681 136.554 37.3065 136.803 37.339C137.178 37.3863 137.459 37.4543 137.642 37.54C137.825 37.6257 137.967 37.7498 138.065 37.9094C138.162 38.069 138.21 38.2463 138.21 38.4355C138.21 38.6276 138.159 38.8168 138.056 39C137.952 39.1833 137.79 39.3281 137.568 39.4374C137.347 39.5468 137.045 39.6 136.661 39.6C136.12 39.6 135.736 39.5113 135.508 39.3369C135.281 39.1685 135.136 38.9202 135.071 38.5981Z" fill="#071C2E"/>
<path d="M139.785 37.2611L138.703 37.1311C138.744 36.9153 138.803 36.7469 138.88 36.6227C138.957 36.4986 139.069 36.3922 139.214 36.3035C139.318 36.2385 139.46 36.1883 139.643 36.1528C139.826 36.1173 140.021 36.0996 140.234 36.0996C140.574 36.0996 140.846 36.1203 141.053 36.1646C141.259 36.209 141.431 36.2976 141.567 36.4336C141.664 36.5282 141.738 36.6612 141.794 36.8355C141.851 37.0099 141.877 37.1754 141.877 37.3321V38.8128C141.877 38.9695 141.886 39.0936 141.904 39.1852C141.922 39.2739 141.96 39.3891 142.019 39.5281H140.955C140.914 39.4423 140.884 39.3773 140.872 39.33C140.86 39.2857 140.846 39.2148 140.834 39.1172C140.686 39.2798 140.538 39.3951 140.391 39.466C140.19 39.5576 139.956 39.6049 139.693 39.6049C139.341 39.6049 139.072 39.5133 138.889 39.3271C138.706 39.1409 138.614 38.9133 138.614 38.6414C138.614 38.3872 138.679 38.1774 138.812 38.0119C138.945 37.8463 139.188 37.7252 139.542 37.6454C139.968 37.5478 140.243 37.4799 140.37 37.4414C140.497 37.403 140.63 37.3528 140.772 37.2877C140.772 37.1311 140.742 37.0188 140.686 36.9567C140.63 36.8947 140.526 36.8621 140.382 36.8621C140.195 36.8621 140.057 36.8947 139.965 36.9626C139.888 37.0158 139.829 37.1163 139.785 37.2611ZM140.766 37.938C140.609 38 140.447 38.0562 140.278 38.1064C140.048 38.1774 139.903 38.2453 139.841 38.3104C139.779 38.3813 139.746 38.4581 139.746 38.5468C139.746 38.6473 139.779 38.7301 139.841 38.7951C139.903 38.8601 139.994 38.8926 140.116 38.8926C140.243 38.8926 140.358 38.8571 140.467 38.7892C140.577 38.7182 140.654 38.6355 140.698 38.535C140.742 38.4345 140.766 38.3045 140.766 38.1449V37.938Z" fill="#071C2E"/>
<path d="M130.7 21.418L130.685 21.4426H130.679C130.688 21.4334 130.694 21.4272 130.7 21.418Z" fill="#EA8316"/>
<path d="M131.019 21.6387C131.019 21.6418 131.016 21.6481 131.016 21.6512C131.016 21.6481 131.013 21.6481 131.013 21.6481L131.019 21.6387Z" fill="#EA8316"/>
<path d="M127.919 25.7422L127.629 26.1855C127.632 26.1796 127.635 26.1767 127.638 26.1707C127.732 26.0289 127.824 25.887 127.919 25.7422Z" fill="#EA8316"/>
<path d="M131.237 30.7258L133.149 33.5661C133.194 33.5543 133.244 33.5484 133.294 33.5484C133.587 33.5513 133.823 33.7907 133.82 34.0833C133.817 34.3759 133.578 34.6094 133.285 34.6065C132.993 34.6035 132.756 34.3641 132.759 34.0715C132.759 33.9621 132.795 33.8617 132.851 33.7789L130.953 30.9563C130.9 30.9741 130.841 30.9859 130.779 30.9829C130.486 30.98 130.25 30.7406 130.253 30.448C130.256 30.1554 130.495 29.9189 130.788 29.9219C131.081 29.9249 131.317 30.1643 131.314 30.4569C131.311 30.5573 131.284 30.649 131.237 30.7258Z" fill="#EA8316"/>
<path d="M133.8 37.419C133.8 37.7116 133.564 37.948 133.271 37.948C132.978 37.948 132.742 37.7116 132.742 37.419C132.742 37.3244 132.766 37.2357 132.81 37.1589L127.644 29.4065H129.849L129.583 29.0163L129.58 29.0134C129.24 28.508 128.888 28.0055 128.542 27.5031C128.303 27.1573 128.063 26.8085 127.821 26.4627L127.599 26.1583L127.641 26.0962L127.933 25.6499L127.995 25.5524C128.072 25.4342 128.149 25.316 128.226 25.1948C128.504 24.7633 128.776 24.3288 129.054 23.8973C129.237 23.6136 129.423 23.3328 129.606 23.052L129.695 22.8954L129.71 22.8717H129.184C128.699 22.8717 128.214 22.8717 127.729 22.8747H127.57C127.676 22.7121 127.768 22.5643 127.865 22.4195C128.114 22.0383 128.362 21.6599 128.61 21.2787C128.811 20.9713 129.015 20.6639 129.216 20.3595C129.399 20.0817 129.586 19.8039 129.769 19.5231L129.778 19.5113L130.094 19.0059L130.236 19.0088C130.963 19.0088 131.69 19.0088 132.42 19.0088C132.467 19.0088 132.514 19.0088 132.559 19.0088H132.668L132.627 19.0738L132.535 19.2187C132.408 19.4137 132.284 19.6058 132.157 19.8009L131.06 21.521L131.054 21.5299L131.057 21.5329C131.119 21.6215 131.158 21.7279 131.158 21.8461C131.158 22.0176 131.075 22.1713 130.951 22.2688C130.859 22.3397 130.747 22.3811 130.623 22.3811C130.345 22.3811 130.118 22.1713 130.091 21.9023V21.8993C130.091 21.8964 130.091 21.8934 130.091 21.8875C130.091 21.8816 130.091 21.8757 130.091 21.8727V21.8668C130.091 21.7161 130.147 21.5654 130.253 21.4619C130.28 21.4353 130.31 21.4146 130.339 21.3939C130.348 21.388 130.357 21.3821 130.366 21.3792C130.443 21.3348 130.531 21.3112 130.623 21.3112C130.655 21.3112 130.688 21.3141 130.717 21.3201H130.723L130.738 21.2964L130.753 21.2728C131.022 20.8708 131.285 20.4659 131.536 20.0551C131.607 19.9398 131.684 19.8245 131.761 19.7122L131.764 19.7093L131.985 19.4019H130.316L130.12 19.6679C129.955 19.9191 129.789 20.1703 129.624 20.4216C129.379 20.7969 129.133 21.1693 128.891 21.5447C128.728 21.7929 128.566 22.0442 128.403 22.2924L128.264 22.4875H129.81C129.946 22.4875 130.085 22.4875 130.221 22.4875C130.23 22.4875 130.236 22.4875 130.245 22.4875H130.443L130.185 22.8599C129.934 23.253 129.677 23.6461 129.426 24.0392C129.13 24.5002 128.838 24.9613 128.545 25.4194L128.087 26.1465L128.592 26.9179C128.687 27.0568 128.779 27.1957 128.87 27.3317C129.03 27.574 129.204 27.8075 129.373 28.0499C129.639 28.4282 129.896 28.8124 130.159 29.1937C130.259 29.3385 130.363 29.4833 130.463 29.6281L130.49 29.6665L130.582 29.7966H128.409L133.188 36.8929C133.215 36.8899 133.242 36.887 133.271 36.887C133.564 36.8899 133.8 37.1264 133.8 37.419Z" fill="#EA8316"/>
<path d="M129.476 34.0359C129.476 34.3314 129.236 34.5708 128.941 34.5708C128.645 34.5708 128.406 34.3314 128.406 34.0359C128.406 33.9443 128.43 33.8586 128.471 33.7817L125.77 29.4991C125.77 29.4991 125.273 30.2971 125.066 30.6311C124.915 30.8734 124.762 31.1188 124.611 31.3611C124.425 31.6626 124.245 31.967 124.058 32.2655C123.899 32.5226 123.736 32.7798 123.577 33.0369C123.364 33.3857 123.145 33.7374 122.938 34.0891C122.897 34.163 122.838 34.163 122.764 34.163H118.224C118.183 34.163 118.118 34.1837 118.1 34.1364C118.085 34.098 118.118 34.0566 118.141 34.0182C118.57 33.3768 119.001 32.7354 119.43 32.0941C119.569 31.8872 119.717 31.6862 119.85 31.4793C120.068 31.1365 120.287 30.7966 120.512 30.4567C120.719 30.1464 120.922 29.836 121.126 29.5257C121.369 29.1563 121.611 28.7868 121.856 28.4174C122.054 28.1189 122.255 27.8233 122.456 27.5248C122.779 27.046 123.095 26.5672 123.414 26.0884C123.447 26.0411 123.438 25.9938 123.411 25.9524C123.183 25.6037 122.953 25.2608 122.728 24.9091C122.43 24.454 122.134 23.9988 121.839 23.5437C121.608 23.1949 121.375 22.8521 121.147 22.5033C120.807 21.9831 120.473 21.46 120.136 20.9428C119.897 20.5792 119.652 20.2187 119.412 19.8551C119.229 19.5773 119.043 19.2965 118.862 19.0158C118.8 18.9212 118.824 18.8857 118.945 18.8857C120.497 18.8857 122.046 18.8857 123.597 18.8828C123.662 18.8828 123.695 18.8946 123.724 18.9655C123.798 19.1133 123.899 19.2492 123.979 19.397C124.23 19.8492 124.484 20.3014 124.738 20.7536C124.827 20.9132 124.918 21.0758 125.013 21.2354L125.775 22.5092C125.908 22.2669 126.039 22.0245 126.172 21.7792C126.381 21.3979 126.585 21.0108 126.789 20.6295C126.91 20.4019 127.032 20.1773 127.153 19.9497C127.295 19.6808 127.436 19.4148 127.578 19.1517C127.596 19.1162 127.617 19.0808 127.637 19.0453L127.643 19.0364C127.652 19.0217 127.661 19.0069 127.667 18.9921L127.717 18.9005L127.723 18.8887H128.447C128.462 18.8532 128.48 18.8207 128.501 18.7911C128.509 18.7793 128.515 18.7675 128.524 18.7586C128.622 18.6345 128.772 18.5547 128.944 18.5547C129.239 18.5547 129.479 18.7941 129.479 19.0896C129.479 19.1783 129.458 19.264 129.417 19.3379C129.414 19.3438 129.411 19.3497 129.408 19.3556L129.402 19.3675C129.399 19.3704 129.399 19.3734 129.396 19.3763C129.393 19.3822 129.39 19.3882 129.384 19.3911C129.381 19.397 129.375 19.4029 129.372 19.4088C129.366 19.4148 129.364 19.4207 129.358 19.4266C129.355 19.4295 129.352 19.4354 129.349 19.4384C129.349 19.4384 129.346 19.4414 129.346 19.4443C129.343 19.4473 129.34 19.4502 129.337 19.4532C129.334 19.4561 129.328 19.462 129.325 19.465C129.322 19.468 129.316 19.4739 129.313 19.4768C129.31 19.4798 129.304 19.4857 129.301 19.4886C129.299 19.4916 129.293 19.4975 129.29 19.5005C129.287 19.5034 129.281 19.5064 129.278 19.5093C129.26 19.5241 129.239 19.5389 129.219 19.5507C129.216 19.5537 129.213 19.5537 129.21 19.5566C129.198 19.5625 129.186 19.5684 129.174 19.5744C129.171 19.5773 129.168 19.5773 129.163 19.5803C129.157 19.5832 129.151 19.5862 129.145 19.5891C129.142 19.5891 129.139 19.5921 129.136 19.5921C129.127 19.595 129.118 19.598 129.109 19.601C129.103 19.6039 129.098 19.6039 129.095 19.6069C129.089 19.6098 129.083 19.6098 129.077 19.6098C129.071 19.6098 129.065 19.6128 129.059 19.6128C129.053 19.6128 129.047 19.6157 129.041 19.6157C129.035 19.6157 129.032 19.6157 129.027 19.6187C129.024 19.6187 129.021 19.6187 129.018 19.6187C129.009 19.6187 129 19.6216 128.991 19.6216C128.988 19.6216 128.985 19.6216 128.982 19.6216C128.979 19.6216 128.973 19.6216 128.97 19.6216C128.965 19.6216 128.959 19.6216 128.953 19.6216C128.947 19.6216 128.941 19.6216 128.935 19.6216C128.932 19.6216 128.929 19.6216 128.926 19.6216C128.92 19.6216 128.914 19.6216 128.908 19.6216C128.902 19.6216 128.897 19.6216 128.888 19.6187C128.882 19.6187 128.873 19.6157 128.867 19.6157C128.861 19.6157 128.852 19.6128 128.846 19.6128C128.84 19.6128 128.834 19.6098 128.829 19.6098C128.817 19.6069 128.805 19.6039 128.793 19.601C128.79 19.601 128.787 19.598 128.784 19.598C128.775 19.595 128.764 19.5921 128.755 19.5862C128.752 19.5862 128.749 19.5832 128.746 19.5832C128.74 19.5803 128.737 19.5803 128.731 19.5773C128.725 19.5744 128.719 19.5714 128.713 19.5684C128.713 19.5684 128.713 19.5684 128.71 19.5684C128.704 19.5655 128.699 19.5625 128.696 19.5596C128.693 19.5566 128.687 19.5537 128.684 19.5537C128.681 19.5507 128.675 19.5478 128.672 19.5478C128.663 19.5418 128.651 19.5359 128.642 19.5271C128.639 19.5241 128.636 19.5212 128.631 19.5182C128.628 19.5152 128.628 19.5152 128.625 19.5123C128.622 19.5093 128.616 19.5064 128.613 19.5034C128.607 19.5005 128.604 19.4946 128.598 19.4916C128.595 19.4886 128.589 19.4857 128.586 19.4798L128.583 19.4768C128.58 19.4739 128.574 19.468 128.571 19.465C128.568 19.4591 128.563 19.4561 128.56 19.4502C128.551 19.4414 128.542 19.4295 128.533 19.4177C128.53 19.4118 128.527 19.4088 128.521 19.4029C128.521 19.4029 128.521 19.4029 128.521 19.4C128.518 19.3941 128.512 19.3882 128.509 19.3822C128.506 19.3793 128.503 19.3734 128.501 19.3675L128.498 19.3645C128.492 19.3527 128.486 19.3409 128.48 19.329C128.474 19.3172 128.468 19.3054 128.462 19.2906C128.459 19.2847 128.456 19.2788 128.456 19.2729H127.96L127.951 19.2906L127.765 19.6276V19.6305C127.676 19.796 127.587 19.9615 127.499 20.127L127.236 20.6236C127.135 20.8039 127.032 20.9842 126.931 21.1615C126.751 21.4896 126.594 21.8294 126.405 22.1546C126.219 22.4767 126.059 22.8136 125.87 23.1358C125.829 23.2038 125.79 23.2806 125.793 23.3693C125.796 24.0254 125.793 24.6786 125.796 25.3347C125.796 25.3377 125.796 25.3406 125.796 25.3436V25.453L125.823 25.4145C125.841 25.3879 125.858 25.3643 125.876 25.3377L125.903 25.2963C126.015 25.1308 126.127 24.9653 126.237 24.8027C126.44 24.4954 126.636 24.188 126.839 23.8806C126.875 23.8244 126.91 23.7742 126.925 23.7151C126.869 23.6323 126.839 23.5318 126.839 23.4225C126.839 23.2718 126.902 23.1358 127.005 23.0383C127.103 22.9466 127.233 22.8875 127.374 22.8875C127.67 22.8875 127.909 23.1269 127.909 23.4225C127.909 23.4461 127.906 23.4668 127.906 23.4905C127.874 23.7535 127.649 23.9545 127.377 23.9545C127.339 23.9545 127.303 23.9515 127.268 23.9427C127.25 23.9545 127.233 23.9693 127.221 23.99C126.981 24.3653 126.733 24.7288 126.488 25.1012C126.446 25.1663 126.402 25.2313 126.361 25.2963V25.2993L125.956 25.9643L126.328 26.5731C126.553 26.8982 126.777 27.2204 127.002 27.5425C127.105 27.6933 127.212 27.841 127.306 27.9947C127.315 28.0095 127.321 28.0184 127.33 28.0272C127.374 28.0154 127.419 28.0095 127.466 28.0095C127.762 28.0095 128.001 28.2489 128.001 28.5445C128.001 28.5474 128.001 28.5533 128.001 28.5563C127.995 28.8459 127.759 29.0794 127.466 29.0794C127.327 29.0794 127.2 29.0262 127.105 28.9376C126.999 28.84 126.931 28.7011 126.931 28.5445C126.931 28.441 126.961 28.3464 127.011 28.2637C127.002 28.2282 126.984 28.1928 126.961 28.1573C126.612 27.646 126.266 27.1376 125.92 26.6263L125.799 26.4401V27.7258C125.799 27.9268 125.799 28.1248 125.799 28.3228V28.7129L126.015 29.044L128.864 33.498C128.897 33.4921 128.932 33.4891 128.967 33.4891C129.239 33.5009 129.476 33.7403 129.476 34.0359Z" fill="#EA8316"/>
</svg>
