<svg width="195" height="30" viewBox="0 0 195 30" fill="none" xmlns="http://www.w3.org/2000/svg">
<g clip-path="url(#clip0_4262_1053)">
<path d="M0 0.371094H4.97032V8.64108L10.1755 0.371094H16.7862L10.918 8.62971L17.0514 22.2526H10.9294L7.53883 13.2515L4.97032 16.9111V22.2526H0V0.371094Z" fill="#EA8316"/>
<path d="M18.7297 0.371094H23.3705L29.4281 12.4787V0.371094H34.1143V22.2526H29.4281L23.4046 10.236V22.2526H18.7297V0.371094Z" fill="#EA8316"/>
<path d="M36.7887 11.331C36.7887 7.75855 37.5199 4.9779 38.9822 2.98523C40.4445 0.996338 42.4826 0 45.0928 0C47.703 0 49.832 0.977396 51.2792 2.93219C52.7263 4.88698 53.4499 7.62596 53.4499 11.1491C53.4499 13.7063 53.1355 15.805 52.5028 17.4416C51.8701 19.0782 50.9572 20.3511 49.76 21.264C48.5629 22.1733 47.0741 22.6279 45.2898 22.6279C43.5055 22.6279 41.975 22.2339 40.7854 21.4497C39.5959 20.6655 38.6336 19.4191 37.8949 17.7181C37.1562 16.0172 36.7849 13.8881 36.7849 11.331H36.7887ZM41.759 11.3613C41.759 13.5699 42.0621 15.1572 42.6644 16.1232C43.2668 17.0893 44.0889 17.5704 45.1269 17.5704C46.1649 17.5704 47.0211 17.0969 47.6082 16.1536C48.1917 15.2065 48.4871 13.5131 48.4871 11.062C48.4871 9.00114 48.1803 7.49716 47.5704 6.54628C46.9604 5.5954 46.1308 5.12186 45.0852 5.12186C44.0396 5.12186 43.2782 5.60298 42.672 6.56901C42.0659 7.53504 41.7628 9.12994 41.7628 11.3613H41.759Z" fill="#EA8316"/>
<path d="M54.0901 0.371094H58.8104L60.5114 12.6226L63.0003 0.371094H67.7054L70.1982 12.6037L71.8992 0.371094H76.5967L73.0508 22.2526H68.1752L65.3529 8.47439L62.5419 22.2526H57.6663L54.0901 0.371094Z" fill="#EA8316"/>
<path d="M78.2183 0.371094H83.1886V16.8656H90.9471V22.2526H78.2183V0.371094Z" fill="#EA8316"/>
<path d="M93.1936 0.371094H106.513V5.04214H98.1753V8.51985H105.911V12.9825H98.1753V17.2975H106.756V22.2526H93.1936V0.371094Z" fill="#EA8316"/>
<path d="M109.499 0.371094H116.882C118.337 0.371094 119.515 0.640067 120.409 1.17801C121.303 1.71596 122.046 2.485 122.629 3.4927C123.213 4.49661 123.637 5.66722 123.902 7.00072C124.167 8.33422 124.296 9.74728 124.296 11.2399C124.296 13.5773 124.099 15.3919 123.709 16.68C123.319 17.968 122.773 19.0477 122.08 19.919C121.387 20.7903 120.64 21.37 119.841 21.6579C118.75 22.0556 117.765 22.2564 116.878 22.2564H109.495V0.371094H109.499ZM114.469 5.32626V17.2823H115.685C116.723 17.2823 117.462 17.127 117.901 16.8126C118.341 16.4981 118.685 15.9526 118.932 15.1722C119.182 14.3918 119.303 13.1265 119.303 11.3725C119.303 9.05401 119.026 7.46669 118.469 6.61052C117.913 5.75435 116.992 5.32626 115.704 5.32626H114.465H114.469Z" fill="#EA8316"/>
<path d="M134.998 14.3314V9.77775H142.677V19.1085C141.207 20.4723 139.908 21.4004 138.775 21.8929C137.646 22.3854 136.305 22.6316 134.756 22.6316C132.846 22.6316 131.289 22.1884 130.088 21.3019C128.884 20.4155 127.952 19.0971 127.289 17.3469C126.626 15.5967 126.296 13.585 126.296 11.3158C126.296 8.92916 126.66 6.84935 127.383 5.08398C128.107 3.3186 129.168 1.97752 130.566 1.06074C131.657 0.356106 133.123 0 134.964 0C136.805 0 138.07 0.219725 138.953 0.655386C139.836 1.09484 140.567 1.77295 141.146 2.69352C141.73 3.61409 142.166 4.78091 142.457 6.19396L137.661 7.35699C137.464 6.53113 137.131 5.89847 136.657 5.46281C136.184 5.02336 135.585 4.80743 134.854 4.80743C133.763 4.80743 132.895 5.32264 132.248 6.35308C131.6 7.38351 131.278 9.0125 131.278 11.2401C131.278 13.6078 131.604 15.3012 132.259 16.3165C132.914 17.3317 133.827 17.8394 134.998 17.8394C135.555 17.8394 136.085 17.7295 136.589 17.5098C137.093 17.2901 137.673 16.9188 138.324 16.3884V14.3276H134.998V14.3314Z" fill="#EA8316"/>
<path d="M145.617 0.371094H158.937V5.04214H150.599V8.51985H158.334V12.9825H150.599V17.2975H159.179V22.2526H145.617V0.371094Z" fill="#EA8316"/>
<path d="M184.413 28.5608L186.02 28.3903C186.084 28.6063 186.179 28.7616 186.296 28.8563C186.414 28.951 186.573 28.9965 186.774 28.9965C186.99 28.9965 187.16 28.9434 187.277 28.8374C187.368 28.7578 187.418 28.6631 187.418 28.5457C187.418 28.4131 187.357 28.3108 187.236 28.2388C187.149 28.1896 186.918 28.1252 186.539 28.0494C185.978 27.9395 185.588 27.8372 185.368 27.7425C185.148 27.6478 184.967 27.4887 184.815 27.2614C184.663 27.0341 184.592 26.7803 184.592 26.4886C184.592 26.1742 184.671 25.9014 184.834 25.6741C184.997 25.4468 185.217 25.2763 185.501 25.1627C185.785 25.049 186.164 24.9922 186.641 24.9922C187.145 24.9922 187.516 25.0376 187.755 25.1248C187.993 25.2119 188.194 25.3483 188.353 25.5301C188.512 25.712 188.645 25.962 188.751 26.2764L187.217 26.4469C187.179 26.2954 187.111 26.1817 187.02 26.1098C186.891 26.015 186.74 25.9658 186.558 25.9658C186.376 25.9658 186.243 26.0037 186.16 26.0757C186.077 26.1476 186.035 26.2386 186.035 26.3446C186.035 26.4621 186.088 26.5492 186.194 26.6098C186.3 26.6704 186.531 26.7235 186.887 26.7727C187.425 26.8409 187.827 26.9394 188.088 27.0606C188.35 27.1819 188.55 27.3599 188.691 27.5872C188.831 27.8145 188.899 28.0683 188.899 28.3411C188.899 28.6139 188.827 28.8866 188.679 29.148C188.531 29.4094 188.3 29.6178 187.982 29.7731C187.664 29.9284 187.232 30.0042 186.686 30.0042C185.914 30.0042 185.364 29.8792 185.039 29.6291C184.713 29.3791 184.501 29.023 184.41 28.5646L184.413 28.5608Z" fill="#EA8316"/>
<path d="M191.149 26.6515L189.603 26.4659C189.66 26.159 189.747 25.9165 189.857 25.7423C189.967 25.568 190.126 25.4127 190.331 25.2839C190.479 25.1892 190.683 25.1172 190.944 25.068C191.206 25.0187 191.486 24.9922 191.789 24.9922C192.274 24.9922 192.664 25.0225 192.96 25.0831C193.255 25.1437 193.498 25.2725 193.695 25.4695C193.831 25.6059 193.941 25.7953 194.021 26.0454C194.1 26.2954 194.138 26.5303 194.138 26.7576V28.8753C194.138 29.1026 194.149 29.2768 194.176 29.4056C194.202 29.5344 194.256 29.6973 194.343 29.8943H192.823C192.763 29.7693 192.721 29.6784 192.706 29.614C192.687 29.5496 192.668 29.4473 192.649 29.3109C192.437 29.542 192.225 29.7087 192.017 29.8072C191.729 29.9398 191.399 30.0042 191.02 30.0042C190.516 30.0042 190.134 29.8716 189.872 29.6064C189.611 29.3412 189.482 29.0154 189.482 28.629C189.482 28.2653 189.577 27.966 189.766 27.7312C189.956 27.4963 190.3 27.322 190.808 27.2084C191.414 27.0682 191.808 26.9735 191.99 26.9167C192.172 26.8598 192.361 26.7879 192.562 26.6969C192.562 26.4696 192.52 26.3143 192.437 26.2234C192.354 26.1325 192.21 26.087 192.005 26.087C191.74 26.087 191.543 26.1363 191.41 26.231C191.308 26.3067 191.225 26.4469 191.16 26.6553L191.149 26.6515ZM192.555 27.6175C192.331 27.7084 192.1 27.788 191.857 27.8562C191.528 27.9547 191.32 28.0532 191.232 28.1479C191.141 28.2464 191.096 28.36 191.096 28.4851C191.096 28.629 191.141 28.7464 191.229 28.8412C191.316 28.9321 191.448 28.9775 191.619 28.9775C191.789 28.9775 191.967 28.9283 192.123 28.8298C192.278 28.7313 192.388 28.6101 192.452 28.4661C192.517 28.3222 192.551 28.1365 192.551 27.9092V27.6175H192.555Z" fill="#EA8316"/>
<path d="M171.135 5.74717C171.321 5.40243 171.51 5.05769 171.696 4.71295C171.988 4.17122 172.279 3.62569 172.571 3.08017C172.946 2.38311 173.317 1.68226 173.689 0.985207C173.749 0.875345 173.814 0.769271 173.87 0.659409C173.912 0.579853 173.988 0.602583 174.056 0.598795C174.359 0.58743 174.662 0.560911 174.965 0.598795C175.177 0.625313 175.272 0.568488 175.344 0.416954C175.446 0.189652 175.75 0.000234444 176.003 0.0305413C176.363 0.0760016 176.674 0.33361 176.689 0.792001C176.7 1.23145 176.375 1.5724 175.981 1.58756C175.712 1.59892 175.503 1.45875 175.367 1.2466C175.299 1.14432 175.257 1.11022 175.041 1.15568C174.863 1.19357 174.681 1.19736 174.503 1.15568C174.287 1.10643 174.215 1.13674 174.151 1.25418C173.833 1.86032 173.503 2.46645 173.181 3.0688C173.045 3.32641 172.893 3.58023 172.749 3.83405C172.492 4.30002 172.268 4.78114 172.003 5.24332C171.738 5.70171 171.514 6.17526 171.245 6.63365C171.188 6.72836 171.135 6.83822 171.135 6.96323C171.139 7.89138 171.135 8.82332 171.139 9.75146C171.139 9.78556 171.124 9.82344 171.177 9.86512C171.374 9.57341 171.571 9.2855 171.764 8.99758C172.052 8.56571 172.329 8.12626 172.617 7.69439C172.711 7.55043 172.795 7.42541 172.723 7.22463C172.605 6.9102 172.723 6.61471 172.954 6.36846C173.162 6.14874 173.7 6.18283 173.889 6.41771C174.223 6.83064 174.227 7.15265 173.893 7.55801C173.757 7.72469 173.556 7.76637 173.34 7.75121C173.264 7.74742 173.192 7.78531 173.147 7.8535C172.81 8.38387 172.454 8.90287 172.109 9.42945C171.893 9.75525 171.685 10.0848 171.438 10.3917C171.226 10.6531 171.427 10.8539 171.563 11.0584C171.984 11.6722 172.412 12.2821 172.836 12.8958C172.984 13.1079 173.128 13.3163 173.268 13.536C173.306 13.5966 173.333 13.6118 173.405 13.6004C174.03 13.5095 174.329 14.0588 174.234 14.521C174.143 14.9605 173.639 15.2635 173.238 15.0627C172.931 14.9074 172.692 14.574 172.84 14.1081C172.882 13.9717 172.851 13.8732 172.779 13.7633C172.26 13.0019 171.745 12.2404 171.226 11.479C171.211 11.4562 171.192 11.4259 171.131 11.4335C171.131 12.0055 171.131 12.5814 171.131 13.1572C171.131 13.5966 171.131 14.0361 171.131 14.4755C171.131 14.5703 171.154 14.6612 171.203 14.7407C171.548 15.2711 171.901 15.7977 172.245 16.3318C172.738 17.0895 173.234 17.8472 173.715 18.6124C173.988 19.0481 174.264 19.48 174.545 19.9118C174.855 20.3967 175.181 20.8741 175.484 21.3628C175.526 21.431 175.568 21.4385 175.64 21.4385C176.329 21.4575 176.53 22.2076 176.287 22.6243C176.026 23.0675 175.454 23.0524 175.185 22.8213C174.969 22.6357 174.844 22.2265 174.98 21.9651C175.087 21.7606 175.022 21.6166 174.908 21.4461C174.56 20.9195 174.227 20.3816 173.882 19.8474C173.598 19.408 173.306 18.9761 173.022 18.5405C172.692 18.029 172.366 17.5176 172.037 17.0062C171.768 16.5894 171.499 16.1727 171.234 15.756C171.173 15.6613 171.116 15.6575 171.056 15.756C170.749 16.2599 170.442 16.7599 170.131 17.2638C169.919 17.6085 169.7 17.9533 169.487 18.298C169.226 18.7223 168.968 19.1504 168.707 19.5785C168.483 19.9421 168.249 20.3058 168.025 20.6695C167.718 21.1658 167.415 21.6621 167.12 22.1621C167.055 22.2682 166.972 22.2682 166.87 22.2682C165.574 22.2682 164.278 22.2682 162.979 22.2682C162.13 22.2682 161.282 22.2682 160.433 22.2682C160.373 22.2682 160.282 22.3023 160.255 22.2303C160.232 22.1773 160.278 22.1167 160.316 22.0636C160.926 21.1544 161.536 20.2452 162.142 19.336C162.335 19.0443 162.547 18.7602 162.736 18.4685C163.047 17.9836 163.358 17.4987 163.676 17.0137C163.964 16.5743 164.259 16.1348 164.547 15.6954C164.892 15.1726 165.233 14.646 165.578 14.1232C165.858 13.6989 166.146 13.2784 166.43 12.8541C166.885 12.176 167.336 11.4941 167.786 10.816C167.832 10.7478 167.824 10.6872 167.786 10.6266C167.464 10.1341 167.139 9.6416 166.817 9.14912C166.396 8.5051 165.979 7.85729 165.555 7.21327C165.229 6.72078 164.9 6.23208 164.574 5.73581C164.093 5.00087 163.619 4.25835 163.142 3.52341C162.805 3.00819 162.46 2.49676 162.119 1.98533C161.858 1.59134 161.596 1.19357 161.339 0.795789C161.251 0.663197 161.286 0.61016 161.456 0.61016C163.653 0.61016 165.854 0.61016 168.052 0.61016C168.146 0.61016 168.184 0.629102 168.233 0.723811C168.339 0.93217 168.48 1.12538 168.593 1.33374C168.946 1.97776 169.306 2.61799 169.665 3.25822C169.851 3.58402 170.037 3.90982 170.222 4.23941C170.472 4.68643 170.722 5.12967 170.976 5.5767C171.01 5.6411 171.033 5.71686 171.139 5.75096L171.135 5.74717Z" fill="#EA8316"/>
<path d="M177.462 16.8074C177.439 16.4172 177.822 16.0648 178.121 16.0308C178.549 15.9853 178.992 16.402 178.913 16.8301C178.856 17.1407 178.939 17.368 179.114 17.6067C179.341 17.9174 179.557 18.2356 179.773 18.55C180.152 19.1031 180.53 19.6562 180.909 20.2131C181.171 20.5957 181.436 20.9746 181.701 21.3572C181.739 21.4102 181.781 21.4519 181.864 21.4443C182.47 21.3875 182.8 22.0921 182.58 22.5505C182.368 22.99 182.019 23.0392 181.629 22.9483C181.417 22.899 181.326 22.7021 181.243 22.5278C181.159 22.3459 181.144 22.1452 181.231 21.9671C181.311 21.8042 181.277 21.6754 181.182 21.539C180.822 21.0238 180.462 20.5086 180.106 19.9896C179.648 19.3228 179.193 18.6523 178.735 17.9818C178.663 17.8757 178.591 17.7658 178.507 17.6635C178.447 17.5878 178.371 17.5385 178.204 17.5878C177.954 17.6597 177.576 17.3302 177.5 17.0385C177.481 16.9627 177.473 16.8793 177.462 16.7998V16.8074Z" fill="#EA8316"/>
<path d="M182.421 27.2009C181.872 26.3902 177.034 20.2114 176.485 19.4007C176.064 18.7832 175.636 18.1695 175.215 17.552C174.765 16.889 174.318 16.2222 173.852 15.529H176.86C176.844 15.3509 176.716 15.2448 176.636 15.1274C176.117 14.3584 175.587 13.5931 175.06 12.8279C174.643 12.2217 174.227 11.6156 173.802 11.017C173.749 10.9413 173.749 10.8882 173.795 10.8163C174.068 10.3995 174.344 9.97903 174.613 9.55852C175.007 8.94481 175.39 8.33109 175.784 7.71738C176.064 7.2855 176.348 6.85363 176.628 6.42176C176.655 6.38009 176.716 6.3422 176.693 6.29296C176.663 6.23613 176.587 6.25886 176.534 6.25886C175.659 6.25886 174.784 6.25886 173.908 6.25886C173.844 6.25886 173.776 6.25886 173.681 6.25886C173.829 6.02777 173.961 5.81941 174.098 5.61105C174.45 5.0731 174.799 4.53137 175.155 3.99342C175.439 3.55776 175.727 3.1221 176.015 2.69023C176.348 2.18638 176.685 1.68631 177.007 1.17867C177.079 1.06123 177.185 0.966526 177.231 0.830145C177.25 0.769531 177.326 0.769531 177.386 0.769531C178.508 0.769531 179.633 0.769531 180.754 0.769531C180.89 0.769531 180.883 0.81878 180.83 0.902124C180.5 1.41355 180.167 1.92119 179.837 2.43262C179.485 2.97814 179.14 3.52746 178.788 4.07298C178.765 4.10707 178.739 4.14117 178.712 4.17526C178.625 4.28513 178.595 4.38741 178.651 4.53137C178.822 4.97082 178.614 5.36102 178.303 5.51255C177.81 5.75501 177.28 5.41027 177.257 4.86475C177.242 4.44045 177.538 3.99721 178.064 4.0654C178.144 4.07677 178.163 4.02752 178.197 3.97827C178.58 3.41002 178.951 2.83797 179.307 2.25457C179.451 2.01969 179.61 1.79239 179.765 1.5613C179.815 1.48932 179.871 1.42113 179.864 1.31505C179.117 1.31505 178.375 1.31505 177.636 1.31505C177.553 1.31505 177.526 1.3643 177.488 1.42113C177.193 1.87194 176.894 2.32276 176.598 2.77357C176.25 3.30394 175.901 3.83431 175.556 4.36847C175.295 4.77004 175.034 5.1716 174.772 5.57696C174.749 5.61105 174.693 5.64136 174.727 5.68682C174.757 5.7247 174.814 5.70576 174.859 5.70576C175.723 5.70576 176.583 5.70197 177.447 5.70197C177.53 5.70197 177.644 5.66409 177.685 5.73607C177.723 5.80047 177.629 5.86487 177.587 5.92549C177.166 6.58466 176.738 7.24004 176.318 7.89922C175.856 8.61901 175.397 9.34637 174.935 10.0662C174.787 10.2972 174.636 10.5321 174.473 10.7556C174.401 10.8579 174.405 10.9299 174.473 11.036C174.818 11.555 175.185 12.0626 175.53 12.5816C175.757 12.9264 176.007 13.2597 176.242 13.5969C176.617 14.1349 176.985 14.6766 177.356 15.2183C177.515 15.4532 177.682 15.6805 177.845 15.9154C177.871 15.9571 177.932 15.9911 177.901 16.0442C177.871 16.0972 177.807 16.0707 177.757 16.0707C176.848 16.0707 175.939 16.0707 175.03 16.0707C174.992 16.0707 174.954 16.0745 174.882 16.0783C175.39 16.817 175.886 17.5179 176.363 18.2339C176.746 18.8097 177.144 19.3779 177.534 19.95C178.053 20.7114 182.137 25.8295 182.652 26.591" fill="#EA8316"/>
<path d="M182.925 28.2009C183.448 28.2009 183.872 27.8192 183.872 27.3485C183.872 26.8777 183.448 26.4961 182.925 26.4961C182.402 26.4961 181.978 26.8777 181.978 27.3485C181.978 27.8192 182.402 28.2009 182.925 28.2009Z" fill="#EA8316"/>
</g>
<defs>
<clipPath id="clip0_4262_1053">
<rect width="194.335" height="30" fill="white"/>
</clipPath>
</defs>
</svg>
