<svg width="475" height="293" viewBox="0 0 475 293" fill="none" xmlns="http://www.w3.org/2000/svg">
<circle cx="85.662" cy="84.8788" r="82.662" stroke="#EA8316" stroke-width="4.1331"/>
<circle cx="392.338" cy="209.699" r="82.662" fill="#EA8316"/>
<path d="M82.3554 179.941C82.3554 179.484 81.9853 179.114 81.5288 179.114C81.0723 179.114 80.7022 179.484 80.7022 179.941H82.3554ZM391 113.001L395.513 104.591L385.973 104.888L391 113.001ZM80.7604 181.79C80.7899 182.246 81.1831 182.591 81.6387 182.562C82.0942 182.532 82.4397 182.139 82.4102 181.684L80.7604 181.79ZM82.8394 184.826C82.7421 184.38 82.3017 184.097 81.8556 184.195C81.4096 184.292 81.1269 184.732 81.2242 185.178L82.8394 184.826ZM82.2638 188.431C82.4466 188.85 82.9339 189.04 83.3523 188.858C83.7706 188.675 83.9615 188.187 83.7786 187.769L82.2638 188.431ZM85.3272 190.408C85.0489 190.046 84.53 189.978 84.168 190.256C83.8061 190.535 83.7382 191.054 84.0164 191.416L85.3272 190.408ZM86.4607 193.869C86.8211 194.149 87.3404 194.084 87.6207 193.724C87.9009 193.363 87.836 192.844 87.4756 192.564L86.4607 193.869ZM90.1389 194.175C89.725 193.983 89.2333 194.162 89.0405 194.576C88.8477 194.989 89.0268 195.481 89.4407 195.674L90.1389 194.175ZM92.629 196.825C93.0696 196.945 93.5237 196.685 93.6433 196.244C93.7628 195.804 93.5026 195.35 93.062 195.23L92.629 196.825ZM96.2065 195.858C95.7542 195.796 95.3373 196.112 95.2755 196.565C95.2136 197.017 95.5302 197.434 95.9825 197.496L96.2065 195.858ZM99.3078 197.784C99.764 197.803 100.149 197.448 100.168 196.992C100.187 196.536 99.8324 196.151 99.3763 196.132L99.3078 197.784ZM102.686 196.141C102.23 196.156 101.872 196.538 101.887 196.994C101.902 197.45 102.284 197.808 102.741 197.793L102.686 196.141ZM105.983 197.594C106.438 197.554 106.774 197.152 106.734 196.698C106.694 196.243 106.293 195.907 105.838 195.947L105.983 197.594ZM109.185 195.569C108.733 195.631 108.416 196.047 108.477 196.5C108.539 196.952 108.955 197.269 109.408 197.208L109.185 195.569ZM112.627 196.709C113.077 196.631 113.378 196.204 113.301 195.754C113.223 195.304 112.795 195.002 112.345 195.08L112.627 196.709ZM115.536 194.477C115.089 194.568 114.8 195.005 114.892 195.452C114.983 195.899 115.42 196.188 115.868 196.096L115.536 194.477ZM119.231 195.359C119.676 195.255 119.953 194.811 119.849 194.366C119.745 193.922 119.301 193.645 118.856 193.749L119.231 195.359ZM121.955 192.99C121.513 193.104 121.246 193.554 121.359 193.996C121.472 194.438 121.923 194.705 122.365 194.592L121.955 192.99ZM125.54 193.746C125.98 193.624 126.238 193.168 126.116 192.728C125.995 192.288 125.539 192.03 125.099 192.152L125.54 193.746ZM128.334 191.226C127.897 191.356 127.647 191.815 127.776 192.253C127.905 192.691 128.365 192.941 128.803 192.812L128.334 191.226ZM131.958 191.854C132.393 191.718 132.637 191.254 132.501 190.818C132.365 190.383 131.901 190.139 131.466 190.275L131.958 191.854ZM134.543 189.294C134.109 189.435 133.872 189.902 134.013 190.336C134.155 190.77 134.621 191.007 135.055 190.866L134.543 189.294ZM138.218 189.813C138.65 189.666 138.882 189.197 138.735 188.765C138.588 188.332 138.119 188.101 137.687 188.248L138.218 189.813ZM140.894 187.139C140.464 187.291 140.237 187.762 140.389 188.193C140.54 188.624 141.012 188.85 141.443 188.699L140.894 187.139ZM144.472 187.618C144.901 187.462 145.123 186.988 144.968 186.559C144.812 186.13 144.338 185.908 143.909 186.063L144.472 187.618ZM146.972 184.939C146.544 185.098 146.326 185.574 146.485 186.002C146.644 186.43 147.12 186.647 147.548 186.488L146.972 184.939ZM150.672 185.312C151.099 185.15 151.313 184.672 151.15 184.245C150.988 183.819 150.51 183.605 150.083 183.767L150.672 185.312ZM153.226 182.556C152.801 182.722 152.59 183.201 152.756 183.626C152.922 184.052 153.401 184.262 153.826 184.097L153.226 182.556ZM156.834 182.914C157.258 182.745 157.466 182.265 157.297 181.84C157.129 181.416 156.648 181.209 156.224 181.377L156.834 182.914ZM159.259 180.162C158.836 180.333 158.632 180.814 158.802 181.238C158.973 181.661 159.455 181.865 159.879 181.694L159.259 180.162ZM162.958 180.44C163.381 180.267 163.583 179.784 163.409 179.362C163.236 178.939 162.753 178.738 162.331 178.911L162.958 180.44ZM165.436 177.627C165.015 177.802 164.816 178.286 164.991 178.707C165.167 179.129 165.651 179.328 166.072 179.153L165.436 177.627ZM169.075 177.894C169.496 177.716 169.693 177.231 169.515 176.811C169.338 176.39 168.853 176.193 168.432 176.37L169.075 177.894ZM171.439 175.094C171.02 175.273 170.825 175.759 171.004 176.179C171.183 176.599 171.669 176.794 172.089 176.614L171.439 175.094ZM175.129 175.309C175.548 175.128 175.741 174.641 175.56 174.222C175.379 173.803 174.892 173.61 174.473 173.791L175.129 175.309ZM177.533 172.463C177.114 172.646 176.923 173.133 177.106 173.551C177.288 173.97 177.775 174.161 178.194 173.979L177.533 172.463ZM181.224 172.651C181.642 172.467 181.831 171.979 181.647 171.561C181.463 171.144 180.975 170.954 180.558 171.138L181.224 172.651ZM183.542 169.819C183.124 170.004 182.936 170.492 183.121 170.91C183.307 171.327 183.795 171.515 184.212 171.33L183.542 169.819ZM187.221 169.989C187.637 169.803 187.824 169.314 187.638 168.897C187.451 168.481 186.962 168.294 186.545 168.48L187.221 169.989ZM189.568 167.123C189.152 167.311 188.966 167.8 189.154 168.216C189.342 168.633 189.831 168.818 190.247 168.631L189.568 167.123ZM193.291 167.255C193.707 167.066 193.891 166.577 193.703 166.161C193.514 165.745 193.024 165.561 192.608 165.749L193.291 167.255ZM195.586 164.395C195.171 164.585 194.987 165.075 195.177 165.49C195.366 165.906 195.857 166.089 196.272 165.899L195.586 164.395ZM199.258 164.534C199.673 164.344 199.855 163.853 199.665 163.438C199.475 163.023 198.984 162.841 198.569 163.031L199.258 164.534ZM201.566 161.654C201.151 161.845 200.97 162.336 201.161 162.751C201.352 163.165 201.843 163.347 202.257 163.156L201.566 161.654ZM205.269 161.766C205.683 161.574 205.864 161.083 205.672 160.668C205.48 160.254 204.989 160.073 204.575 160.265L205.269 161.766ZM207.584 158.87C207.17 159.062 206.991 159.554 207.183 159.968C207.375 160.382 207.867 160.562 208.281 160.369L207.584 158.87ZM211.256 158.986C211.669 158.793 211.849 158.301 211.656 157.887C211.463 157.473 210.971 157.294 210.557 157.487L211.256 158.986ZM213.539 156.096C213.125 156.289 212.947 156.781 213.14 157.194C213.333 157.608 213.825 157.787 214.239 157.593L213.539 156.096ZM217.23 156.194C217.643 156 217.821 155.508 217.627 155.094C217.434 154.681 216.942 154.503 216.528 154.697L217.23 156.194ZM219.524 153.291C219.111 153.485 218.933 153.978 219.127 154.391C219.321 154.804 219.814 154.982 220.227 154.788L219.524 153.291ZM223.219 153.381C223.632 153.187 223.81 152.695 223.615 152.281C223.421 151.868 222.929 151.691 222.515 151.885L223.219 153.381ZM225.494 150.483C225.081 150.678 224.903 151.17 225.098 151.583C225.293 151.996 225.785 152.173 226.198 151.979L225.494 150.483ZM229.18 150.573C229.593 150.379 229.77 149.886 229.575 149.473C229.381 149.06 228.888 148.883 228.475 149.078L229.18 150.573ZM231.46 147.67C231.047 147.865 230.87 148.358 231.065 148.77C231.26 149.183 231.752 149.36 232.165 149.165L231.46 147.67ZM235.151 147.756C235.564 147.561 235.741 147.068 235.546 146.655C235.351 146.243 234.858 146.066 234.445 146.261L235.151 147.756ZM237.432 144.851C237.019 145.046 236.842 145.539 237.037 145.951C237.232 146.364 237.725 146.541 238.138 146.346L237.432 144.851ZM241.123 144.937C241.536 144.742 241.713 144.249 241.518 143.837C241.323 143.424 240.831 143.247 240.418 143.442L241.123 144.937ZM243.403 142.034C242.99 142.229 242.813 142.721 243.008 143.134C243.202 143.547 243.695 143.724 244.108 143.529L243.403 142.034ZM247.089 142.124C247.502 141.93 247.68 141.437 247.485 141.024C247.291 140.611 246.798 140.434 246.385 140.629L247.089 142.124ZM249.364 139.227C248.951 139.421 248.774 139.913 248.968 140.326C249.162 140.74 249.654 140.917 250.068 140.723L249.364 139.227ZM253.06 139.317C253.473 139.123 253.651 138.631 253.457 138.217C253.263 137.804 252.77 137.626 252.357 137.82L253.06 139.317ZM255.354 136.415C254.941 136.609 254.763 137.101 254.956 137.514C255.15 137.928 255.642 138.106 256.056 137.912L255.354 136.415ZM259.045 136.514C259.459 136.321 259.637 135.829 259.444 135.415C259.251 135.002 258.759 134.823 258.345 135.016L259.045 136.514ZM261.329 133.625C260.915 133.817 260.736 134.309 260.928 134.723C261.121 135.137 261.613 135.316 262.027 135.123L261.329 133.625ZM265 133.741C265.414 133.549 265.594 133.058 265.402 132.644C265.209 132.23 264.718 132.05 264.304 132.242L265 133.741ZM267.317 130.846C266.903 131.038 266.722 131.529 266.914 131.943C267.105 132.358 267.596 132.538 268.011 132.347L267.317 130.846ZM271.02 130.959C271.435 130.768 271.616 130.277 271.425 129.863C271.234 129.448 270.744 129.266 270.329 129.457L271.02 130.959ZM273.328 128.08C272.913 128.27 272.731 128.761 272.921 129.176C273.111 129.591 273.602 129.773 274.017 129.583L273.328 128.08ZM277 128.221C277.416 128.031 277.599 127.541 277.41 127.126C277.22 126.71 276.73 126.527 276.315 126.716L277 128.221ZM279.298 125.361C278.882 125.55 278.697 126.04 278.885 126.455C279.074 126.871 279.564 127.056 279.979 126.868L279.298 125.361ZM283.02 125.495C283.436 125.308 283.622 124.818 283.435 124.402C283.248 123.986 282.758 123.8 282.342 123.987L283.02 125.495ZM285.369 122.63C284.952 122.817 284.765 123.306 284.951 123.722C285.137 124.139 285.626 124.326 286.043 124.14L285.369 122.63ZM289.047 122.803C289.465 122.618 289.653 122.13 289.468 121.713C289.283 121.295 288.795 121.107 288.378 121.292L289.047 122.803ZM291.366 119.973C290.948 120.157 290.758 120.644 290.942 121.062C291.126 121.48 291.614 121.67 292.031 121.486L291.366 119.973ZM295.059 120.162C295.478 119.98 295.669 119.493 295.487 119.074C295.305 118.656 294.818 118.464 294.399 118.646L295.059 120.162ZM297.465 117.319C297.045 117.499 296.852 117.986 297.033 118.405C297.213 118.824 297.7 119.018 298.119 118.837L297.465 117.319ZM301.153 117.537C301.573 117.358 301.769 116.872 301.59 116.452C301.411 116.032 300.925 115.837 300.505 116.016L301.153 117.537ZM303.519 114.739C303.098 114.916 302.901 115.401 303.078 115.822C303.255 116.243 303.74 116.44 304.16 116.263L303.519 114.739ZM307.16 115.008C307.582 114.833 307.782 114.349 307.606 113.928C307.431 113.506 306.947 113.306 306.526 113.482L307.16 115.008ZM309.64 112.197C309.217 112.37 309.015 112.853 309.188 113.275C309.361 113.698 309.844 113.9 310.266 113.727L309.64 112.197ZM313.338 112.48C313.761 112.309 313.966 111.828 313.796 111.404C313.625 110.981 313.144 110.776 312.72 110.946L313.338 112.48ZM315.765 109.731C315.341 109.899 315.133 110.379 315.301 110.804C315.469 111.228 315.949 111.436 316.373 111.268L315.765 109.731ZM319.371 110.093C319.797 109.928 320.008 109.449 319.843 109.023C319.678 108.598 319.199 108.387 318.773 108.552L319.371 110.093ZM321.932 107.339C321.506 107.501 321.291 107.978 321.453 108.405C321.615 108.832 322.092 109.046 322.519 108.884L321.932 107.339ZM325.631 107.717C326.059 107.559 326.277 107.083 326.119 106.655C325.96 106.227 325.485 106.008 325.056 106.167L325.631 107.717ZM328.133 105.043C327.703 105.197 327.481 105.671 327.636 106.101C327.79 106.53 328.264 106.753 328.694 106.598L328.133 105.043ZM331.715 105.525C332.146 105.374 332.373 104.902 332.222 104.471C332.071 104.04 331.6 103.813 331.169 103.964L331.715 105.525ZM334.394 102.856C333.961 103.001 333.729 103.47 333.875 103.903C334.021 104.336 334.49 104.568 334.922 104.422L334.394 102.856ZM338.066 103.382C338.5 103.241 338.738 102.775 338.597 102.341C338.457 101.906 337.99 101.668 337.556 101.809L338.066 103.382ZM340.654 100.828C340.217 100.963 339.973 101.426 340.108 101.862C340.243 102.298 340.706 102.542 341.142 102.407L340.654 100.828ZM344.281 101.46C344.72 101.332 344.971 100.873 344.842 100.435C344.714 99.9966 344.255 99.7456 343.816 99.874L344.281 101.46ZM347.079 98.9481C346.638 99.0688 346.379 99.5236 346.5 99.9638C346.621 100.404 347.075 100.663 347.516 100.542L347.079 98.9481ZM350.659 99.7127C351.102 99.6006 351.369 99.151 351.257 98.7084C351.145 98.2659 350.695 97.998 350.253 98.1101L350.659 99.7127ZM353.396 97.3496C352.952 97.4519 352.674 97.8955 352.776 98.3405C352.879 98.7854 353.322 99.0631 353.767 98.9607L353.396 97.3496ZM357.085 98.2438C357.533 98.1537 357.822 97.7178 357.732 97.2703C357.642 96.8227 357.206 96.533 356.759 96.6231L357.085 98.2438ZM359.997 96.0216C359.547 96.0978 359.244 96.5244 359.32 96.9745C359.396 97.4247 359.823 97.7278 360.273 97.6516L359.997 96.0216ZM363.444 97.1729C363.896 97.1133 364.215 96.6981 364.155 96.2455C364.096 95.7929 363.681 95.4742 363.228 95.5338L363.444 97.1729ZM366.648 95.1631C366.193 95.2011 365.855 95.6008 365.893 96.0557C365.931 96.5106 366.331 96.8486 366.786 96.8106L366.648 95.1631ZM369.932 96.6323C370.388 96.6197 370.748 96.2395 370.736 95.7832C370.723 95.3268 370.343 94.9671 369.886 94.9797L369.932 96.6323ZM373.328 95.0087C372.872 94.9869 372.485 95.3389 372.463 95.7949C372.441 96.2509 372.793 96.6383 373.249 96.6601L373.328 95.0087ZM376.409 96.9555C376.861 97.0207 377.28 96.7072 377.345 96.2554C377.41 95.8035 377.097 95.3844 376.645 95.3192L376.409 96.9555ZM380.001 96.0188C379.562 95.8952 379.105 96.1513 378.982 96.5908C378.858 97.0302 379.114 97.4867 379.553 97.6103L380.001 96.0188ZM382.459 98.6904C382.871 98.8874 383.365 98.7133 383.562 98.3014C383.759 97.8896 383.584 97.396 383.173 97.199L382.459 98.6904ZM386.137 99.0377C385.78 98.7536 385.26 98.813 384.975 99.1704C384.691 99.5277 384.751 100.048 385.108 100.332L386.137 99.0377ZM387.235 102.509C387.51 102.873 388.029 102.946 388.393 102.671C388.757 102.396 388.83 101.878 388.555 101.513L387.235 102.509ZM390.286 104.511C390.105 104.091 389.619 103.898 389.2 104.078C388.781 104.259 388.587 104.745 388.767 105.164L390.286 104.511ZM389.695 108.111C389.791 108.558 390.23 108.842 390.677 108.745C391.123 108.649 391.407 108.21 391.311 107.763L389.695 108.111ZM391.769 111.153C391.74 110.697 391.347 110.351 390.891 110.38C390.436 110.41 390.09 110.802 390.119 111.258L391.769 111.153ZM81.5288 179.941H80.7022C80.7022 180.575 80.7216 181.191 80.7604 181.79L81.5853 181.737L82.4102 181.684C82.3738 181.122 82.3554 180.541 82.3554 179.941H81.5288ZM82.0318 185.002L81.2242 185.178C81.4785 186.344 81.8254 187.428 82.2638 188.431L83.0212 188.1L83.7786 187.769C83.3873 186.874 83.0725 185.895 82.8394 184.826L82.0318 185.002ZM84.6718 190.912L84.0164 191.416C84.726 192.339 85.5429 193.155 86.4607 193.869L86.9681 193.216L87.4756 192.564C86.666 191.934 85.9491 191.217 85.3272 190.408L84.6718 190.912ZM89.7898 194.925L89.4407 195.674C90.4325 196.136 91.497 196.518 92.629 196.825L92.8455 196.028L93.062 195.23C92.0114 194.945 91.0366 194.594 90.1389 194.175L89.7898 194.925ZM96.0945 196.677L95.9825 197.496C97.0449 197.641 98.1542 197.736 99.3078 197.784L99.3421 196.958L99.3763 196.132C98.2693 196.086 97.2122 195.995 96.2065 195.858L96.0945 196.677ZM102.713 196.967L102.741 197.793C103.791 197.759 104.872 197.692 105.983 197.594L105.911 196.77L105.838 195.947C104.754 196.042 103.703 196.107 102.686 196.141L102.713 196.967ZM109.296 196.389L109.408 197.208C110.457 197.065 111.531 196.899 112.627 196.709L112.486 195.895L112.345 195.08C111.268 195.266 110.214 195.43 109.185 195.569L109.296 196.389ZM115.702 195.286L115.868 196.096C116.968 195.871 118.09 195.625 119.231 195.359L119.044 194.554L118.856 193.749C117.728 194.012 116.621 194.254 115.536 194.477L115.702 195.286ZM122.16 193.791L122.365 194.592C123.408 194.325 124.467 194.042 125.54 193.746L125.32 192.949L125.099 192.152C124.036 192.446 122.987 192.726 121.955 192.99L122.16 193.791ZM128.569 192.019L128.803 192.812C129.842 192.505 130.894 192.185 131.958 191.854L131.712 191.064L131.466 190.275C130.409 190.604 129.365 190.922 128.334 191.226L128.569 192.019ZM134.799 190.08L135.055 190.866C136.099 190.525 137.153 190.174 138.218 189.813L137.952 189.03L137.687 188.248C136.628 188.607 135.58 188.956 134.543 189.294L134.799 190.08ZM141.168 187.919L141.443 188.699C142.444 188.347 143.454 187.986 144.472 187.618L144.191 186.84L143.909 186.063C142.896 186.43 141.891 186.789 140.894 187.139L141.168 187.919ZM147.26 185.714L147.548 186.488C148.582 186.104 149.623 185.712 150.672 185.312L150.378 184.54L150.083 183.767C149.038 184.165 148.001 184.556 146.972 184.939L147.26 185.714ZM153.526 183.326L153.826 184.097C154.823 183.709 155.825 183.314 156.834 182.914L156.529 182.145L156.224 181.377C155.218 181.776 154.219 182.169 153.226 182.556L153.526 183.326ZM159.569 180.928L159.879 181.694C160.899 181.282 161.926 180.864 162.958 180.44L162.645 179.676L162.331 178.911C161.301 179.333 160.277 179.75 159.259 180.162L159.569 180.928ZM165.754 178.39L166.072 179.153C167.068 178.738 168.069 178.318 169.075 177.894L168.754 177.132L168.432 176.37C167.429 176.794 166.43 177.213 165.436 177.627L165.754 178.39ZM171.764 175.854L172.089 176.614C173.098 176.183 174.111 175.748 175.129 175.309L174.801 174.55L174.473 173.791C173.458 174.23 172.446 174.664 171.439 175.094L171.764 175.854ZM177.863 173.221L178.194 173.979C179.2 173.54 180.21 173.097 181.224 172.651L180.891 171.894L180.558 171.138C179.546 171.583 178.537 172.025 177.533 172.463L177.863 173.221ZM183.877 170.574L184.212 171.33C185.212 170.886 186.215 170.439 187.221 169.989L186.883 169.235L186.545 168.48C185.541 168.929 184.54 169.376 183.542 169.819L183.877 170.574ZM189.908 167.877L190.247 168.631C191.259 168.175 192.274 167.716 193.291 167.255L192.95 166.502L192.608 165.749C191.592 166.21 190.579 166.668 189.568 167.123L189.908 167.877ZM195.929 165.147L196.272 165.899C197.265 165.447 198.261 164.991 199.258 164.534L198.914 163.783L198.569 163.031C197.573 163.488 196.578 163.943 195.586 164.395L195.929 165.147ZM201.912 162.405L202.257 163.156C203.259 162.694 204.263 162.231 205.269 161.766L204.922 161.015L204.575 160.265C203.57 160.73 202.567 161.193 201.566 161.654L201.912 162.405ZM207.933 159.62L208.281 160.369C209.271 159.91 210.262 159.448 211.256 158.986L210.906 158.236L210.557 157.487C209.565 157.949 208.574 158.411 207.584 158.87L207.933 159.62ZM213.889 156.844L214.239 157.593C215.235 157.128 216.232 156.661 217.23 156.194L216.879 155.445L216.528 154.697C215.531 155.164 214.534 155.63 213.539 156.096L213.889 156.844ZM219.875 154.04L220.227 154.788C221.223 154.32 222.221 153.851 223.219 153.381L222.867 152.633L222.515 151.885C221.517 152.355 220.52 152.823 219.524 153.291L219.875 154.04ZM225.846 151.231L226.198 151.979C227.192 151.511 228.186 151.042 229.18 150.573L228.828 149.826L228.475 149.078C227.481 149.547 226.487 150.015 225.494 150.483L225.846 151.231ZM231.812 148.418L232.165 149.165C233.16 148.696 234.156 148.226 235.151 147.756L234.798 147.008L234.445 146.261C233.45 146.731 232.455 147.201 231.46 147.67L231.812 148.418ZM237.785 145.599L238.138 146.346C239.133 145.876 240.128 145.406 241.123 144.937L240.771 144.189L240.418 143.442C239.423 143.911 238.427 144.381 237.432 144.851L237.785 145.599ZM243.755 142.782L244.108 143.529C245.102 143.06 246.096 142.592 247.089 142.124L246.737 141.376L246.385 140.629C245.391 141.097 244.397 141.565 243.403 142.034L243.755 142.782ZM249.716 139.975L250.068 140.723C251.066 140.253 252.063 139.785 253.06 139.317L252.708 138.569L252.357 137.82C251.36 138.288 250.363 138.757 249.364 139.227L249.716 139.975ZM255.705 137.164L256.056 137.912C257.053 137.445 258.05 136.979 259.045 136.514L258.695 135.765L258.345 135.016C257.35 135.481 256.353 135.948 255.354 136.415L255.705 137.164ZM261.678 134.374L262.027 135.123C263.019 134.661 264.01 134.201 265 133.741L264.652 132.992L264.304 132.242C263.314 132.701 262.322 133.162 261.329 133.625L261.678 134.374ZM267.664 131.597L268.011 132.347C269.016 131.882 270.019 131.42 271.02 130.959L270.674 130.208L270.329 129.457C269.327 129.918 268.323 130.381 267.317 130.846L267.664 131.597ZM273.673 128.832L274.017 129.583C275.013 129.127 276.008 128.673 277 128.221L276.657 127.468L276.315 126.716C275.322 127.169 274.326 127.623 273.328 128.08L273.673 128.832ZM279.639 126.114L279.979 126.868C280.996 126.407 282.009 125.95 283.02 125.495L282.681 124.741L282.342 123.987C281.33 124.443 280.315 124.901 279.298 125.361L279.639 126.114ZM285.706 123.385L286.043 124.14C287.048 123.691 288.049 123.246 289.047 122.803L288.712 122.048L288.378 121.292C287.378 121.735 286.375 122.181 285.369 122.63L285.706 123.385ZM291.699 120.73L292.031 121.486C293.044 121.041 294.054 120.6 295.059 120.162L294.729 119.404L294.399 118.646C293.392 119.085 292.381 119.527 291.366 119.973L291.699 120.73ZM297.792 118.078L298.119 118.837C299.135 118.399 300.146 117.966 301.153 117.537L300.829 116.776L300.505 116.016C299.496 116.446 298.482 116.88 297.465 117.319L297.792 118.078ZM303.84 115.501L304.16 116.263C305.165 115.84 306.165 115.422 307.16 115.008L306.843 114.245L306.526 113.482C305.528 113.896 304.526 114.315 303.519 114.739L303.84 115.501ZM309.953 112.962L310.266 113.727C311.296 113.306 312.32 112.89 313.338 112.48L313.029 111.713L312.72 110.946C311.699 111.358 310.672 111.775 309.64 112.197L309.953 112.962ZM316.069 110.499L316.373 111.268C317.379 110.87 318.378 110.478 319.371 110.093L319.072 109.322L318.773 108.552C317.777 108.938 316.774 109.332 315.765 109.731L316.069 110.499ZM322.226 108.112L322.519 108.884C323.564 108.488 324.601 108.099 325.631 107.717L325.344 106.942L325.056 106.167C324.023 106.55 322.981 106.94 321.932 107.339L322.226 108.112ZM328.413 105.82L328.694 106.598C329.709 106.232 330.716 105.874 331.715 105.525L331.442 104.744L331.169 103.964C330.165 104.315 329.153 104.675 328.133 105.043L328.413 105.82ZM334.658 103.639L334.922 104.422C335.981 104.065 337.029 103.718 338.066 103.382L337.811 102.596L337.556 101.809C336.513 102.147 335.458 102.496 334.394 102.856L334.658 103.639ZM340.898 101.617L341.142 102.407C342.202 102.079 343.248 101.763 344.281 101.46L344.049 100.667L343.816 99.874C342.775 100.179 341.72 100.497 340.654 100.828L340.898 101.617ZM347.297 99.7453L347.516 100.542C348.579 100.251 349.627 99.9743 350.659 99.7127L350.456 98.9114L350.253 98.1101C349.21 98.3744 348.152 98.6539 347.079 98.9481L347.297 99.7453ZM353.582 98.1551L353.767 98.9607C354.894 98.7015 356 98.4622 357.085 98.2438L356.922 97.4335L356.759 96.6231C355.658 96.8447 354.537 97.0871 353.396 97.3496L353.582 98.1551ZM360.135 96.8366L360.273 97.6516C361.355 97.4685 362.412 97.3087 363.444 97.1729L363.336 96.3534L363.228 95.5338C362.175 95.6724 361.097 95.8353 359.997 96.0216L360.135 96.8366ZM366.717 95.9868L366.786 96.8106C367.868 96.7202 368.917 96.6604 369.932 96.6323L369.909 95.806L369.886 94.9797C368.838 95.0087 367.758 95.0703 366.648 95.1631L366.717 95.9868ZM373.289 95.8344L373.249 96.6601C374.353 96.7128 375.407 96.8109 376.409 96.9555L376.527 96.1373L376.645 95.3192C375.585 95.1664 374.479 95.0637 373.328 95.0087L373.289 95.8344ZM379.777 96.8145L379.553 97.6103C380.598 97.9041 381.567 98.2637 382.459 98.6904L382.816 97.9447L383.173 97.199C382.186 96.7273 381.127 96.3356 380.001 96.0188L379.777 96.8145ZM385.622 99.6847L385.108 100.332C385.91 100.969 386.619 101.693 387.235 102.509L387.895 102.011L388.555 101.513C387.853 100.584 387.045 99.7597 386.137 99.0377L385.622 99.6847ZM389.527 104.837L388.767 105.164C389.154 106.062 389.464 107.043 389.695 108.111L390.503 107.937L391.311 107.763C391.06 106.599 390.718 105.515 390.286 104.511L389.527 104.837Z" fill="#EA8316"/>
<path d="M86 35.3594C87.9266 35.3594 89.4884 36.9211 89.4884 38.8476V43.4985C89.4884 45.425 87.9266 46.9867 86 46.9867C84.0734 46.9867 82.5116 45.425 82.5116 43.4985V38.8476C82.5116 36.9211 84.0734 35.3594 86 35.3594Z" fill="#EA8316"/>
<path d="M86 58.614C71.3313 58.614 59.2558 70.9126 59.2558 86.3145C59.2558 90.4568 60.1315 94.3755 61.6959 97.8918C62.479 99.652 61.6869 101.714 59.9266 102.497C58.1664 103.28 56.1046 102.488 55.3215 100.728C53.3658 96.3317 52.2791 91.448 52.2791 86.3145C52.2791 67.2663 67.2747 51.6376 86 51.6376C104.726 51.6376 119.721 67.2663 119.721 86.3145C119.721 91.4481 118.634 96.3317 116.678 100.727C115.895 102.488 113.834 103.28 112.073 102.497C110.313 101.714 109.521 99.652 110.304 97.8919C111.868 94.3755 112.744 90.4567 112.744 86.3145C112.744 70.9126 100.669 58.614 86 58.614Z" fill="#EA8316"/>
<path d="M127.86 81.8687C125.934 81.8687 124.372 83.4304 124.372 85.3569C124.372 87.2834 125.934 88.8451 127.86 88.8451H132.512C134.438 88.8451 136 87.2834 136 85.3569C136 83.4304 134.438 81.8687 132.512 81.8687H127.86Z" fill="#EA8316"/>
<path d="M36 85.3569C36 83.4304 37.5618 81.8687 39.4884 81.8687H44.1395C46.0661 81.8687 47.6279 83.4304 47.6279 85.3569C47.6279 87.2834 46.0661 88.8451 44.1395 88.8451H39.4884C37.5618 88.8451 36 87.2834 36 85.3569Z" fill="#EA8316"/>
<path d="M121.352 54.9353C122.714 53.5731 122.714 51.3645 121.352 50.0023C119.99 48.64 117.781 48.6401 116.419 50.0023L113.13 53.291C111.768 54.6532 111.768 56.8619 113.13 58.2241C114.492 59.5863 116.701 59.5863 118.063 58.224L121.352 54.9353Z" fill="#EA8316"/>
<path d="M50.6482 50.0068C52.0105 48.6446 54.2192 48.6446 55.5815 50.0068L58.8704 53.2955C60.2327 54.6578 60.2327 56.8664 58.8704 58.2286C57.5081 59.5908 55.2994 59.5908 53.9371 58.2286L50.6482 54.9399C49.2859 53.5777 49.2859 51.369 50.6482 50.0068Z" fill="#EA8316"/>
<path fill-rule="evenodd" clip-rule="evenodd" d="M108.288 109.615C107.763 113.895 105.931 119.068 101.011 121.713C100.598 125.484 99.6627 128.861 97.4579 131.347C94.69 134.468 90.6735 135.403 86.0471 135.355C80.9968 135.44 76.9501 134.253 74.2573 130.984C72.1357 128.408 71.2895 125.006 70.8685 121.475C68.8092 120.174 67.2419 118.648 66.1114 116.812C64.7146 114.544 64.1718 112.102 63.8859 109.724C63.4582 106.169 66.324 103.339 69.6171 103.339L102.618 103.338C105.756 103.338 108.731 105.995 108.288 109.615ZM72.0518 113.154C71.5875 112.4 71.2636 111.504 71.0319 110.316L101.101 110.315C100.493 113.055 99.2087 114.979 97.0988 115.85H75.0458C73.4456 114.924 72.5853 114.02 72.0518 113.154ZM79.6425 126.548C79.0074 125.777 78.5098 124.616 78.1428 122.827H93.8003C93.4223 124.831 92.8729 126.002 92.2381 126.718C91.4444 127.613 89.9258 128.424 86.0769 128.379C86.0416 128.378 86.0064 128.378 85.9711 128.379C81.9566 128.453 80.432 127.507 79.6425 126.548Z" fill="#EA8316"/>
<g clip-path="url(#clip0_4086_6849)">
<path d="M404.236 247.806C402.452 251.346 401.272 255.188 400.82 259.217L438.583 252.034C440.368 248.495 441.546 244.652 441.999 240.623L404.236 247.806Z" fill="#071C2F"/>
<path d="M438.583 230.516C440.368 226.977 441.547 223.134 441.999 219.105L412.583 224.703V213.942L438.582 208.998C440.367 205.459 441.546 201.616 441.998 197.587L412.582 203.18V164.48C408.074 166.745 404.071 169.759 400.817 173.314V205.418L389.053 207.656V159.217C384.545 161.48 380.542 164.495 377.288 168.051V209.892L350.965 214.897C349.181 218.436 348 222.279 347.547 226.308L377.288 220.653V234.205L345.415 240.265C343.63 243.804 342.451 247.647 341.999 251.676L375.361 245.333C378.077 244.827 380.411 243.391 381.929 241.413L388.048 233.297V233.296C388.683 232.456 389.053 231.444 389.053 230.353V218.416L400.817 216.178V237.7L438.582 230.515L438.583 230.516Z" fill="#071C2F"/>
</g>
<defs>
<clipPath id="clip0_4086_6849">
<rect width="100" height="100" fill="white" transform="translate(342 159.217)"/>
</clipPath>
</defs>
</svg>
