<svg width="71" height="71" viewBox="0 0 71 71" fill="none" xmlns="http://www.w3.org/2000/svg">
<path fill-rule="evenodd" clip-rule="evenodd" d="M6.08342 41.3668H6.81258V61.7835H6.08342C4.47258 61.7835 3.16675 63.0893 3.16675 64.7002C3.16675 66.311 4.47258 67.6168 6.08342 67.6168H64.4168C66.0276 67.6168 67.3334 66.311 67.3334 64.7002C67.3334 63.0893 66.0276 61.7835 64.4168 61.7835H63.6876V41.3668H64.4168C66.0276 41.3668 67.3334 40.061 67.3334 38.4502C67.3334 36.8393 66.0276 35.5335 64.4168 35.5335H50.5626V26.0543H51.2918C52.4999 26.0543 53.4793 25.075 53.4793 23.8668C53.4793 22.6587 52.4999 21.6793 51.2918 21.6793H37.4376V17.2524H46.9168C48.1249 17.2524 49.1043 16.2731 49.1043 15.0649C49.1043 12.9155 48.5814 9.68395 45.7895 7.96485C44.7155 7.30351 42.7048 6.11782 40.75 5.26454C39.786 4.84375 38.7185 4.45114 37.726 4.27711C36.9183 4.13548 35.293 3.97649 34.1259 5.1505C33.4405 5.84002 33.2208 6.65785 33.1353 7.29755C33.0621 7.84506 33.0624 8.49415 33.0626 9.09656L33.0626 21.6793H19.2084C18.0003 21.6793 17.0209 22.6587 17.0209 23.8668C17.0209 25.075 18.0003 26.0543 19.2084 26.0543H19.9376V35.5335H6.08342C4.47258 35.5335 3.16675 36.8393 3.16675 38.4502C3.16675 40.061 4.47258 41.3668 6.08342 41.3668ZM19.9376 41.3668V61.7835H12.6459V41.3668H19.9376ZM33.0626 61.7835V58.8668C33.0626 57.6587 34.042 56.6793 35.2501 56.6793C36.4582 56.6793 37.4376 57.6587 37.4376 58.8668V61.7835H33.0626ZM50.5626 61.7835V41.3668H57.8543V61.7835H50.5626ZM33.0626 35.5335C33.0626 34.3254 32.0832 33.346 30.8751 33.346C29.667 33.346 28.6876 34.3254 28.6876 35.5335V36.9918C28.6876 38.2 29.667 39.1793 30.8751 39.1793C32.0832 39.1793 33.0626 38.2 33.0626 36.9918V35.5335ZM41.8126 35.5335C41.8126 34.3254 40.8332 33.346 39.6251 33.346C38.417 33.346 37.4376 34.3254 37.4376 35.5335V36.9918C37.4376 38.2 38.417 39.1793 39.6251 39.1793C40.8332 39.1793 41.8126 38.2 41.8126 36.9918V35.5335ZM30.8751 45.0127C32.0832 45.0127 33.0626 45.992 33.0626 47.2002V48.6585C33.0626 49.8666 32.0832 50.846 30.8751 50.846C29.667 50.846 28.6876 49.8666 28.6876 48.6585V47.2002C28.6876 45.992 29.667 45.0127 30.8751 45.0127ZM39.6251 45.0127C40.8332 45.0127 41.8126 45.992 41.8126 47.2002V48.6585C41.8126 49.8666 40.8332 50.846 39.6251 50.846C38.417 50.846 37.4376 49.8666 37.4376 48.6585V47.2002C37.4376 45.992 38.417 45.0127 39.6251 45.0127Z" fill="white" fill-opacity="0.8"/>
</svg>
